G04 #@! TF.GenerationSoftware,KiCad,Pcbnew,(5.0.1)-4*
G04 #@! TF.CreationDate,2019-02-28T18:49:44-05:00*
G04 #@! TF.ProjectId,km-skillz-badge-kit,6B6D2D736B696C6C7A2D62616467652D,rev?*
G04 #@! TF.SameCoordinates,Original*
G04 #@! TF.FileFunction,Copper,L1,Top,Signal*
G04 #@! TF.FilePolarity,Positive*
%FSLAX46Y46*%
G04 Gerber Fmt 4.6, Leading zero omitted, Abs format (unit mm)*
G04 Created by KiCad (PCBNEW (5.0.1)-4) date 2/28/2019 6:49:44 PM*
%MOMM*%
%LPD*%
G01*
G04 APERTURE LIST*
G04 #@! TA.AperFunction,ComponentPad*
%ADD10O,1.700000X1.700000*%
G04 #@! TD*
G04 #@! TA.AperFunction,ComponentPad*
%ADD11R,1.700000X1.700000*%
G04 #@! TD*
G04 #@! TA.AperFunction,ComponentPad*
%ADD12C,3.175000*%
G04 #@! TD*
G04 #@! TA.AperFunction,ComponentPad*
%ADD13R,1.778000X1.778000*%
G04 #@! TD*
G04 #@! TA.AperFunction,ComponentPad*
%ADD14C,2.032000*%
G04 #@! TD*
G04 #@! TA.AperFunction,ComponentPad*
%ADD15C,1.800000*%
G04 #@! TD*
G04 #@! TA.AperFunction,ComponentPad*
%ADD16R,1.800000X1.800000*%
G04 #@! TD*
G04 #@! TA.AperFunction,ComponentPad*
%ADD17C,1.520000*%
G04 #@! TD*
G04 #@! TA.AperFunction,ComponentPad*
%ADD18R,1.520000X1.520000*%
G04 #@! TD*
G04 #@! TA.AperFunction,ComponentPad*
%ADD19C,1.600000*%
G04 #@! TD*
G04 #@! TA.AperFunction,ComponentPad*
%ADD20C,2.400000*%
G04 #@! TD*
G04 #@! TA.AperFunction,ComponentPad*
%ADD21O,2.400000X2.400000*%
G04 #@! TD*
G04 #@! TA.AperFunction,SMDPad,CuDef*
%ADD22R,2.540000X2.500000*%
G04 #@! TD*
G04 #@! TA.AperFunction,ViaPad*
%ADD23C,1.524000*%
G04 #@! TD*
G04 #@! TA.AperFunction,Conductor*
%ADD24C,0.762000*%
G04 #@! TD*
G04 #@! TA.AperFunction,Conductor*
%ADD25C,0.508000*%
G04 #@! TD*
G04 APERTURE END LIST*
D10*
G04 #@! TO.P,J1,2*
G04 #@! TO.N,Net-(BT1-Pad1)*
X170180000Y-101092000D03*
D11*
G04 #@! TO.P,J1,1*
G04 #@! TO.N,VCC*
X170180000Y-98552000D03*
G04 #@! TD*
D12*
G04 #@! TO.P,BT1,1*
G04 #@! TO.N,Net-(BT1-Pad1)*
X162179000Y-103378000D03*
X140589000Y-103378000D03*
G04 #@! TD*
D13*
G04 #@! TO.P,D4,1*
G04 #@! TO.N,Net-(D1-Pad1)*
X126238000Y-106807000D03*
D14*
G04 #@! TO.P,D4,2*
G04 #@! TO.N,Net-(D4-Pad2)*
X128778000Y-106807000D03*
G04 #@! TD*
G04 #@! TO.P,D3,2*
G04 #@! TO.N,Net-(D3-Pad2)*
X174498000Y-106807000D03*
D13*
G04 #@! TO.P,D3,1*
G04 #@! TO.N,Net-(D1-Pad1)*
X171958000Y-106807000D03*
G04 #@! TD*
G04 #@! TO.P,D1,1*
G04 #@! TO.N,Net-(D1-Pad1)*
X126365000Y-60960000D03*
D14*
G04 #@! TO.P,D1,2*
G04 #@! TO.N,Net-(D1-Pad2)*
X128905000Y-60960000D03*
G04 #@! TD*
D13*
G04 #@! TO.P,D2,1*
G04 #@! TO.N,Net-(D1-Pad1)*
X171704000Y-60960000D03*
D14*
G04 #@! TO.P,D2,2*
G04 #@! TO.N,Net-(D2-Pad2)*
X174244000Y-60960000D03*
G04 #@! TD*
G04 #@! TO.P,D5,2*
G04 #@! TO.N,Net-(D5-Pad2)*
X134874000Y-93218000D03*
D13*
G04 #@! TO.P,D5,1*
G04 #@! TO.N,Net-(D1-Pad1)*
X132334000Y-93218000D03*
G04 #@! TD*
D14*
G04 #@! TO.P,D6,2*
G04 #@! TO.N,Net-(D6-Pad2)*
X163830000Y-76835000D03*
D13*
G04 #@! TO.P,D6,1*
G04 #@! TO.N,Net-(D1-Pad1)*
X161290000Y-76835000D03*
G04 #@! TD*
D15*
G04 #@! TO.P,D7,2*
G04 #@! TO.N,Net-(D7-Pad2)*
X151511000Y-60020200D03*
D16*
G04 #@! TO.P,D7,1*
G04 #@! TO.N,Net-(D10-Pad1)*
X148971000Y-60020200D03*
G04 #@! TD*
G04 #@! TO.P,D8,1*
G04 #@! TO.N,Net-(D10-Pad1)*
X173431200Y-83820000D03*
D15*
G04 #@! TO.P,D8,2*
G04 #@! TO.N,Net-(D8-Pad2)*
X175971200Y-83820000D03*
G04 #@! TD*
D16*
G04 #@! TO.P,D10,1*
G04 #@! TO.N,Net-(D10-Pad1)*
X124968000Y-83693000D03*
D15*
G04 #@! TO.P,D10,2*
G04 #@! TO.N,Net-(D10-Pad2)*
X127508000Y-83693000D03*
G04 #@! TD*
G04 #@! TO.P,D11,2*
G04 #@! TO.N,Net-(D11-Pad2)*
X147193000Y-86360000D03*
D16*
G04 #@! TO.P,D11,1*
G04 #@! TO.N,Net-(D10-Pad1)*
X144653000Y-86360000D03*
G04 #@! TD*
D17*
G04 #@! TO.P,Q1,2*
G04 #@! TO.N,Net-(Q1-Pad2)*
X174244000Y-69342000D03*
G04 #@! TO.P,Q1,3*
G04 #@! TO.N,Net-(D1-Pad1)*
X176784000Y-69342000D03*
D18*
G04 #@! TO.P,Q1,1*
G04 #@! TO.N,GND*
X171704000Y-69342000D03*
G04 #@! TD*
G04 #@! TO.P,Q2,1*
G04 #@! TO.N,GND*
X171831000Y-76327000D03*
D17*
G04 #@! TO.P,Q2,3*
G04 #@! TO.N,Net-(D10-Pad1)*
X176911000Y-76327000D03*
G04 #@! TO.P,Q2,2*
G04 #@! TO.N,Net-(Q2-Pad2)*
X174371000Y-76327000D03*
G04 #@! TD*
D18*
G04 #@! TO.P,Q3,1*
G04 #@! TO.N,GND*
X139446000Y-74422000D03*
D17*
G04 #@! TO.P,Q3,3*
G04 #@! TO.N,Net-(C1-Pad1)*
X139446000Y-69342000D03*
G04 #@! TO.P,Q3,2*
G04 #@! TO.N,Net-(C2-Pad1)*
X139446000Y-71882000D03*
G04 #@! TD*
G04 #@! TO.P,Q4,2*
G04 #@! TO.N,Net-(C1-Pad2)*
X132842000Y-71882000D03*
G04 #@! TO.P,Q4,3*
G04 #@! TO.N,Net-(C2-Pad2)*
X132842000Y-69342000D03*
D18*
G04 #@! TO.P,Q4,1*
G04 #@! TO.N,GND*
X132842000Y-74422000D03*
G04 #@! TD*
D19*
G04 #@! TO.P,C1,2*
G04 #@! TO.N,Net-(C1-Pad2)*
X133604000Y-80010000D03*
G04 #@! TO.P,C1,1*
G04 #@! TO.N,Net-(C1-Pad1)*
X138604000Y-80010000D03*
G04 #@! TD*
G04 #@! TO.P,C2,2*
G04 #@! TO.N,Net-(C2-Pad2)*
X132842000Y-64008000D03*
G04 #@! TO.P,C2,1*
G04 #@! TO.N,Net-(C2-Pad1)*
X137842000Y-64008000D03*
G04 #@! TD*
G04 #@! TO.P,C3,2*
G04 #@! TO.N,GND*
X121920000Y-96600000D03*
G04 #@! TO.P,C3,1*
G04 #@! TO.N,Net-(BT1-Pad1)*
X121920000Y-101600000D03*
G04 #@! TD*
D11*
G04 #@! TO.P,MTH1,1*
G04 #@! TO.N,N/C*
X178308000Y-55880000D03*
G04 #@! TD*
G04 #@! TO.P,MTH2,1*
G04 #@! TO.N,N/C*
X122555000Y-55880000D03*
G04 #@! TD*
G04 #@! TO.P,MTH3,1*
G04 #@! TO.N,N/C*
X122428000Y-111760000D03*
G04 #@! TD*
G04 #@! TO.P,MTH4,1*
G04 #@! TO.N,N/C*
X178308000Y-111760000D03*
G04 #@! TD*
D20*
G04 #@! TO.P,R1,1*
G04 #@! TO.N,VCC*
X140335000Y-56007000D03*
D21*
G04 #@! TO.P,R1,2*
G04 #@! TO.N,Net-(D1-Pad2)*
X127635000Y-56007000D03*
G04 #@! TD*
G04 #@! TO.P,R2,2*
G04 #@! TO.N,Net-(D2-Pad2)*
X173736000Y-56007000D03*
D20*
G04 #@! TO.P,R2,1*
G04 #@! TO.N,VCC*
X161036000Y-56007000D03*
G04 #@! TD*
G04 #@! TO.P,R3,1*
G04 #@! TO.N,VCC*
X173863000Y-112141000D03*
D21*
G04 #@! TO.P,R3,2*
G04 #@! TO.N,Net-(D3-Pad2)*
X161163000Y-112141000D03*
G04 #@! TD*
G04 #@! TO.P,R4,2*
G04 #@! TO.N,Net-(D4-Pad2)*
X127000000Y-112141000D03*
D20*
G04 #@! TO.P,R4,1*
G04 #@! TO.N,VCC*
X139700000Y-112141000D03*
G04 #@! TD*
G04 #@! TO.P,R5,1*
G04 #@! TO.N,VCC*
X125730000Y-97663000D03*
D21*
G04 #@! TO.P,R5,2*
G04 #@! TO.N,Net-(D5-Pad2)*
X138430000Y-97663000D03*
G04 #@! TD*
G04 #@! TO.P,R6,2*
G04 #@! TO.N,Net-(D6-Pad2)*
X170688000Y-82042000D03*
D20*
G04 #@! TO.P,R6,1*
G04 #@! TO.N,VCC*
X157988000Y-82042000D03*
G04 #@! TD*
G04 #@! TO.P,R7,1*
G04 #@! TO.N,VCC*
X144399000Y-55626000D03*
D21*
G04 #@! TO.P,R7,2*
G04 #@! TO.N,Net-(D7-Pad2)*
X157099000Y-55626000D03*
G04 #@! TD*
G04 #@! TO.P,R8,2*
G04 #@! TO.N,Net-(D8-Pad2)*
X178816000Y-88519000D03*
D20*
G04 #@! TO.P,R8,1*
G04 #@! TO.N,VCC*
X166116000Y-88519000D03*
G04 #@! TD*
G04 #@! TO.P,R9,1*
G04 #@! TO.N,VCC*
X178816000Y-93218000D03*
D21*
G04 #@! TO.P,R9,2*
G04 #@! TO.N,Net-(D9-Pad2)*
X166116000Y-93218000D03*
G04 #@! TD*
G04 #@! TO.P,R10,2*
G04 #@! TO.N,Net-(D10-Pad2)*
X135636000Y-88468200D03*
D20*
G04 #@! TO.P,R10,1*
G04 #@! TO.N,VCC*
X122936000Y-88468200D03*
G04 #@! TD*
G04 #@! TO.P,R11,1*
G04 #@! TO.N,VCC*
X141986000Y-81280000D03*
D21*
G04 #@! TO.P,R11,2*
G04 #@! TO.N,Net-(D11-Pad2)*
X154686000Y-81280000D03*
G04 #@! TD*
D20*
G04 #@! TO.P,R12,1*
G04 #@! TO.N,Net-(C1-Pad1)*
X155194000Y-67310000D03*
D21*
G04 #@! TO.P,R12,2*
G04 #@! TO.N,Net-(Q1-Pad2)*
X167894000Y-67310000D03*
G04 #@! TD*
G04 #@! TO.P,R13,2*
G04 #@! TO.N,Net-(C2-Pad2)*
X153416000Y-72136000D03*
D20*
G04 #@! TO.P,R13,1*
G04 #@! TO.N,Net-(Q2-Pad2)*
X166116000Y-72136000D03*
G04 #@! TD*
D21*
G04 #@! TO.P,R14,2*
G04 #@! TO.N,Net-(C1-Pad1)*
X144780000Y-63754000D03*
D20*
G04 #@! TO.P,R14,1*
G04 #@! TO.N,VCC*
X144780000Y-76454000D03*
G04 #@! TD*
D21*
G04 #@! TO.P,R15,2*
G04 #@! TO.N,Net-(C1-Pad2)*
X122428000Y-65532000D03*
D20*
G04 #@! TO.P,R15,1*
G04 #@! TO.N,VCC*
X122428000Y-78232000D03*
G04 #@! TD*
G04 #@! TO.P,R16,1*
G04 #@! TO.N,VCC*
X149352000Y-76454000D03*
D21*
G04 #@! TO.P,R16,2*
G04 #@! TO.N,Net-(C2-Pad1)*
X149352000Y-63754000D03*
G04 #@! TD*
G04 #@! TO.P,R17,2*
G04 #@! TO.N,Net-(C2-Pad2)*
X127000000Y-65532000D03*
D20*
G04 #@! TO.P,R17,1*
G04 #@! TO.N,VCC*
X127000000Y-78232000D03*
G04 #@! TD*
D22*
G04 #@! TO.P,D9,2*
G04 #@! TO.N,Net-(D9-Pad2)*
X152501600Y-108153200D03*
G04 #@! TO.P,D9,1*
G04 #@! TO.N,Net-(D10-Pad1)*
X148501600Y-108153200D03*
G04 #@! TD*
D23*
G04 #@! TO.N,GND*
X163576000Y-91440000D03*
X157226000Y-85598000D03*
G04 #@! TO.N,Net-(D1-Pad1)*
X126746000Y-94615000D03*
X122174000Y-92557600D03*
G04 #@! TO.N,Net-(D9-Pad2)*
X157124400Y-105029000D03*
G04 #@! TO.N,Net-(D10-Pad1)*
X162915600Y-99923600D03*
X156362400Y-92075000D03*
X144653000Y-105167000D03*
G04 #@! TD*
D24*
G04 #@! TO.N,GND*
X132842000Y-74422000D02*
X139446000Y-74422000D01*
X171704000Y-76200000D02*
X171831000Y-76327000D01*
X171704000Y-69342000D02*
X171704000Y-76200000D01*
X163576000Y-90362370D02*
X163576000Y-91440000D01*
X163576000Y-83060000D02*
X163576000Y-90362370D01*
X170309000Y-76327000D02*
X163576000Y-83060000D01*
X171831000Y-76327000D02*
X170309000Y-76327000D01*
X124460000Y-93218000D02*
X131521200Y-86156800D01*
X131521200Y-86156800D02*
X131521200Y-78079600D01*
X132842000Y-76758800D02*
X132842000Y-74422000D01*
X131521200Y-78079600D02*
X132842000Y-76758800D01*
X124460000Y-94060000D02*
X121920000Y-96600000D01*
X124460000Y-93218000D02*
X124460000Y-94060000D01*
X139446000Y-74422000D02*
X139446000Y-74930000D01*
X139446000Y-74930000D02*
X146710400Y-82194400D01*
X146710400Y-82194400D02*
X151180800Y-82194400D01*
X154584400Y-85598000D02*
X157226000Y-85598000D01*
X151180800Y-82194400D02*
X154584400Y-85598000D01*
G04 #@! TO.N,Net-(D1-Pad2)*
X128905000Y-57277000D02*
X127635000Y-56007000D01*
X128905000Y-60960000D02*
X128905000Y-57277000D01*
G04 #@! TO.N,Net-(D2-Pad2)*
X174244000Y-56515000D02*
X173736000Y-56007000D01*
X174244000Y-60960000D02*
X174244000Y-56515000D01*
G04 #@! TO.N,Net-(D3-Pad2)*
X162860056Y-112141000D02*
X161163000Y-112141000D01*
X170002202Y-112141000D02*
X162860056Y-112141000D01*
X174498000Y-107645202D02*
X170002202Y-112141000D01*
X174498000Y-106807000D02*
X174498000Y-107645202D01*
G04 #@! TO.N,Net-(D5-Pad2)*
X138430000Y-96774000D02*
X134874000Y-93218000D01*
X138430000Y-97663000D02*
X138430000Y-96774000D01*
G04 #@! TO.N,VCC*
X171792000Y-96012000D02*
X170180000Y-96012000D01*
X176403001Y-100623001D02*
X171792000Y-96012000D01*
X176403001Y-109600999D02*
X176403001Y-100623001D01*
X173863000Y-112141000D02*
X176403001Y-109600999D01*
X170180000Y-92583000D02*
X166116000Y-88519000D01*
X170180000Y-96012000D02*
X170180000Y-92583000D01*
X159836001Y-57206999D02*
X161036000Y-56007000D01*
X158946999Y-58096001D02*
X159836001Y-57206999D01*
X156096279Y-58096001D02*
X158946999Y-58096001D01*
X154007278Y-56007000D02*
X156096279Y-58096001D01*
X156096279Y-58096001D02*
X156096279Y-62648521D01*
X156096279Y-62648521D02*
X149352000Y-69392800D01*
X176022000Y-96012000D02*
X178816000Y-93218000D01*
X171792000Y-96012000D02*
X176022000Y-96012000D01*
X170180000Y-96940000D02*
X170180000Y-96012000D01*
X170180000Y-98552000D02*
X170180000Y-96940000D01*
X149352000Y-69392800D02*
X149352000Y-76454000D01*
X144018000Y-56007000D02*
X144399000Y-55626000D01*
X140335000Y-56007000D02*
X144018000Y-56007000D01*
X153626278Y-55626000D02*
X154007278Y-56007000D01*
X144399000Y-55626000D02*
X153626278Y-55626000D01*
G04 #@! TO.N,Net-(D1-Pad1)*
X132334000Y-91567000D02*
X132334000Y-93218000D01*
X161290000Y-76835000D02*
X161290000Y-86360000D01*
X132334000Y-94869000D02*
X132334000Y-93218000D01*
X132334000Y-99060000D02*
X132334000Y-94869000D01*
X126238000Y-105156000D02*
X132334000Y-99060000D01*
X126238000Y-106807000D02*
X126238000Y-105156000D01*
X130683000Y-93218000D02*
X129286000Y-94615000D01*
X132334000Y-93218000D02*
X130683000Y-93218000D01*
X129286000Y-94615000D02*
X126746000Y-94615000D01*
D25*
X126365000Y-62357000D02*
X126365000Y-60960000D01*
X125037999Y-63684001D02*
X126365000Y-62357000D01*
X125037999Y-78525763D02*
X125037999Y-63684001D01*
X120750010Y-82813752D02*
X125037999Y-78525763D01*
X122174000Y-92557600D02*
X120750010Y-91133610D01*
X120750010Y-91133610D02*
X120750010Y-82813752D01*
D24*
X170307000Y-106807000D02*
X166268400Y-102768400D01*
X171958000Y-106807000D02*
X170307000Y-106807000D01*
X166268400Y-98348800D02*
X157784800Y-89865200D01*
X166268400Y-102768400D02*
X166268400Y-98348800D01*
X161290000Y-86360000D02*
X157784800Y-89865200D01*
X157784800Y-89865200D02*
X157226000Y-90424000D01*
X155569918Y-90424000D02*
X157226000Y-90424000D01*
X155163518Y-90830400D02*
X155569918Y-90424000D01*
X133070600Y-90830400D02*
X155163518Y-90830400D01*
X132334000Y-91567000D02*
X133070600Y-90830400D01*
G04 #@! TO.N,Net-(D9-Pad2)*
X154000200Y-108153200D02*
X157124400Y-105029000D01*
X152501600Y-108153200D02*
X154000200Y-108153200D01*
G04 #@! TO.N,Net-(Q1-Pad2)*
X174244000Y-68267198D02*
X174244000Y-69342000D01*
X173286802Y-67310000D02*
X174244000Y-68267198D01*
X167894000Y-67310000D02*
X173286802Y-67310000D01*
G04 #@! TO.N,Net-(BT1-Pad1)*
X159933936Y-103378000D02*
X140589000Y-103378000D01*
X162179000Y-103378000D02*
X159933936Y-103378000D01*
X121920000Y-105867202D02*
X121920000Y-101600000D01*
X124764799Y-108712001D02*
X121920000Y-105867202D01*
X140589000Y-103378000D02*
X135254999Y-108712001D01*
X135254999Y-108712001D02*
X124764799Y-108712001D01*
G04 #@! TO.N,Net-(C1-Pad1)*
X144780000Y-64008000D02*
X144780000Y-63754000D01*
X139446000Y-69342000D02*
X144780000Y-64008000D01*
G04 #@! TO.N,Net-(C2-Pad1)*
X137042001Y-64807999D02*
X137042001Y-71002001D01*
X137842000Y-64008000D02*
X137042001Y-64807999D01*
X137042001Y-71002001D02*
X137922000Y-71882000D01*
X137922000Y-71882000D02*
X139446000Y-71882000D01*
X149352000Y-65074800D02*
X149352000Y-62992000D01*
X139446000Y-71882000D02*
X142544800Y-71882000D01*
X142544800Y-71882000D02*
X149352000Y-65074800D01*
G04 #@! TO.N,Net-(D10-Pad1)*
X124968000Y-82031000D02*
X124968000Y-83693000D01*
X129895600Y-63601600D02*
X129895600Y-79451200D01*
X129895600Y-79451200D02*
X128270000Y-81076800D01*
X128270000Y-81076800D02*
X125922200Y-81076800D01*
X125922200Y-81076800D02*
X124968000Y-82031000D01*
X162915600Y-98628200D02*
X162915600Y-99923600D01*
X156362400Y-92075000D02*
X162915600Y-98628200D01*
X133477000Y-60020200D02*
X148971000Y-60020200D01*
X129895600Y-63601600D02*
X133477000Y-60020200D01*
X147639200Y-108153200D02*
X144653000Y-105167000D01*
X148501600Y-108153200D02*
X147639200Y-108153200D01*
G04 #@! TD*
M02*
