G04 #@! TF.GenerationSoftware,KiCad,Pcbnew,(5.0.1)-4*
G04 #@! TF.CreationDate,2019-02-28T18:49:44-05:00*
G04 #@! TF.ProjectId,km-skillz-badge-kit,6B6D2D736B696C6C7A2D62616467652D,rev?*
G04 #@! TF.SameCoordinates,Original*
G04 #@! TF.FileFunction,Copper,L2,Bot,Signal*
G04 #@! TF.FilePolarity,Positive*
%FSLAX46Y46*%
G04 Gerber Fmt 4.6, Leading zero omitted, Abs format (unit mm)*
G04 Created by KiCad (PCBNEW (5.0.1)-4) date 2/28/2019 6:49:44 PM*
%MOMM*%
%LPD*%
G01*
G04 APERTURE LIST*
G04 #@! TA.AperFunction,ComponentPad*
%ADD10O,1.700000X1.700000*%
G04 #@! TD*
G04 #@! TA.AperFunction,ComponentPad*
%ADD11R,1.700000X1.700000*%
G04 #@! TD*
G04 #@! TA.AperFunction,ComponentPad*
%ADD12C,3.175000*%
G04 #@! TD*
G04 #@! TA.AperFunction,SMDPad,CuDef*
%ADD13R,5.080000X5.080000*%
G04 #@! TD*
G04 #@! TA.AperFunction,ComponentPad*
%ADD14R,1.778000X1.778000*%
G04 #@! TD*
G04 #@! TA.AperFunction,ComponentPad*
%ADD15C,2.032000*%
G04 #@! TD*
G04 #@! TA.AperFunction,ComponentPad*
%ADD16C,1.800000*%
G04 #@! TD*
G04 #@! TA.AperFunction,ComponentPad*
%ADD17R,1.800000X1.800000*%
G04 #@! TD*
G04 #@! TA.AperFunction,ComponentPad*
%ADD18C,1.520000*%
G04 #@! TD*
G04 #@! TA.AperFunction,ComponentPad*
%ADD19R,1.520000X1.520000*%
G04 #@! TD*
G04 #@! TA.AperFunction,ComponentPad*
%ADD20C,1.600000*%
G04 #@! TD*
G04 #@! TA.AperFunction,ComponentPad*
%ADD21C,2.400000*%
G04 #@! TD*
G04 #@! TA.AperFunction,ComponentPad*
%ADD22O,2.400000X2.400000*%
G04 #@! TD*
G04 #@! TA.AperFunction,ViaPad*
%ADD23C,1.524000*%
G04 #@! TD*
G04 #@! TA.AperFunction,Conductor*
%ADD24C,0.762000*%
G04 #@! TD*
G04 APERTURE END LIST*
D10*
G04 #@! TO.P,J1,2*
G04 #@! TO.N,Net-(BT1-Pad1)*
X170180000Y-101092000D03*
D11*
G04 #@! TO.P,J1,1*
G04 #@! TO.N,VCC*
X170180000Y-98552000D03*
G04 #@! TD*
D12*
G04 #@! TO.P,BT1,1*
G04 #@! TO.N,Net-(BT1-Pad1)*
X162179000Y-103378000D03*
X140589000Y-103378000D03*
D13*
G04 #@! TO.P,BT1,2*
G04 #@! TO.N,GND*
X151384000Y-103378000D03*
G04 #@! TD*
D14*
G04 #@! TO.P,D4,1*
G04 #@! TO.N,Net-(D1-Pad1)*
X126238000Y-106807000D03*
D15*
G04 #@! TO.P,D4,2*
G04 #@! TO.N,Net-(D4-Pad2)*
X128778000Y-106807000D03*
G04 #@! TD*
G04 #@! TO.P,D3,2*
G04 #@! TO.N,Net-(D3-Pad2)*
X174498000Y-106807000D03*
D14*
G04 #@! TO.P,D3,1*
G04 #@! TO.N,Net-(D1-Pad1)*
X171958000Y-106807000D03*
G04 #@! TD*
G04 #@! TO.P,D1,1*
G04 #@! TO.N,Net-(D1-Pad1)*
X126365000Y-60960000D03*
D15*
G04 #@! TO.P,D1,2*
G04 #@! TO.N,Net-(D1-Pad2)*
X128905000Y-60960000D03*
G04 #@! TD*
D14*
G04 #@! TO.P,D2,1*
G04 #@! TO.N,Net-(D1-Pad1)*
X171704000Y-60960000D03*
D15*
G04 #@! TO.P,D2,2*
G04 #@! TO.N,Net-(D2-Pad2)*
X174244000Y-60960000D03*
G04 #@! TD*
G04 #@! TO.P,D5,2*
G04 #@! TO.N,Net-(D5-Pad2)*
X134874000Y-93218000D03*
D14*
G04 #@! TO.P,D5,1*
G04 #@! TO.N,Net-(D1-Pad1)*
X132334000Y-93218000D03*
G04 #@! TD*
D15*
G04 #@! TO.P,D6,2*
G04 #@! TO.N,Net-(D6-Pad2)*
X163830000Y-76835000D03*
D14*
G04 #@! TO.P,D6,1*
G04 #@! TO.N,Net-(D1-Pad1)*
X161290000Y-76835000D03*
G04 #@! TD*
D16*
G04 #@! TO.P,D7,2*
G04 #@! TO.N,Net-(D7-Pad2)*
X151511000Y-60020200D03*
D17*
G04 #@! TO.P,D7,1*
G04 #@! TO.N,Net-(D10-Pad1)*
X148971000Y-60020200D03*
G04 #@! TD*
G04 #@! TO.P,D8,1*
G04 #@! TO.N,Net-(D10-Pad1)*
X173431200Y-83820000D03*
D16*
G04 #@! TO.P,D8,2*
G04 #@! TO.N,Net-(D8-Pad2)*
X175971200Y-83820000D03*
G04 #@! TD*
D17*
G04 #@! TO.P,D10,1*
G04 #@! TO.N,Net-(D10-Pad1)*
X124968000Y-83693000D03*
D16*
G04 #@! TO.P,D10,2*
G04 #@! TO.N,Net-(D10-Pad2)*
X127508000Y-83693000D03*
G04 #@! TD*
G04 #@! TO.P,D11,2*
G04 #@! TO.N,Net-(D11-Pad2)*
X147193000Y-86360000D03*
D17*
G04 #@! TO.P,D11,1*
G04 #@! TO.N,Net-(D10-Pad1)*
X144653000Y-86360000D03*
G04 #@! TD*
D18*
G04 #@! TO.P,Q1,2*
G04 #@! TO.N,Net-(Q1-Pad2)*
X174244000Y-69342000D03*
G04 #@! TO.P,Q1,3*
G04 #@! TO.N,Net-(D1-Pad1)*
X176784000Y-69342000D03*
D19*
G04 #@! TO.P,Q1,1*
G04 #@! TO.N,GND*
X171704000Y-69342000D03*
G04 #@! TD*
G04 #@! TO.P,Q2,1*
G04 #@! TO.N,GND*
X171831000Y-76327000D03*
D18*
G04 #@! TO.P,Q2,3*
G04 #@! TO.N,Net-(D10-Pad1)*
X176911000Y-76327000D03*
G04 #@! TO.P,Q2,2*
G04 #@! TO.N,Net-(Q2-Pad2)*
X174371000Y-76327000D03*
G04 #@! TD*
D19*
G04 #@! TO.P,Q3,1*
G04 #@! TO.N,GND*
X139446000Y-74422000D03*
D18*
G04 #@! TO.P,Q3,3*
G04 #@! TO.N,Net-(C1-Pad1)*
X139446000Y-69342000D03*
G04 #@! TO.P,Q3,2*
G04 #@! TO.N,Net-(C2-Pad1)*
X139446000Y-71882000D03*
G04 #@! TD*
G04 #@! TO.P,Q4,2*
G04 #@! TO.N,Net-(C1-Pad2)*
X132842000Y-71882000D03*
G04 #@! TO.P,Q4,3*
G04 #@! TO.N,Net-(C2-Pad2)*
X132842000Y-69342000D03*
D19*
G04 #@! TO.P,Q4,1*
G04 #@! TO.N,GND*
X132842000Y-74422000D03*
G04 #@! TD*
D20*
G04 #@! TO.P,C1,2*
G04 #@! TO.N,Net-(C1-Pad2)*
X133604000Y-80010000D03*
G04 #@! TO.P,C1,1*
G04 #@! TO.N,Net-(C1-Pad1)*
X138604000Y-80010000D03*
G04 #@! TD*
G04 #@! TO.P,C2,2*
G04 #@! TO.N,Net-(C2-Pad2)*
X132842000Y-64008000D03*
G04 #@! TO.P,C2,1*
G04 #@! TO.N,Net-(C2-Pad1)*
X137842000Y-64008000D03*
G04 #@! TD*
G04 #@! TO.P,C3,2*
G04 #@! TO.N,GND*
X121920000Y-96600000D03*
G04 #@! TO.P,C3,1*
G04 #@! TO.N,Net-(BT1-Pad1)*
X121920000Y-101600000D03*
G04 #@! TD*
D11*
G04 #@! TO.P,MTH1,1*
G04 #@! TO.N,N/C*
X178308000Y-55880000D03*
G04 #@! TD*
G04 #@! TO.P,MTH2,1*
G04 #@! TO.N,N/C*
X122555000Y-55880000D03*
G04 #@! TD*
G04 #@! TO.P,MTH3,1*
G04 #@! TO.N,N/C*
X122428000Y-111760000D03*
G04 #@! TD*
G04 #@! TO.P,MTH4,1*
G04 #@! TO.N,N/C*
X178308000Y-111760000D03*
G04 #@! TD*
D21*
G04 #@! TO.P,R1,1*
G04 #@! TO.N,VCC*
X140335000Y-56007000D03*
D22*
G04 #@! TO.P,R1,2*
G04 #@! TO.N,Net-(D1-Pad2)*
X127635000Y-56007000D03*
G04 #@! TD*
G04 #@! TO.P,R2,2*
G04 #@! TO.N,Net-(D2-Pad2)*
X173736000Y-56007000D03*
D21*
G04 #@! TO.P,R2,1*
G04 #@! TO.N,VCC*
X161036000Y-56007000D03*
G04 #@! TD*
G04 #@! TO.P,R3,1*
G04 #@! TO.N,VCC*
X173863000Y-112141000D03*
D22*
G04 #@! TO.P,R3,2*
G04 #@! TO.N,Net-(D3-Pad2)*
X161163000Y-112141000D03*
G04 #@! TD*
G04 #@! TO.P,R4,2*
G04 #@! TO.N,Net-(D4-Pad2)*
X127000000Y-112141000D03*
D21*
G04 #@! TO.P,R4,1*
G04 #@! TO.N,VCC*
X139700000Y-112141000D03*
G04 #@! TD*
G04 #@! TO.P,R5,1*
G04 #@! TO.N,VCC*
X125730000Y-97663000D03*
D22*
G04 #@! TO.P,R5,2*
G04 #@! TO.N,Net-(D5-Pad2)*
X138430000Y-97663000D03*
G04 #@! TD*
G04 #@! TO.P,R6,2*
G04 #@! TO.N,Net-(D6-Pad2)*
X170688000Y-82042000D03*
D21*
G04 #@! TO.P,R6,1*
G04 #@! TO.N,VCC*
X157988000Y-82042000D03*
G04 #@! TD*
G04 #@! TO.P,R7,1*
G04 #@! TO.N,VCC*
X144399000Y-55626000D03*
D22*
G04 #@! TO.P,R7,2*
G04 #@! TO.N,Net-(D7-Pad2)*
X157099000Y-55626000D03*
G04 #@! TD*
G04 #@! TO.P,R8,2*
G04 #@! TO.N,Net-(D8-Pad2)*
X178816000Y-88519000D03*
D21*
G04 #@! TO.P,R8,1*
G04 #@! TO.N,VCC*
X166116000Y-88519000D03*
G04 #@! TD*
G04 #@! TO.P,R9,1*
G04 #@! TO.N,VCC*
X178816000Y-93218000D03*
D22*
G04 #@! TO.P,R9,2*
G04 #@! TO.N,Net-(D9-Pad2)*
X166116000Y-93218000D03*
G04 #@! TD*
G04 #@! TO.P,R10,2*
G04 #@! TO.N,Net-(D10-Pad2)*
X135636000Y-88468200D03*
D21*
G04 #@! TO.P,R10,1*
G04 #@! TO.N,VCC*
X122936000Y-88468200D03*
G04 #@! TD*
G04 #@! TO.P,R11,1*
G04 #@! TO.N,VCC*
X141986000Y-81280000D03*
D22*
G04 #@! TO.P,R11,2*
G04 #@! TO.N,Net-(D11-Pad2)*
X154686000Y-81280000D03*
G04 #@! TD*
D21*
G04 #@! TO.P,R12,1*
G04 #@! TO.N,Net-(C1-Pad1)*
X155194000Y-67310000D03*
D22*
G04 #@! TO.P,R12,2*
G04 #@! TO.N,Net-(Q1-Pad2)*
X167894000Y-67310000D03*
G04 #@! TD*
G04 #@! TO.P,R13,2*
G04 #@! TO.N,Net-(C2-Pad2)*
X153416000Y-72136000D03*
D21*
G04 #@! TO.P,R13,1*
G04 #@! TO.N,Net-(Q2-Pad2)*
X166116000Y-72136000D03*
G04 #@! TD*
D22*
G04 #@! TO.P,R14,2*
G04 #@! TO.N,Net-(C1-Pad1)*
X144780000Y-63754000D03*
D21*
G04 #@! TO.P,R14,1*
G04 #@! TO.N,VCC*
X144780000Y-76454000D03*
G04 #@! TD*
D22*
G04 #@! TO.P,R15,2*
G04 #@! TO.N,Net-(C1-Pad2)*
X122428000Y-65532000D03*
D21*
G04 #@! TO.P,R15,1*
G04 #@! TO.N,VCC*
X122428000Y-78232000D03*
G04 #@! TD*
G04 #@! TO.P,R16,1*
G04 #@! TO.N,VCC*
X149352000Y-76454000D03*
D22*
G04 #@! TO.P,R16,2*
G04 #@! TO.N,Net-(C2-Pad1)*
X149352000Y-63754000D03*
G04 #@! TD*
G04 #@! TO.P,R17,2*
G04 #@! TO.N,Net-(C2-Pad2)*
X127000000Y-65532000D03*
D21*
G04 #@! TO.P,R17,1*
G04 #@! TO.N,VCC*
X127000000Y-78232000D03*
G04 #@! TD*
D23*
G04 #@! TO.N,GND*
X163576000Y-91440000D03*
X157226000Y-85598000D03*
G04 #@! TO.N,Net-(D1-Pad1)*
X126746000Y-94615000D03*
X122174000Y-92557600D03*
G04 #@! TO.N,Net-(D9-Pad2)*
X157124400Y-105029000D03*
G04 #@! TO.N,Net-(D10-Pad1)*
X162915600Y-99923600D03*
X156362400Y-92075000D03*
X144653000Y-105167000D03*
G04 #@! TD*
D24*
G04 #@! TO.N,GND*
X149225000Y-105537000D02*
X151384000Y-103378000D01*
X151638000Y-103378000D02*
X151384000Y-103378000D01*
X163576000Y-91440000D02*
X151638000Y-103378000D01*
X163068000Y-91440000D02*
X163576000Y-91440000D01*
X157226000Y-85598000D02*
X163068000Y-91440000D01*
G04 #@! TO.N,Net-(D4-Pad2)*
X128778000Y-110363000D02*
X127000000Y-112141000D01*
X128778000Y-106807000D02*
X128778000Y-110363000D01*
G04 #@! TO.N,Net-(D6-Pad2)*
X165481000Y-76835000D02*
X170688000Y-82042000D01*
X163830000Y-76835000D02*
X165481000Y-76835000D01*
G04 #@! TO.N,VCC*
X127000000Y-78232000D02*
X122428000Y-78232000D01*
X165608000Y-88519000D02*
X166116000Y-88519000D01*
X159639000Y-82042000D02*
X157988000Y-82042000D01*
X166116000Y-88519000D02*
X159639000Y-82042000D01*
X122428000Y-87960200D02*
X122936000Y-88468200D01*
X122428000Y-78232000D02*
X122428000Y-87960200D01*
X124135999Y-89668199D02*
X125634599Y-89668199D01*
X122936000Y-88468200D02*
X124135999Y-89668199D01*
X125813361Y-98254361D02*
X125813361Y-97746361D01*
X139700000Y-112141000D02*
X125813361Y-98254361D01*
X125634599Y-89668199D02*
X129540000Y-93573600D01*
X129540000Y-93573600D02*
X129540000Y-95758000D01*
X125896722Y-97663000D02*
X125813361Y-97746361D01*
X127635000Y-97663000D02*
X125896722Y-97663000D01*
X129540000Y-95758000D02*
X127635000Y-97663000D01*
X144780000Y-76454000D02*
X144780000Y-78486000D01*
X151049056Y-76454000D02*
X149352000Y-76454000D01*
X154097056Y-76454000D02*
X151049056Y-76454000D01*
X157988000Y-80344944D02*
X154097056Y-76454000D01*
X157988000Y-82042000D02*
X157988000Y-80344944D01*
X149352000Y-76454000D02*
X144780000Y-76454000D01*
X141224000Y-82042000D02*
X141986000Y-81280000D01*
X127000000Y-78232000D02*
X130810000Y-82042000D01*
X130810000Y-82042000D02*
X141224000Y-82042000D01*
X144780000Y-78486000D02*
X141986000Y-81280000D01*
G04 #@! TO.N,Net-(C2-Pad2)*
X132842000Y-69342000D02*
X132842000Y-68072000D01*
X132842000Y-68072000D02*
X132842000Y-64008000D01*
X133601999Y-68582001D02*
X135887999Y-68582001D01*
X132842000Y-69342000D02*
X133601999Y-68582001D01*
X135887999Y-68582001D02*
X137922000Y-66548000D01*
X128524000Y-64008000D02*
X127000000Y-65532000D01*
X132842000Y-64008000D02*
X128524000Y-64008000D01*
X137922000Y-66548000D02*
X143662400Y-66548000D01*
X149250400Y-72136000D02*
X153416000Y-72136000D01*
X143662400Y-66548000D02*
X149250400Y-72136000D01*
G04 #@! TO.N,Net-(D1-Pad1)*
X171704000Y-62611000D02*
X171704000Y-60960000D01*
X171704000Y-63187198D02*
X171704000Y-62611000D01*
X176784000Y-68267198D02*
X171704000Y-63187198D01*
X176784000Y-69342000D02*
X176784000Y-68267198D01*
X171704000Y-60960000D02*
X167640000Y-60960000D01*
X161290000Y-67310000D02*
X161290000Y-76835000D01*
X167640000Y-60960000D02*
X161290000Y-67310000D01*
X126746000Y-94615000D02*
X124688600Y-92557600D01*
X124688600Y-92557600D02*
X122174000Y-92557600D01*
G04 #@! TO.N,Net-(D7-Pad2)*
X155905200Y-55626000D02*
X151511000Y-60020200D01*
X157099000Y-55626000D02*
X155905200Y-55626000D01*
G04 #@! TO.N,Net-(D8-Pad2)*
X178181000Y-86029800D02*
X175971200Y-83820000D01*
X178181000Y-88519000D02*
X178181000Y-86029800D01*
G04 #@! TO.N,Net-(D9-Pad2)*
X166116000Y-93218000D02*
X157124400Y-102209600D01*
X157124400Y-104546400D02*
X157124400Y-105029000D01*
X157124400Y-102209600D02*
X157124400Y-105029000D01*
G04 #@! TO.N,Net-(D10-Pad2)*
X130860800Y-83693000D02*
X127508000Y-83693000D01*
X135636000Y-88468200D02*
X130860800Y-83693000D01*
G04 #@! TO.N,Net-(D11-Pad2)*
X152273000Y-81280000D02*
X154686000Y-81280000D01*
X147193000Y-86360000D02*
X152273000Y-81280000D01*
G04 #@! TO.N,Net-(Q2-Pad2)*
X174371000Y-75252198D02*
X174371000Y-76327000D01*
X172054801Y-72935999D02*
X174371000Y-75252198D01*
X166915999Y-72935999D02*
X172054801Y-72935999D01*
X166116000Y-72136000D02*
X166915999Y-72935999D01*
G04 #@! TO.N,Net-(BT1-Pad1)*
X167894000Y-103378000D02*
X170180000Y-101092000D01*
X162179000Y-103378000D02*
X167894000Y-103378000D01*
G04 #@! TO.N,Net-(C1-Pad2)*
X133916802Y-71882000D02*
X132842000Y-71882000D01*
X134491001Y-72456199D02*
X133916802Y-71882000D01*
X134491001Y-77991629D02*
X134491001Y-72456199D01*
X133604000Y-78878630D02*
X134491001Y-77991629D01*
X133604000Y-80010000D02*
X133604000Y-78878630D01*
X122428000Y-67933370D02*
X122428000Y-65532000D01*
X132842000Y-71882000D02*
X126376630Y-71882000D01*
X126376630Y-71882000D02*
X122428000Y-67933370D01*
G04 #@! TO.N,Net-(C1-Pad1)*
X138604000Y-78878630D02*
X137668000Y-77942630D01*
X138604000Y-80010000D02*
X138604000Y-78878630D01*
X137668000Y-77942630D02*
X137668000Y-69850000D01*
X138176000Y-69342000D02*
X139446000Y-69342000D01*
X137668000Y-69850000D02*
X138176000Y-69342000D01*
X148336000Y-67310000D02*
X144780000Y-63754000D01*
X155194000Y-67310000D02*
X148336000Y-67310000D01*
G04 #@! TO.N,Net-(D10-Pad1)*
X176911000Y-77597000D02*
X176911000Y-76327000D01*
X173431200Y-83820000D02*
X173431200Y-81076800D01*
X173431200Y-81076800D02*
X176911000Y-77597000D01*
X144653000Y-88022000D02*
X144653000Y-86360000D01*
X173431200Y-89408000D02*
X162915600Y-99923600D01*
X173431200Y-83820000D02*
X173431200Y-89408000D01*
X130595800Y-90982800D02*
X144653000Y-90982800D01*
X124968000Y-85355000D02*
X130595800Y-90982800D01*
X124968000Y-83693000D02*
X124968000Y-85355000D01*
X144653000Y-86360000D02*
X144653000Y-90982800D01*
X144653000Y-90982800D02*
X144653000Y-105167000D01*
X144653000Y-90982800D02*
X155397200Y-90982800D01*
X156362400Y-91948000D02*
X156362400Y-92075000D01*
X155397200Y-90982800D02*
X156362400Y-92075000D01*
G04 #@! TD*
M02*
