G04 #@! TF.GenerationSoftware,KiCad,Pcbnew,(5.0.1)-4*
G04 #@! TF.CreationDate,2019-02-28T18:49:44-05:00*
G04 #@! TF.ProjectId,km-skillz-badge-kit,6B6D2D736B696C6C7A2D62616467652D,rev?*
G04 #@! TF.SameCoordinates,Original*
G04 #@! TF.FileFunction,Legend,Top*
G04 #@! TF.FilePolarity,Positive*
%FSLAX46Y46*%
G04 Gerber Fmt 4.6, Leading zero omitted, Abs format (unit mm)*
G04 Created by KiCad (PCBNEW (5.0.1)-4) date 2/28/2019 6:49:44 PM*
%MOMM*%
%LPD*%
G01*
G04 APERTURE LIST*
%ADD10C,0.127000*%
%ADD11C,0.254000*%
%ADD12C,0.200000*%
%ADD13C,0.120000*%
%ADD14C,0.203200*%
G04 APERTURE END LIST*
D10*
X154675719Y-108326766D02*
X155280480Y-108326766D01*
X154554766Y-108689623D02*
X154978100Y-107419623D01*
X155401433Y-108689623D01*
X165839019Y-77059366D02*
X166443780Y-77059366D01*
X165718066Y-77422223D02*
X166141400Y-76152223D01*
X166564733Y-77422223D01*
X148922619Y-86660566D02*
X149527380Y-86660566D01*
X148801666Y-87023423D02*
X149225000Y-85753423D01*
X149648333Y-87023423D01*
X153126319Y-60612866D02*
X153731080Y-60612866D01*
X153005366Y-60975723D02*
X153428700Y-59705723D01*
X153852033Y-60975723D01*
X129250319Y-83930066D02*
X129855080Y-83930066D01*
X129129366Y-84292923D02*
X129552700Y-83022923D01*
X129976033Y-84292923D01*
X177650019Y-84082466D02*
X178254780Y-84082466D01*
X177529066Y-84445323D02*
X177952400Y-83175323D01*
X178375733Y-84445323D01*
X176380019Y-106993266D02*
X176984780Y-106993266D01*
X176259066Y-107356123D02*
X176682400Y-106086123D01*
X177105733Y-107356123D01*
X176303819Y-61171666D02*
X176908580Y-61171666D01*
X176182866Y-61534523D02*
X176606200Y-60264523D01*
X177029533Y-61534523D01*
X130609219Y-61171666D02*
X131213980Y-61171666D01*
X130488266Y-61534523D02*
X130911600Y-60264523D01*
X131334933Y-61534523D01*
X136832219Y-93480466D02*
X137436980Y-93480466D01*
X136711266Y-93843323D02*
X137134600Y-92573323D01*
X137557933Y-93843323D01*
X130609219Y-107247266D02*
X131213980Y-107247266D01*
X130488266Y-107610123D02*
X130911600Y-106340123D01*
X131334933Y-107610123D01*
D11*
X148184809Y-111258047D02*
X149031476Y-113798047D01*
X149878142Y-111258047D01*
X152055285Y-113798047D02*
X150603857Y-113798047D01*
X151329571Y-113798047D02*
X151329571Y-111258047D01*
X151087666Y-111620904D01*
X150845761Y-111862809D01*
X150603857Y-111983761D01*
D12*
X152146000Y-109626400D02*
G75*
G02X148736764Y-109536642I-1682037J902557D01*
G01*
X148793200Y-106578400D02*
G75*
G02X152202436Y-106668158I1682037J-902557D01*
G01*
D13*
G04 #@! TO.C,J1*
X168910000Y-97282000D02*
X170180000Y-97282000D01*
X168910000Y-98552000D02*
X168910000Y-97282000D01*
X171222929Y-101472000D02*
X171620000Y-101472000D01*
X171222929Y-100712000D02*
X171620000Y-100712000D01*
X180280000Y-101472000D02*
X174280000Y-101472000D01*
X180280000Y-100712000D02*
X180280000Y-101472000D01*
X174280000Y-100712000D02*
X180280000Y-100712000D01*
X171620000Y-99822000D02*
X174280000Y-99822000D01*
X171290000Y-98932000D02*
X171620000Y-98932000D01*
X171290000Y-98172000D02*
X171620000Y-98172000D01*
X174280000Y-98832000D02*
X180280000Y-98832000D01*
X174280000Y-98712000D02*
X180280000Y-98712000D01*
X174280000Y-98592000D02*
X180280000Y-98592000D01*
X174280000Y-98472000D02*
X180280000Y-98472000D01*
X174280000Y-98352000D02*
X180280000Y-98352000D01*
X174280000Y-98232000D02*
X180280000Y-98232000D01*
X180280000Y-98932000D02*
X174280000Y-98932000D01*
X180280000Y-98172000D02*
X180280000Y-98932000D01*
X174280000Y-98172000D02*
X180280000Y-98172000D01*
X174280000Y-97222000D02*
X171620000Y-97222000D01*
X174280000Y-102422000D02*
X174280000Y-97222000D01*
X171620000Y-102422000D02*
X174280000Y-102422000D01*
X171620000Y-97222000D02*
X171620000Y-102422000D01*
G04 #@! TO.C,D4*
X129180335Y-105728392D02*
G75*
G03X125948000Y-105571484I-1672335J-1078608D01*
G01*
X129180335Y-107885608D02*
G75*
G02X125948000Y-108042516I-1672335J1078608D01*
G01*
X128549130Y-105727163D02*
G75*
G03X126467039Y-105727000I-1041130J-1079837D01*
G01*
X128549130Y-107886837D02*
G75*
G02X126467039Y-107887000I-1041130J1079837D01*
G01*
X125948000Y-105571000D02*
X125948000Y-105727000D01*
X125948000Y-107887000D02*
X125948000Y-108043000D01*
G04 #@! TO.C,D3*
X171668000Y-107887000D02*
X171668000Y-108043000D01*
X171668000Y-105571000D02*
X171668000Y-105727000D01*
X174269130Y-107886837D02*
G75*
G02X172187039Y-107887000I-1041130J1079837D01*
G01*
X174269130Y-105727163D02*
G75*
G03X172187039Y-105727000I-1041130J-1079837D01*
G01*
X174900335Y-107885608D02*
G75*
G02X171668000Y-108042516I-1672335J1078608D01*
G01*
X174900335Y-105728392D02*
G75*
G03X171668000Y-105571484I-1672335J-1078608D01*
G01*
G04 #@! TO.C,D1*
X129307335Y-59881392D02*
G75*
G03X126075000Y-59724484I-1672335J-1078608D01*
G01*
X129307335Y-62038608D02*
G75*
G02X126075000Y-62195516I-1672335J1078608D01*
G01*
X128676130Y-59880163D02*
G75*
G03X126594039Y-59880000I-1041130J-1079837D01*
G01*
X128676130Y-62039837D02*
G75*
G02X126594039Y-62040000I-1041130J1079837D01*
G01*
X126075000Y-59724000D02*
X126075000Y-59880000D01*
X126075000Y-62040000D02*
X126075000Y-62196000D01*
G04 #@! TO.C,D2*
X174646335Y-59881392D02*
G75*
G03X171414000Y-59724484I-1672335J-1078608D01*
G01*
X174646335Y-62038608D02*
G75*
G02X171414000Y-62195516I-1672335J1078608D01*
G01*
X174015130Y-59880163D02*
G75*
G03X171933039Y-59880000I-1041130J-1079837D01*
G01*
X174015130Y-62039837D02*
G75*
G02X171933039Y-62040000I-1041130J1079837D01*
G01*
X171414000Y-59724000D02*
X171414000Y-59880000D01*
X171414000Y-62040000D02*
X171414000Y-62196000D01*
G04 #@! TO.C,D5*
X132044000Y-94298000D02*
X132044000Y-94454000D01*
X132044000Y-91982000D02*
X132044000Y-92138000D01*
X134645130Y-94297837D02*
G75*
G02X132563039Y-94298000I-1041130J1079837D01*
G01*
X134645130Y-92138163D02*
G75*
G03X132563039Y-92138000I-1041130J-1079837D01*
G01*
X135276335Y-94296608D02*
G75*
G02X132044000Y-94453516I-1672335J1078608D01*
G01*
X135276335Y-92139392D02*
G75*
G03X132044000Y-91982484I-1672335J-1078608D01*
G01*
G04 #@! TO.C,D6*
X161000000Y-77915000D02*
X161000000Y-78071000D01*
X161000000Y-75599000D02*
X161000000Y-75755000D01*
X163601130Y-77914837D02*
G75*
G02X161519039Y-77915000I-1041130J1079837D01*
G01*
X163601130Y-75755163D02*
G75*
G03X161519039Y-75755000I-1041130J-1079837D01*
G01*
X164232335Y-77913608D02*
G75*
G02X161000000Y-78070516I-1672335J1078608D01*
G01*
X164232335Y-75756392D02*
G75*
G03X161000000Y-75599484I-1672335J-1078608D01*
G01*
G04 #@! TO.C,D7*
X148681000Y-61100200D02*
X148681000Y-61256200D01*
X148681000Y-58784200D02*
X148681000Y-58940200D01*
X151282130Y-61100037D02*
G75*
G02X149200039Y-61100200I-1041130J1079837D01*
G01*
X151282130Y-58940363D02*
G75*
G03X149200039Y-58940200I-1041130J-1079837D01*
G01*
X151913335Y-61098808D02*
G75*
G02X148681000Y-61255716I-1672335J1078608D01*
G01*
X151913335Y-58941592D02*
G75*
G03X148681000Y-58784684I-1672335J-1078608D01*
G01*
G04 #@! TO.C,D8*
X176373535Y-82741392D02*
G75*
G03X173141200Y-82584484I-1672335J-1078608D01*
G01*
X176373535Y-84898608D02*
G75*
G02X173141200Y-85055516I-1672335J1078608D01*
G01*
X175742330Y-82740163D02*
G75*
G03X173660239Y-82740000I-1041130J-1079837D01*
G01*
X175742330Y-84899837D02*
G75*
G02X173660239Y-84900000I-1041130J1079837D01*
G01*
X173141200Y-82584000D02*
X173141200Y-82740000D01*
X173141200Y-84900000D02*
X173141200Y-85056000D01*
G04 #@! TO.C,D10*
X127910335Y-82614392D02*
G75*
G03X124678000Y-82457484I-1672335J-1078608D01*
G01*
X127910335Y-84771608D02*
G75*
G02X124678000Y-84928516I-1672335J1078608D01*
G01*
X127279130Y-82613163D02*
G75*
G03X125197039Y-82613000I-1041130J-1079837D01*
G01*
X127279130Y-84772837D02*
G75*
G02X125197039Y-84773000I-1041130J1079837D01*
G01*
X124678000Y-82457000D02*
X124678000Y-82613000D01*
X124678000Y-84773000D02*
X124678000Y-84929000D01*
G04 #@! TO.C,D11*
X144363000Y-87440000D02*
X144363000Y-87596000D01*
X144363000Y-85124000D02*
X144363000Y-85280000D01*
X146964130Y-87439837D02*
G75*
G02X144882039Y-87440000I-1041130J1079837D01*
G01*
X146964130Y-85280163D02*
G75*
G03X144882039Y-85280000I-1041130J-1079837D01*
G01*
X147595335Y-87438608D02*
G75*
G02X144363000Y-87595516I-1672335J1078608D01*
G01*
X147595335Y-85281392D02*
G75*
G03X144363000Y-85124484I-1672335J-1078608D01*
G01*
G04 #@! TO.C,Q1*
X172444000Y-71192000D02*
X176044000Y-71192000D01*
X171919816Y-70464795D02*
G75*
G03X172444000Y-71192000I2324184J1122795D01*
G01*
X171887600Y-68243193D02*
G75*
G02X174244000Y-66742000I2356400J-1098807D01*
G01*
X176600400Y-68243193D02*
G75*
G03X174244000Y-66742000I-2356400J-1098807D01*
G01*
X176568184Y-70464795D02*
G75*
G02X176044000Y-71192000I-2324184J1122795D01*
G01*
G04 #@! TO.C,Q2*
X176695184Y-77449795D02*
G75*
G02X176171000Y-78177000I-2324184J1122795D01*
G01*
X176727400Y-75228193D02*
G75*
G03X174371000Y-73727000I-2356400J-1098807D01*
G01*
X172014600Y-75228193D02*
G75*
G02X174371000Y-73727000I2356400J-1098807D01*
G01*
X172046816Y-77449795D02*
G75*
G03X172571000Y-78177000I2324184J1122795D01*
G01*
X172571000Y-78177000D02*
X176171000Y-78177000D01*
G04 #@! TO.C,Q3*
X140568795Y-69557816D02*
G75*
G02X141296000Y-70082000I-1122795J-2324184D01*
G01*
X138347193Y-69525600D02*
G75*
G03X136846000Y-71882000I1098807J-2356400D01*
G01*
X138347193Y-74238400D02*
G75*
G02X136846000Y-71882000I1098807J2356400D01*
G01*
X140568795Y-74206184D02*
G75*
G03X141296000Y-73682000I-1122795J2324184D01*
G01*
X141296000Y-73682000D02*
X141296000Y-70082000D01*
G04 #@! TO.C,Q4*
X134692000Y-73682000D02*
X134692000Y-70082000D01*
X133964795Y-74206184D02*
G75*
G03X134692000Y-73682000I-1122795J2324184D01*
G01*
X131743193Y-74238400D02*
G75*
G02X130242000Y-71882000I1098807J2356400D01*
G01*
X131743193Y-69525600D02*
G75*
G03X130242000Y-71882000I1098807J-2356400D01*
G01*
X133964795Y-69557816D02*
G75*
G02X134692000Y-70082000I-1122795J-2324184D01*
G01*
G04 #@! TO.C,C1*
X133694000Y-79014000D02*
X133694000Y-78700000D01*
X133694000Y-81320000D02*
X133694000Y-81006000D01*
X138514000Y-79014000D02*
X138514000Y-78700000D01*
X138514000Y-81320000D02*
X138514000Y-81006000D01*
X138514000Y-78700000D02*
X133694000Y-78700000D01*
X138514000Y-81320000D02*
X133694000Y-81320000D01*
G04 #@! TO.C,C2*
X132932000Y-63012000D02*
X132932000Y-62698000D01*
X132932000Y-65318000D02*
X132932000Y-65004000D01*
X137752000Y-63012000D02*
X137752000Y-62698000D01*
X137752000Y-65318000D02*
X137752000Y-65004000D01*
X137752000Y-62698000D02*
X132932000Y-62698000D01*
X137752000Y-65318000D02*
X132932000Y-65318000D01*
G04 #@! TO.C,C3*
X122916000Y-96690000D02*
X123230000Y-96690000D01*
X120610000Y-96690000D02*
X120924000Y-96690000D01*
X122916000Y-101510000D02*
X123230000Y-101510000D01*
X120610000Y-101510000D02*
X120924000Y-101510000D01*
X123230000Y-101510000D02*
X123230000Y-96690000D01*
X120610000Y-101510000D02*
X120610000Y-96690000D01*
G04 #@! TO.C,MTH1*
X176978000Y-54550000D02*
X178308000Y-54550000D01*
X176978000Y-55880000D02*
X176978000Y-54550000D01*
X176978000Y-57150000D02*
X179638000Y-57150000D01*
X179638000Y-57150000D02*
X179638000Y-57210000D01*
X176978000Y-57150000D02*
X176978000Y-57210000D01*
X176978000Y-57210000D02*
X179638000Y-57210000D01*
G04 #@! TO.C,MTH2*
X121225000Y-57210000D02*
X123885000Y-57210000D01*
X121225000Y-57150000D02*
X121225000Y-57210000D01*
X123885000Y-57150000D02*
X123885000Y-57210000D01*
X121225000Y-57150000D02*
X123885000Y-57150000D01*
X121225000Y-55880000D02*
X121225000Y-54550000D01*
X121225000Y-54550000D02*
X122555000Y-54550000D01*
G04 #@! TO.C,MTH3*
X121098000Y-110430000D02*
X122428000Y-110430000D01*
X121098000Y-111760000D02*
X121098000Y-110430000D01*
X121098000Y-113030000D02*
X123758000Y-113030000D01*
X123758000Y-113030000D02*
X123758000Y-113090000D01*
X121098000Y-113030000D02*
X121098000Y-113090000D01*
X121098000Y-113090000D02*
X123758000Y-113090000D01*
G04 #@! TO.C,MTH4*
X176978000Y-113090000D02*
X179638000Y-113090000D01*
X176978000Y-113030000D02*
X176978000Y-113090000D01*
X179638000Y-113030000D02*
X179638000Y-113090000D01*
X176978000Y-113030000D02*
X179638000Y-113030000D01*
X176978000Y-111760000D02*
X176978000Y-110430000D01*
X176978000Y-110430000D02*
X178308000Y-110430000D01*
G04 #@! TO.C,R1*
X138995000Y-57387000D02*
X138995000Y-57867000D01*
X138995000Y-57867000D02*
X128975000Y-57867000D01*
X128975000Y-57867000D02*
X128975000Y-57387000D01*
X138995000Y-54627000D02*
X138995000Y-54147000D01*
X138995000Y-54147000D02*
X128975000Y-54147000D01*
X128975000Y-54147000D02*
X128975000Y-54627000D01*
G04 #@! TO.C,R2*
X172396000Y-57867000D02*
X172396000Y-57387000D01*
X162376000Y-57867000D02*
X172396000Y-57867000D01*
X162376000Y-57387000D02*
X162376000Y-57867000D01*
X172396000Y-54147000D02*
X172396000Y-54627000D01*
X162376000Y-54147000D02*
X172396000Y-54147000D01*
X162376000Y-54627000D02*
X162376000Y-54147000D01*
G04 #@! TO.C,R3*
X172523000Y-113521000D02*
X172523000Y-114001000D01*
X172523000Y-114001000D02*
X162503000Y-114001000D01*
X162503000Y-114001000D02*
X162503000Y-113521000D01*
X172523000Y-110761000D02*
X172523000Y-110281000D01*
X172523000Y-110281000D02*
X162503000Y-110281000D01*
X162503000Y-110281000D02*
X162503000Y-110761000D01*
G04 #@! TO.C,R4*
X128340000Y-110281000D02*
X128340000Y-110761000D01*
X138360000Y-110281000D02*
X128340000Y-110281000D01*
X138360000Y-110761000D02*
X138360000Y-110281000D01*
X128340000Y-114001000D02*
X128340000Y-113521000D01*
X138360000Y-114001000D02*
X128340000Y-114001000D01*
X138360000Y-113521000D02*
X138360000Y-114001000D01*
G04 #@! TO.C,R5*
X127070000Y-96283000D02*
X127070000Y-95803000D01*
X127070000Y-95803000D02*
X137090000Y-95803000D01*
X137090000Y-95803000D02*
X137090000Y-96283000D01*
X127070000Y-99043000D02*
X127070000Y-99523000D01*
X127070000Y-99523000D02*
X137090000Y-99523000D01*
X137090000Y-99523000D02*
X137090000Y-99043000D01*
G04 #@! TO.C,R6*
X169348000Y-83902000D02*
X169348000Y-83422000D01*
X159328000Y-83902000D02*
X169348000Y-83902000D01*
X159328000Y-83422000D02*
X159328000Y-83902000D01*
X169348000Y-80182000D02*
X169348000Y-80662000D01*
X159328000Y-80182000D02*
X169348000Y-80182000D01*
X159328000Y-80662000D02*
X159328000Y-80182000D01*
G04 #@! TO.C,R7*
X145739000Y-54246000D02*
X145739000Y-53766000D01*
X145739000Y-53766000D02*
X155759000Y-53766000D01*
X155759000Y-53766000D02*
X155759000Y-54246000D01*
X145739000Y-57006000D02*
X145739000Y-57486000D01*
X145739000Y-57486000D02*
X155759000Y-57486000D01*
X155759000Y-57486000D02*
X155759000Y-57006000D01*
G04 #@! TO.C,R8*
X177476000Y-90379000D02*
X177476000Y-89899000D01*
X167456000Y-90379000D02*
X177476000Y-90379000D01*
X167456000Y-89899000D02*
X167456000Y-90379000D01*
X177476000Y-86659000D02*
X177476000Y-87139000D01*
X167456000Y-86659000D02*
X177476000Y-86659000D01*
X167456000Y-87139000D02*
X167456000Y-86659000D01*
G04 #@! TO.C,R9*
X177476000Y-94598000D02*
X177476000Y-95078000D01*
X177476000Y-95078000D02*
X167456000Y-95078000D01*
X167456000Y-95078000D02*
X167456000Y-94598000D01*
X177476000Y-91838000D02*
X177476000Y-91358000D01*
X177476000Y-91358000D02*
X167456000Y-91358000D01*
X167456000Y-91358000D02*
X167456000Y-91838000D01*
G04 #@! TO.C,R10*
X134296000Y-90328200D02*
X134296000Y-89848200D01*
X124276000Y-90328200D02*
X134296000Y-90328200D01*
X124276000Y-89848200D02*
X124276000Y-90328200D01*
X134296000Y-86608200D02*
X134296000Y-87088200D01*
X124276000Y-86608200D02*
X134296000Y-86608200D01*
X124276000Y-87088200D02*
X124276000Y-86608200D01*
G04 #@! TO.C,R11*
X143326000Y-79900000D02*
X143326000Y-79420000D01*
X143326000Y-79420000D02*
X153346000Y-79420000D01*
X153346000Y-79420000D02*
X153346000Y-79900000D01*
X143326000Y-82660000D02*
X143326000Y-83140000D01*
X143326000Y-83140000D02*
X153346000Y-83140000D01*
X153346000Y-83140000D02*
X153346000Y-82660000D01*
G04 #@! TO.C,R12*
X156534000Y-65930000D02*
X156534000Y-65450000D01*
X156534000Y-65450000D02*
X166554000Y-65450000D01*
X166554000Y-65450000D02*
X166554000Y-65930000D01*
X156534000Y-68690000D02*
X156534000Y-69170000D01*
X156534000Y-69170000D02*
X166554000Y-69170000D01*
X166554000Y-69170000D02*
X166554000Y-68690000D01*
G04 #@! TO.C,R13*
X154756000Y-70276000D02*
X154756000Y-70756000D01*
X164776000Y-70276000D02*
X154756000Y-70276000D01*
X164776000Y-70756000D02*
X164776000Y-70276000D01*
X154756000Y-73996000D02*
X154756000Y-73516000D01*
X164776000Y-73996000D02*
X154756000Y-73996000D01*
X164776000Y-73516000D02*
X164776000Y-73996000D01*
G04 #@! TO.C,R14*
X146640000Y-65094000D02*
X146160000Y-65094000D01*
X146640000Y-75114000D02*
X146640000Y-65094000D01*
X146160000Y-75114000D02*
X146640000Y-75114000D01*
X142920000Y-65094000D02*
X143400000Y-65094000D01*
X142920000Y-75114000D02*
X142920000Y-65094000D01*
X143400000Y-75114000D02*
X142920000Y-75114000D01*
G04 #@! TO.C,R15*
X124288000Y-66872000D02*
X123808000Y-66872000D01*
X124288000Y-76892000D02*
X124288000Y-66872000D01*
X123808000Y-76892000D02*
X124288000Y-76892000D01*
X120568000Y-66872000D02*
X121048000Y-66872000D01*
X120568000Y-76892000D02*
X120568000Y-66872000D01*
X121048000Y-76892000D02*
X120568000Y-76892000D01*
G04 #@! TO.C,R16*
X147972000Y-75114000D02*
X147492000Y-75114000D01*
X147492000Y-75114000D02*
X147492000Y-65094000D01*
X147492000Y-65094000D02*
X147972000Y-65094000D01*
X150732000Y-75114000D02*
X151212000Y-75114000D01*
X151212000Y-75114000D02*
X151212000Y-65094000D01*
X151212000Y-65094000D02*
X150732000Y-65094000D01*
G04 #@! TO.C,R17*
X128860000Y-66872000D02*
X128380000Y-66872000D01*
X128860000Y-76892000D02*
X128860000Y-66872000D01*
X128380000Y-76892000D02*
X128860000Y-76892000D01*
X125140000Y-66872000D02*
X125620000Y-66872000D01*
X125140000Y-76892000D02*
X125140000Y-66872000D01*
X125620000Y-76892000D02*
X125140000Y-76892000D01*
G04 #@! TO.C,D9*
X149501600Y-106673200D02*
X151501600Y-106673200D01*
X151501600Y-109633200D02*
X149501600Y-109633200D01*
G04 #@! TO.C,J1*
D14*
X166319200Y-96853828D02*
X166319200Y-97942400D01*
X166246628Y-98160114D01*
X166101485Y-98305257D01*
X165883771Y-98377828D01*
X165738628Y-98377828D01*
X167843200Y-98377828D02*
X166972342Y-98377828D01*
X167407771Y-98377828D02*
X167407771Y-96853828D01*
X167262628Y-97071542D01*
X167117485Y-97216685D01*
X166972342Y-97289257D01*
G04 #@! TO.C,D4*
X124960742Y-104473828D02*
X124960742Y-102949828D01*
X125323600Y-102949828D01*
X125541314Y-103022400D01*
X125686457Y-103167542D01*
X125759028Y-103312685D01*
X125831600Y-103602971D01*
X125831600Y-103820685D01*
X125759028Y-104110971D01*
X125686457Y-104256114D01*
X125541314Y-104401257D01*
X125323600Y-104473828D01*
X124960742Y-104473828D01*
X127137885Y-103457828D02*
X127137885Y-104473828D01*
X126775028Y-102877257D02*
X126412171Y-103965828D01*
X127355600Y-103965828D01*
G04 #@! TO.C,D3*
X167912142Y-107559928D02*
X167912142Y-106035928D01*
X168275000Y-106035928D01*
X168492714Y-106108500D01*
X168637857Y-106253642D01*
X168710428Y-106398785D01*
X168783000Y-106689071D01*
X168783000Y-106906785D01*
X168710428Y-107197071D01*
X168637857Y-107342214D01*
X168492714Y-107487357D01*
X168275000Y-107559928D01*
X167912142Y-107559928D01*
X169291000Y-106035928D02*
X170234428Y-106035928D01*
X169726428Y-106616500D01*
X169944142Y-106616500D01*
X170089285Y-106689071D01*
X170161857Y-106761642D01*
X170234428Y-106906785D01*
X170234428Y-107269642D01*
X170161857Y-107414785D01*
X170089285Y-107487357D01*
X169944142Y-107559928D01*
X169508714Y-107559928D01*
X169363571Y-107487357D01*
X169291000Y-107414785D01*
G04 #@! TO.C,D1*
X122598542Y-61598628D02*
X122598542Y-60074628D01*
X122961400Y-60074628D01*
X123179114Y-60147200D01*
X123324257Y-60292342D01*
X123396828Y-60437485D01*
X123469400Y-60727771D01*
X123469400Y-60945485D01*
X123396828Y-61235771D01*
X123324257Y-61380914D01*
X123179114Y-61526057D01*
X122961400Y-61598628D01*
X122598542Y-61598628D01*
X124920828Y-61598628D02*
X124049971Y-61598628D01*
X124485400Y-61598628D02*
X124485400Y-60074628D01*
X124340257Y-60292342D01*
X124195114Y-60437485D01*
X124049971Y-60510057D01*
G04 #@! TO.C,D2*
X167835942Y-62665428D02*
X167835942Y-61141428D01*
X168198800Y-61141428D01*
X168416514Y-61214000D01*
X168561657Y-61359142D01*
X168634228Y-61504285D01*
X168706800Y-61794571D01*
X168706800Y-62012285D01*
X168634228Y-62302571D01*
X168561657Y-62447714D01*
X168416514Y-62592857D01*
X168198800Y-62665428D01*
X167835942Y-62665428D01*
X169287371Y-61286571D02*
X169359942Y-61214000D01*
X169505085Y-61141428D01*
X169867942Y-61141428D01*
X170013085Y-61214000D01*
X170085657Y-61286571D01*
X170158228Y-61431714D01*
X170158228Y-61576857D01*
X170085657Y-61794571D01*
X169214800Y-62665428D01*
X170158228Y-62665428D01*
G04 #@! TO.C,D5*
X128770742Y-93805828D02*
X128770742Y-92281828D01*
X129133600Y-92281828D01*
X129351314Y-92354400D01*
X129496457Y-92499542D01*
X129569028Y-92644685D01*
X129641600Y-92934971D01*
X129641600Y-93152685D01*
X129569028Y-93442971D01*
X129496457Y-93588114D01*
X129351314Y-93733257D01*
X129133600Y-93805828D01*
X128770742Y-93805828D01*
X131020457Y-92281828D02*
X130294742Y-92281828D01*
X130222171Y-93007542D01*
X130294742Y-92934971D01*
X130439885Y-92862400D01*
X130802742Y-92862400D01*
X130947885Y-92934971D01*
X131020457Y-93007542D01*
X131093028Y-93152685D01*
X131093028Y-93515542D01*
X131020457Y-93660685D01*
X130947885Y-93733257D01*
X130802742Y-93805828D01*
X130439885Y-93805828D01*
X130294742Y-93733257D01*
X130222171Y-93660685D01*
G04 #@! TO.C,D6*
X157472742Y-78083228D02*
X157472742Y-76559228D01*
X157835600Y-76559228D01*
X158053314Y-76631800D01*
X158198457Y-76776942D01*
X158271028Y-76922085D01*
X158343600Y-77212371D01*
X158343600Y-77430085D01*
X158271028Y-77720371D01*
X158198457Y-77865514D01*
X158053314Y-78010657D01*
X157835600Y-78083228D01*
X157472742Y-78083228D01*
X159649885Y-76559228D02*
X159359600Y-76559228D01*
X159214457Y-76631800D01*
X159141885Y-76704371D01*
X158996742Y-76922085D01*
X158924171Y-77212371D01*
X158924171Y-77792942D01*
X158996742Y-77938085D01*
X159069314Y-78010657D01*
X159214457Y-78083228D01*
X159504742Y-78083228D01*
X159649885Y-78010657D01*
X159722457Y-77938085D01*
X159795028Y-77792942D01*
X159795028Y-77430085D01*
X159722457Y-77284942D01*
X159649885Y-77212371D01*
X159504742Y-77139800D01*
X159214457Y-77139800D01*
X159069314Y-77212371D01*
X158996742Y-77284942D01*
X158924171Y-77430085D01*
G04 #@! TO.C,D7*
X144975942Y-61547828D02*
X144975942Y-60023828D01*
X145338800Y-60023828D01*
X145556514Y-60096400D01*
X145701657Y-60241542D01*
X145774228Y-60386685D01*
X145846800Y-60676971D01*
X145846800Y-60894685D01*
X145774228Y-61184971D01*
X145701657Y-61330114D01*
X145556514Y-61475257D01*
X145338800Y-61547828D01*
X144975942Y-61547828D01*
X146354800Y-60023828D02*
X147370800Y-60023828D01*
X146717657Y-61547828D01*
G04 #@! TO.C,D8*
X169474242Y-85893728D02*
X169474242Y-84369728D01*
X169837100Y-84369728D01*
X170054814Y-84442300D01*
X170199957Y-84587442D01*
X170272528Y-84732585D01*
X170345100Y-85022871D01*
X170345100Y-85240585D01*
X170272528Y-85530871D01*
X170199957Y-85676014D01*
X170054814Y-85821157D01*
X169837100Y-85893728D01*
X169474242Y-85893728D01*
X171215957Y-85022871D02*
X171070814Y-84950300D01*
X170998242Y-84877728D01*
X170925671Y-84732585D01*
X170925671Y-84660014D01*
X170998242Y-84514871D01*
X171070814Y-84442300D01*
X171215957Y-84369728D01*
X171506242Y-84369728D01*
X171651385Y-84442300D01*
X171723957Y-84514871D01*
X171796528Y-84660014D01*
X171796528Y-84732585D01*
X171723957Y-84877728D01*
X171651385Y-84950300D01*
X171506242Y-85022871D01*
X171215957Y-85022871D01*
X171070814Y-85095442D01*
X170998242Y-85168014D01*
X170925671Y-85313157D01*
X170925671Y-85603442D01*
X170998242Y-85748585D01*
X171070814Y-85821157D01*
X171215957Y-85893728D01*
X171506242Y-85893728D01*
X171651385Y-85821157D01*
X171723957Y-85748585D01*
X171796528Y-85603442D01*
X171796528Y-85313157D01*
X171723957Y-85168014D01*
X171651385Y-85095442D01*
X171506242Y-85022871D01*
G04 #@! TO.C,D10*
X128095828Y-81766228D02*
X128095828Y-80242228D01*
X128458685Y-80242228D01*
X128676400Y-80314800D01*
X128821542Y-80459942D01*
X128894114Y-80605085D01*
X128966685Y-80895371D01*
X128966685Y-81113085D01*
X128894114Y-81403371D01*
X128821542Y-81548514D01*
X128676400Y-81693657D01*
X128458685Y-81766228D01*
X128095828Y-81766228D01*
X130418114Y-81766228D02*
X129547257Y-81766228D01*
X129982685Y-81766228D02*
X129982685Y-80242228D01*
X129837542Y-80459942D01*
X129692400Y-80605085D01*
X129547257Y-80677657D01*
X131361542Y-80242228D02*
X131506685Y-80242228D01*
X131651828Y-80314800D01*
X131724400Y-80387371D01*
X131796971Y-80532514D01*
X131869542Y-80822800D01*
X131869542Y-81185657D01*
X131796971Y-81475942D01*
X131724400Y-81621085D01*
X131651828Y-81693657D01*
X131506685Y-81766228D01*
X131361542Y-81766228D01*
X131216400Y-81693657D01*
X131143828Y-81621085D01*
X131071257Y-81475942D01*
X130998685Y-81185657D01*
X130998685Y-80822800D01*
X131071257Y-80532514D01*
X131143828Y-80387371D01*
X131216400Y-80314800D01*
X131361542Y-80242228D01*
G04 #@! TO.C,D11*
X139348028Y-87062128D02*
X139348028Y-85538128D01*
X139710885Y-85538128D01*
X139928600Y-85610700D01*
X140073742Y-85755842D01*
X140146314Y-85900985D01*
X140218885Y-86191271D01*
X140218885Y-86408985D01*
X140146314Y-86699271D01*
X140073742Y-86844414D01*
X139928600Y-86989557D01*
X139710885Y-87062128D01*
X139348028Y-87062128D01*
X141670314Y-87062128D02*
X140799457Y-87062128D01*
X141234885Y-87062128D02*
X141234885Y-85538128D01*
X141089742Y-85755842D01*
X140944600Y-85900985D01*
X140799457Y-85973557D01*
X143121742Y-87062128D02*
X142250885Y-87062128D01*
X142686314Y-87062128D02*
X142686314Y-85538128D01*
X142541171Y-85755842D01*
X142396028Y-85900985D01*
X142250885Y-85973557D01*
G04 #@! TO.C,Q1*
X177197657Y-67001571D02*
X177052514Y-66929000D01*
X176907371Y-66783857D01*
X176689657Y-66566142D01*
X176544514Y-66493571D01*
X176399371Y-66493571D01*
X176471942Y-66856428D02*
X176326800Y-66783857D01*
X176181657Y-66638714D01*
X176109085Y-66348428D01*
X176109085Y-65840428D01*
X176181657Y-65550142D01*
X176326800Y-65405000D01*
X176471942Y-65332428D01*
X176762228Y-65332428D01*
X176907371Y-65405000D01*
X177052514Y-65550142D01*
X177125085Y-65840428D01*
X177125085Y-66348428D01*
X177052514Y-66638714D01*
X176907371Y-66783857D01*
X176762228Y-66856428D01*
X176471942Y-66856428D01*
X178576514Y-66856428D02*
X177705657Y-66856428D01*
X178141085Y-66856428D02*
X178141085Y-65332428D01*
X177995942Y-65550142D01*
X177850800Y-65695285D01*
X177705657Y-65767857D01*
G04 #@! TO.C,Q2*
X177350057Y-74088171D02*
X177204914Y-74015600D01*
X177059771Y-73870457D01*
X176842057Y-73652742D01*
X176696914Y-73580171D01*
X176551771Y-73580171D01*
X176624342Y-73943028D02*
X176479200Y-73870457D01*
X176334057Y-73725314D01*
X176261485Y-73435028D01*
X176261485Y-72927028D01*
X176334057Y-72636742D01*
X176479200Y-72491600D01*
X176624342Y-72419028D01*
X176914628Y-72419028D01*
X177059771Y-72491600D01*
X177204914Y-72636742D01*
X177277485Y-72927028D01*
X177277485Y-73435028D01*
X177204914Y-73725314D01*
X177059771Y-73870457D01*
X176914628Y-73943028D01*
X176624342Y-73943028D01*
X177858057Y-72564171D02*
X177930628Y-72491600D01*
X178075771Y-72419028D01*
X178438628Y-72419028D01*
X178583771Y-72491600D01*
X178656342Y-72564171D01*
X178728914Y-72709314D01*
X178728914Y-72854457D01*
X178656342Y-73072171D01*
X177785485Y-73943028D01*
X178728914Y-73943028D01*
G04 #@! TO.C,Q3*
X137740571Y-68217142D02*
X137668000Y-68362285D01*
X137522857Y-68507428D01*
X137305142Y-68725142D01*
X137232571Y-68870285D01*
X137232571Y-69015428D01*
X137595428Y-68942857D02*
X137522857Y-69088000D01*
X137377714Y-69233142D01*
X137087428Y-69305714D01*
X136579428Y-69305714D01*
X136289142Y-69233142D01*
X136144000Y-69088000D01*
X136071428Y-68942857D01*
X136071428Y-68652571D01*
X136144000Y-68507428D01*
X136289142Y-68362285D01*
X136579428Y-68289714D01*
X137087428Y-68289714D01*
X137377714Y-68362285D01*
X137522857Y-68507428D01*
X137595428Y-68652571D01*
X137595428Y-68942857D01*
X136071428Y-67781714D02*
X136071428Y-66838285D01*
X136652000Y-67346285D01*
X136652000Y-67128571D01*
X136724571Y-66983428D01*
X136797142Y-66910857D01*
X136942285Y-66838285D01*
X137305142Y-66838285D01*
X137450285Y-66910857D01*
X137522857Y-66983428D01*
X137595428Y-67128571D01*
X137595428Y-67564000D01*
X137522857Y-67709142D01*
X137450285Y-67781714D01*
G04 #@! TO.C,Q4*
X131390571Y-67963142D02*
X131318000Y-68108285D01*
X131172857Y-68253428D01*
X130955142Y-68471142D01*
X130882571Y-68616285D01*
X130882571Y-68761428D01*
X131245428Y-68688857D02*
X131172857Y-68834000D01*
X131027714Y-68979142D01*
X130737428Y-69051714D01*
X130229428Y-69051714D01*
X129939142Y-68979142D01*
X129794000Y-68834000D01*
X129721428Y-68688857D01*
X129721428Y-68398571D01*
X129794000Y-68253428D01*
X129939142Y-68108285D01*
X130229428Y-68035714D01*
X130737428Y-68035714D01*
X131027714Y-68108285D01*
X131172857Y-68253428D01*
X131245428Y-68398571D01*
X131245428Y-68688857D01*
X130229428Y-66729428D02*
X131245428Y-66729428D01*
X129648857Y-67092285D02*
X130737428Y-67455142D01*
X130737428Y-66511714D01*
G04 #@! TO.C,C1*
X135890000Y-83094285D02*
X135817428Y-83166857D01*
X135599714Y-83239428D01*
X135454571Y-83239428D01*
X135236857Y-83166857D01*
X135091714Y-83021714D01*
X135019142Y-82876571D01*
X134946571Y-82586285D01*
X134946571Y-82368571D01*
X135019142Y-82078285D01*
X135091714Y-81933142D01*
X135236857Y-81788000D01*
X135454571Y-81715428D01*
X135599714Y-81715428D01*
X135817428Y-81788000D01*
X135890000Y-81860571D01*
X137341428Y-83239428D02*
X136470571Y-83239428D01*
X136906000Y-83239428D02*
X136906000Y-81715428D01*
X136760857Y-81933142D01*
X136615714Y-82078285D01*
X136470571Y-82150857D01*
G04 #@! TO.C,C2*
X135636000Y-62215485D02*
X135563428Y-62288057D01*
X135345714Y-62360628D01*
X135200571Y-62360628D01*
X134982857Y-62288057D01*
X134837714Y-62142914D01*
X134765142Y-61997771D01*
X134692571Y-61707485D01*
X134692571Y-61489771D01*
X134765142Y-61199485D01*
X134837714Y-61054342D01*
X134982857Y-60909200D01*
X135200571Y-60836628D01*
X135345714Y-60836628D01*
X135563428Y-60909200D01*
X135636000Y-60981771D01*
X136216571Y-60981771D02*
X136289142Y-60909200D01*
X136434285Y-60836628D01*
X136797142Y-60836628D01*
X136942285Y-60909200D01*
X137014857Y-60981771D01*
X137087428Y-61126914D01*
X137087428Y-61272057D01*
X137014857Y-61489771D01*
X136144000Y-62360628D01*
X137087428Y-62360628D01*
G04 #@! TO.C,C3*
X122311885Y-104952800D02*
X122384457Y-105025371D01*
X122457028Y-105243085D01*
X122457028Y-105388228D01*
X122384457Y-105605942D01*
X122239314Y-105751085D01*
X122094171Y-105823657D01*
X121803885Y-105896228D01*
X121586171Y-105896228D01*
X121295885Y-105823657D01*
X121150742Y-105751085D01*
X121005600Y-105605942D01*
X120933028Y-105388228D01*
X120933028Y-105243085D01*
X121005600Y-105025371D01*
X121078171Y-104952800D01*
X120933028Y-104444800D02*
X120933028Y-103501371D01*
X121513600Y-104009371D01*
X121513600Y-103791657D01*
X121586171Y-103646514D01*
X121658742Y-103573942D01*
X121803885Y-103501371D01*
X122166742Y-103501371D01*
X122311885Y-103573942D01*
X122384457Y-103646514D01*
X122457028Y-103791657D01*
X122457028Y-104227085D01*
X122384457Y-104372228D01*
X122311885Y-104444800D01*
G04 #@! TO.C,R1*
X137160000Y-59769828D02*
X136652000Y-59044114D01*
X136289142Y-59769828D02*
X136289142Y-58245828D01*
X136869714Y-58245828D01*
X137014857Y-58318400D01*
X137087428Y-58390971D01*
X137160000Y-58536114D01*
X137160000Y-58753828D01*
X137087428Y-58898971D01*
X137014857Y-58971542D01*
X136869714Y-59044114D01*
X136289142Y-59044114D01*
X138611428Y-59769828D02*
X137740571Y-59769828D01*
X138176000Y-59769828D02*
X138176000Y-58245828D01*
X138030857Y-58463542D01*
X137885714Y-58608685D01*
X137740571Y-58681257D01*
G04 #@! TO.C,R2*
X166319200Y-59820628D02*
X165811200Y-59094914D01*
X165448342Y-59820628D02*
X165448342Y-58296628D01*
X166028914Y-58296628D01*
X166174057Y-58369200D01*
X166246628Y-58441771D01*
X166319200Y-58586914D01*
X166319200Y-58804628D01*
X166246628Y-58949771D01*
X166174057Y-59022342D01*
X166028914Y-59094914D01*
X165448342Y-59094914D01*
X166899771Y-58441771D02*
X166972342Y-58369200D01*
X167117485Y-58296628D01*
X167480342Y-58296628D01*
X167625485Y-58369200D01*
X167698057Y-58441771D01*
X167770628Y-58586914D01*
X167770628Y-58732057D01*
X167698057Y-58949771D01*
X166827200Y-59820628D01*
X167770628Y-59820628D01*
G04 #@! TO.C,R3*
X157480000Y-113617828D02*
X156972000Y-112892114D01*
X156609142Y-113617828D02*
X156609142Y-112093828D01*
X157189714Y-112093828D01*
X157334857Y-112166400D01*
X157407428Y-112238971D01*
X157480000Y-112384114D01*
X157480000Y-112601828D01*
X157407428Y-112746971D01*
X157334857Y-112819542D01*
X157189714Y-112892114D01*
X156609142Y-112892114D01*
X157988000Y-112093828D02*
X158931428Y-112093828D01*
X158423428Y-112674400D01*
X158641142Y-112674400D01*
X158786285Y-112746971D01*
X158858857Y-112819542D01*
X158931428Y-112964685D01*
X158931428Y-113327542D01*
X158858857Y-113472685D01*
X158786285Y-113545257D01*
X158641142Y-113617828D01*
X158205714Y-113617828D01*
X158060571Y-113545257D01*
X157988000Y-113472685D01*
G04 #@! TO.C,R4*
X142849600Y-113567028D02*
X142341600Y-112841314D01*
X141978742Y-113567028D02*
X141978742Y-112043028D01*
X142559314Y-112043028D01*
X142704457Y-112115600D01*
X142777028Y-112188171D01*
X142849600Y-112333314D01*
X142849600Y-112551028D01*
X142777028Y-112696171D01*
X142704457Y-112768742D01*
X142559314Y-112841314D01*
X141978742Y-112841314D01*
X144155885Y-112551028D02*
X144155885Y-113567028D01*
X143793028Y-111970457D02*
X143430171Y-113059028D01*
X144373600Y-113059028D01*
G04 #@! TO.C,R5*
X131724400Y-101578228D02*
X131216400Y-100852514D01*
X130853542Y-101578228D02*
X130853542Y-100054228D01*
X131434114Y-100054228D01*
X131579257Y-100126800D01*
X131651828Y-100199371D01*
X131724400Y-100344514D01*
X131724400Y-100562228D01*
X131651828Y-100707371D01*
X131579257Y-100779942D01*
X131434114Y-100852514D01*
X130853542Y-100852514D01*
X133103257Y-100054228D02*
X132377542Y-100054228D01*
X132304971Y-100779942D01*
X132377542Y-100707371D01*
X132522685Y-100634800D01*
X132885542Y-100634800D01*
X133030685Y-100707371D01*
X133103257Y-100779942D01*
X133175828Y-100925085D01*
X133175828Y-101287942D01*
X133103257Y-101433085D01*
X133030685Y-101505657D01*
X132885542Y-101578228D01*
X132522685Y-101578228D01*
X132377542Y-101505657D01*
X132304971Y-101433085D01*
G04 #@! TO.C,R6*
X167284400Y-79531028D02*
X166776400Y-78805314D01*
X166413542Y-79531028D02*
X166413542Y-78007028D01*
X166994114Y-78007028D01*
X167139257Y-78079600D01*
X167211828Y-78152171D01*
X167284400Y-78297314D01*
X167284400Y-78515028D01*
X167211828Y-78660171D01*
X167139257Y-78732742D01*
X166994114Y-78805314D01*
X166413542Y-78805314D01*
X168590685Y-78007028D02*
X168300400Y-78007028D01*
X168155257Y-78079600D01*
X168082685Y-78152171D01*
X167937542Y-78369885D01*
X167864971Y-78660171D01*
X167864971Y-79240742D01*
X167937542Y-79385885D01*
X168010114Y-79458457D01*
X168155257Y-79531028D01*
X168445542Y-79531028D01*
X168590685Y-79458457D01*
X168663257Y-79385885D01*
X168735828Y-79240742D01*
X168735828Y-78877885D01*
X168663257Y-78732742D01*
X168590685Y-78660171D01*
X168445542Y-78587600D01*
X168155257Y-78587600D01*
X168010114Y-78660171D01*
X167937542Y-78732742D01*
X167864971Y-78877885D01*
G04 #@! TO.C,R7*
X155346400Y-59439628D02*
X154838400Y-58713914D01*
X154475542Y-59439628D02*
X154475542Y-57915628D01*
X155056114Y-57915628D01*
X155201257Y-57988200D01*
X155273828Y-58060771D01*
X155346400Y-58205914D01*
X155346400Y-58423628D01*
X155273828Y-58568771D01*
X155201257Y-58641342D01*
X155056114Y-58713914D01*
X154475542Y-58713914D01*
X155854400Y-57915628D02*
X156870400Y-57915628D01*
X156217257Y-59439628D01*
G04 #@! TO.C,R8*
X162204400Y-89335428D02*
X161696400Y-88609714D01*
X161333542Y-89335428D02*
X161333542Y-87811428D01*
X161914114Y-87811428D01*
X162059257Y-87884000D01*
X162131828Y-87956571D01*
X162204400Y-88101714D01*
X162204400Y-88319428D01*
X162131828Y-88464571D01*
X162059257Y-88537142D01*
X161914114Y-88609714D01*
X161333542Y-88609714D01*
X163075257Y-88464571D02*
X162930114Y-88392000D01*
X162857542Y-88319428D01*
X162784971Y-88174285D01*
X162784971Y-88101714D01*
X162857542Y-87956571D01*
X162930114Y-87884000D01*
X163075257Y-87811428D01*
X163365542Y-87811428D01*
X163510685Y-87884000D01*
X163583257Y-87956571D01*
X163655828Y-88101714D01*
X163655828Y-88174285D01*
X163583257Y-88319428D01*
X163510685Y-88392000D01*
X163365542Y-88464571D01*
X163075257Y-88464571D01*
X162930114Y-88537142D01*
X162857542Y-88609714D01*
X162784971Y-88754857D01*
X162784971Y-89045142D01*
X162857542Y-89190285D01*
X162930114Y-89262857D01*
X163075257Y-89335428D01*
X163365542Y-89335428D01*
X163510685Y-89262857D01*
X163583257Y-89190285D01*
X163655828Y-89045142D01*
X163655828Y-88754857D01*
X163583257Y-88609714D01*
X163510685Y-88537142D01*
X163365542Y-88464571D01*
G04 #@! TO.C,R9*
X162458400Y-94517028D02*
X161950400Y-93791314D01*
X161587542Y-94517028D02*
X161587542Y-92993028D01*
X162168114Y-92993028D01*
X162313257Y-93065600D01*
X162385828Y-93138171D01*
X162458400Y-93283314D01*
X162458400Y-93501028D01*
X162385828Y-93646171D01*
X162313257Y-93718742D01*
X162168114Y-93791314D01*
X161587542Y-93791314D01*
X163184114Y-94517028D02*
X163474400Y-94517028D01*
X163619542Y-94444457D01*
X163692114Y-94371885D01*
X163837257Y-94154171D01*
X163909828Y-93863885D01*
X163909828Y-93283314D01*
X163837257Y-93138171D01*
X163764685Y-93065600D01*
X163619542Y-92993028D01*
X163329257Y-92993028D01*
X163184114Y-93065600D01*
X163111542Y-93138171D01*
X163038971Y-93283314D01*
X163038971Y-93646171D01*
X163111542Y-93791314D01*
X163184114Y-93863885D01*
X163329257Y-93936457D01*
X163619542Y-93936457D01*
X163764685Y-93863885D01*
X163837257Y-93791314D01*
X163909828Y-93646171D01*
G04 #@! TO.C,R10*
X131303485Y-86033428D02*
X130795485Y-85307714D01*
X130432628Y-86033428D02*
X130432628Y-84509428D01*
X131013200Y-84509428D01*
X131158342Y-84582000D01*
X131230914Y-84654571D01*
X131303485Y-84799714D01*
X131303485Y-85017428D01*
X131230914Y-85162571D01*
X131158342Y-85235142D01*
X131013200Y-85307714D01*
X130432628Y-85307714D01*
X132754914Y-86033428D02*
X131884057Y-86033428D01*
X132319485Y-86033428D02*
X132319485Y-84509428D01*
X132174342Y-84727142D01*
X132029200Y-84872285D01*
X131884057Y-84944857D01*
X133698342Y-84509428D02*
X133843485Y-84509428D01*
X133988628Y-84582000D01*
X134061200Y-84654571D01*
X134133771Y-84799714D01*
X134206342Y-85090000D01*
X134206342Y-85452857D01*
X134133771Y-85743142D01*
X134061200Y-85888285D01*
X133988628Y-85960857D01*
X133843485Y-86033428D01*
X133698342Y-86033428D01*
X133553200Y-85960857D01*
X133480628Y-85888285D01*
X133408057Y-85743142D01*
X133335485Y-85452857D01*
X133335485Y-85090000D01*
X133408057Y-84799714D01*
X133480628Y-84654571D01*
X133553200Y-84582000D01*
X133698342Y-84509428D01*
G04 #@! TO.C,R11*
X152537885Y-79073828D02*
X152029885Y-78348114D01*
X151667028Y-79073828D02*
X151667028Y-77549828D01*
X152247600Y-77549828D01*
X152392742Y-77622400D01*
X152465314Y-77694971D01*
X152537885Y-77840114D01*
X152537885Y-78057828D01*
X152465314Y-78202971D01*
X152392742Y-78275542D01*
X152247600Y-78348114D01*
X151667028Y-78348114D01*
X153989314Y-79073828D02*
X153118457Y-79073828D01*
X153553885Y-79073828D02*
X153553885Y-77549828D01*
X153408742Y-77767542D01*
X153263600Y-77912685D01*
X153118457Y-77985257D01*
X155440742Y-79073828D02*
X154569885Y-79073828D01*
X155005314Y-79073828D02*
X155005314Y-77549828D01*
X154860171Y-77767542D01*
X154715028Y-77912685D01*
X154569885Y-77985257D01*
G04 #@! TO.C,R12*
X160564285Y-64849828D02*
X160056285Y-64124114D01*
X159693428Y-64849828D02*
X159693428Y-63325828D01*
X160274000Y-63325828D01*
X160419142Y-63398400D01*
X160491714Y-63470971D01*
X160564285Y-63616114D01*
X160564285Y-63833828D01*
X160491714Y-63978971D01*
X160419142Y-64051542D01*
X160274000Y-64124114D01*
X159693428Y-64124114D01*
X162015714Y-64849828D02*
X161144857Y-64849828D01*
X161580285Y-64849828D02*
X161580285Y-63325828D01*
X161435142Y-63543542D01*
X161290000Y-63688685D01*
X161144857Y-63761257D01*
X162596285Y-63470971D02*
X162668857Y-63398400D01*
X162814000Y-63325828D01*
X163176857Y-63325828D01*
X163322000Y-63398400D01*
X163394571Y-63470971D01*
X163467142Y-63616114D01*
X163467142Y-63761257D01*
X163394571Y-63978971D01*
X162523714Y-64849828D01*
X163467142Y-64849828D01*
G04 #@! TO.C,R13*
X153960285Y-76127428D02*
X153452285Y-75401714D01*
X153089428Y-76127428D02*
X153089428Y-74603428D01*
X153670000Y-74603428D01*
X153815142Y-74676000D01*
X153887714Y-74748571D01*
X153960285Y-74893714D01*
X153960285Y-75111428D01*
X153887714Y-75256571D01*
X153815142Y-75329142D01*
X153670000Y-75401714D01*
X153089428Y-75401714D01*
X155411714Y-76127428D02*
X154540857Y-76127428D01*
X154976285Y-76127428D02*
X154976285Y-74603428D01*
X154831142Y-74821142D01*
X154686000Y-74966285D01*
X154540857Y-75038857D01*
X155919714Y-74603428D02*
X156863142Y-74603428D01*
X156355142Y-75184000D01*
X156572857Y-75184000D01*
X156718000Y-75256571D01*
X156790571Y-75329142D01*
X156863142Y-75474285D01*
X156863142Y-75837142D01*
X156790571Y-75982285D01*
X156718000Y-76054857D01*
X156572857Y-76127428D01*
X156137428Y-76127428D01*
X155992285Y-76054857D01*
X155919714Y-75982285D01*
G04 #@! TO.C,R14*
X142573828Y-66460914D02*
X141848114Y-66968914D01*
X142573828Y-67331771D02*
X141049828Y-67331771D01*
X141049828Y-66751200D01*
X141122400Y-66606057D01*
X141194971Y-66533485D01*
X141340114Y-66460914D01*
X141557828Y-66460914D01*
X141702971Y-66533485D01*
X141775542Y-66606057D01*
X141848114Y-66751200D01*
X141848114Y-67331771D01*
X142573828Y-65009485D02*
X142573828Y-65880342D01*
X142573828Y-65444914D02*
X141049828Y-65444914D01*
X141267542Y-65590057D01*
X141412685Y-65735200D01*
X141485257Y-65880342D01*
X141557828Y-63703200D02*
X142573828Y-63703200D01*
X140977257Y-64066057D02*
X142065828Y-64428914D01*
X142065828Y-63485485D01*
G04 #@! TO.C,R15*
X121999828Y-82996314D02*
X121274114Y-83504314D01*
X121999828Y-83867171D02*
X120475828Y-83867171D01*
X120475828Y-83286600D01*
X120548400Y-83141457D01*
X120620971Y-83068885D01*
X120766114Y-82996314D01*
X120983828Y-82996314D01*
X121128971Y-83068885D01*
X121201542Y-83141457D01*
X121274114Y-83286600D01*
X121274114Y-83867171D01*
X121999828Y-81544885D02*
X121999828Y-82415742D01*
X121999828Y-81980314D02*
X120475828Y-81980314D01*
X120693542Y-82125457D01*
X120838685Y-82270600D01*
X120911257Y-82415742D01*
X120475828Y-80166028D02*
X120475828Y-80891742D01*
X121201542Y-80964314D01*
X121128971Y-80891742D01*
X121056400Y-80746600D01*
X121056400Y-80383742D01*
X121128971Y-80238600D01*
X121201542Y-80166028D01*
X121346685Y-80093457D01*
X121709542Y-80093457D01*
X121854685Y-80166028D01*
X121927257Y-80238600D01*
X121999828Y-80383742D01*
X121999828Y-80746600D01*
X121927257Y-80891742D01*
X121854685Y-80964314D01*
G04 #@! TO.C,R16*
X153089428Y-66511714D02*
X152363714Y-67019714D01*
X153089428Y-67382571D02*
X151565428Y-67382571D01*
X151565428Y-66802000D01*
X151638000Y-66656857D01*
X151710571Y-66584285D01*
X151855714Y-66511714D01*
X152073428Y-66511714D01*
X152218571Y-66584285D01*
X152291142Y-66656857D01*
X152363714Y-66802000D01*
X152363714Y-67382571D01*
X153089428Y-65060285D02*
X153089428Y-65931142D01*
X153089428Y-65495714D02*
X151565428Y-65495714D01*
X151783142Y-65640857D01*
X151928285Y-65786000D01*
X152000857Y-65931142D01*
X151565428Y-63754000D02*
X151565428Y-64044285D01*
X151638000Y-64189428D01*
X151710571Y-64262000D01*
X151928285Y-64407142D01*
X152218571Y-64479714D01*
X152799142Y-64479714D01*
X152944285Y-64407142D01*
X153016857Y-64334571D01*
X153089428Y-64189428D01*
X153089428Y-63899142D01*
X153016857Y-63754000D01*
X152944285Y-63681428D01*
X152799142Y-63608857D01*
X152436285Y-63608857D01*
X152291142Y-63681428D01*
X152218571Y-63754000D01*
X152146000Y-63899142D01*
X152146000Y-64189428D01*
X152218571Y-64334571D01*
X152291142Y-64407142D01*
X152436285Y-64479714D01*
G04 #@! TO.C,R17*
X130889828Y-77281314D02*
X130164114Y-77789314D01*
X130889828Y-78152171D02*
X129365828Y-78152171D01*
X129365828Y-77571600D01*
X129438400Y-77426457D01*
X129510971Y-77353885D01*
X129656114Y-77281314D01*
X129873828Y-77281314D01*
X130018971Y-77353885D01*
X130091542Y-77426457D01*
X130164114Y-77571600D01*
X130164114Y-78152171D01*
X130889828Y-75829885D02*
X130889828Y-76700742D01*
X130889828Y-76265314D02*
X129365828Y-76265314D01*
X129583542Y-76410457D01*
X129728685Y-76555600D01*
X129801257Y-76700742D01*
X129365828Y-75321885D02*
X129365828Y-74305885D01*
X130889828Y-74959028D01*
G04 #@! TO.C,D9*
X144061542Y-108880728D02*
X144061542Y-107356728D01*
X144424400Y-107356728D01*
X144642114Y-107429300D01*
X144787257Y-107574442D01*
X144859828Y-107719585D01*
X144932400Y-108009871D01*
X144932400Y-108227585D01*
X144859828Y-108517871D01*
X144787257Y-108663014D01*
X144642114Y-108808157D01*
X144424400Y-108880728D01*
X144061542Y-108880728D01*
X145658114Y-108880728D02*
X145948400Y-108880728D01*
X146093542Y-108808157D01*
X146166114Y-108735585D01*
X146311257Y-108517871D01*
X146383828Y-108227585D01*
X146383828Y-107647014D01*
X146311257Y-107501871D01*
X146238685Y-107429300D01*
X146093542Y-107356728D01*
X145803257Y-107356728D01*
X145658114Y-107429300D01*
X145585542Y-107501871D01*
X145512971Y-107647014D01*
X145512971Y-108009871D01*
X145585542Y-108155014D01*
X145658114Y-108227585D01*
X145803257Y-108300157D01*
X146093542Y-108300157D01*
X146238685Y-108227585D01*
X146311257Y-108155014D01*
X146383828Y-108009871D01*
G04 #@! TD*
M02*
