M48
;DRILL file {KiCad (5.0.1)-4} date 2/28/2019 6:49:47 PM
;FORMAT={-:-/ absolute / inch / decimal}
FMAT,2
INCH,TZ
T1C0.0315
T2C0.0315
T3C0.0354
T4C0.0394
T5C0.0472
T6C0.0800
%
G90
G05
M72
T1
X5.49Y-2.83
X5.23Y-2.52
X5.4269Y-2.52
X6.765Y-3.005
X6.865Y-3.005
X6.965Y-3.005
X5.23Y-2.73
X5.23Y-2.83
X5.23Y-2.93
X4.8Y-3.8031
X4.8Y-4.
X6.76Y-2.73
X6.86Y-2.73
X6.96Y-2.73
X5.49Y-2.73
X5.49Y-2.93
X5.26Y-3.15
X5.4569Y-3.15
T2
X4.81Y-3.644
X4.99Y-3.725
X5.695Y-4.1404
X6.156Y-3.625
X6.186Y-4.135
X6.19Y-3.37
X6.414Y-3.934
X6.44Y-3.6
T3
X6.76Y-2.4
X6.86Y-2.4
X4.92Y-3.295
X5.02Y-3.295
X4.975Y-2.4
X5.075Y-2.4
X6.828Y-3.3
X6.928Y-3.3
X5.865Y-2.363
X5.965Y-2.363
X6.35Y-3.025
X6.45Y-3.025
X4.97Y-4.205
X5.07Y-4.205
X6.77Y-4.205
X6.87Y-4.205
X5.21Y-3.67
X5.31Y-3.67
X5.695Y-3.4
X5.795Y-3.4
T4
X7.02Y-2.2
X4.825Y-2.2
X6.7Y-3.88
X6.7Y-3.98
X4.82Y-4.4
X7.02Y-4.4
T5
X6.04Y-2.84
X6.54Y-2.84
X6.54Y-3.485
X7.04Y-3.485
X5.88Y-2.51
X5.88Y-3.01
X6.11Y-2.65
X6.61Y-2.65
X5.Y-4.415
X5.5Y-4.415
X6.22Y-3.23
X6.72Y-3.23
X6.34Y-2.205
X6.84Y-2.205
X5.59Y-3.2
X6.09Y-3.2
X5.Y-2.58
X5.Y-3.08
X5.685Y-2.19
X6.185Y-2.19
X4.82Y-2.58
X4.82Y-3.08
X5.025Y-2.205
X5.525Y-2.205
X4.84Y-3.483
X5.34Y-3.483
X6.54Y-3.67
X7.04Y-3.67
X5.7Y-2.51
X5.7Y-3.01
X6.345Y-4.415
X6.845Y-4.415
X4.95Y-3.845
X5.45Y-3.845
T6
X5.535Y-4.07
X6.385Y-4.07
T0
M30
