G04 #@! TF.GenerationSoftware,KiCad,Pcbnew,(5.0.1)-4*
G04 #@! TF.CreationDate,2019-02-28T18:49:44-05:00*
G04 #@! TF.ProjectId,km-skillz-badge-kit,6B6D2D736B696C6C7A2D62616467652D,rev?*
G04 #@! TF.SameCoordinates,Original*
G04 #@! TF.FileFunction,Soldermask,Bot*
G04 #@! TF.FilePolarity,Negative*
%FSLAX46Y46*%
G04 Gerber Fmt 4.6, Leading zero omitted, Abs format (unit mm)*
G04 Created by KiCad (PCBNEW (5.0.1)-4) date 2/28/2019 6:49:44 PM*
%MOMM*%
%LPD*%
G01*
G04 APERTURE LIST*
%ADD10C,0.100000*%
G04 APERTURE END LIST*
D10*
G36*
X174103276Y-110758104D02*
X174272299Y-110791725D01*
X174527664Y-110897500D01*
X174757488Y-111051064D01*
X174952936Y-111246512D01*
X175106500Y-111476336D01*
X175212275Y-111731701D01*
X175266200Y-112002798D01*
X175266200Y-112279202D01*
X175212275Y-112550299D01*
X175106500Y-112805664D01*
X174952936Y-113035488D01*
X174757488Y-113230936D01*
X174527664Y-113384500D01*
X174272299Y-113490275D01*
X174136751Y-113517237D01*
X174001203Y-113544200D01*
X173724797Y-113544200D01*
X173589249Y-113517237D01*
X173453701Y-113490275D01*
X173198336Y-113384500D01*
X172968512Y-113230936D01*
X172773064Y-113035488D01*
X172619500Y-112805664D01*
X172513725Y-112550299D01*
X172459800Y-112279202D01*
X172459800Y-112002798D01*
X172513725Y-111731701D01*
X172619500Y-111476336D01*
X172773064Y-111246512D01*
X172968512Y-111051064D01*
X173198336Y-110897500D01*
X173453701Y-110791725D01*
X173622724Y-110758104D01*
X173724797Y-110737800D01*
X174001203Y-110737800D01*
X174103276Y-110758104D01*
X174103276Y-110758104D01*
G37*
G36*
X161438075Y-110758104D02*
X161702579Y-110838340D01*
X161946348Y-110968637D01*
X162160013Y-111143987D01*
X162335363Y-111357652D01*
X162465660Y-111601421D01*
X162545896Y-111865925D01*
X162572989Y-112141000D01*
X162545896Y-112416075D01*
X162465660Y-112680579D01*
X162335363Y-112924348D01*
X162160013Y-113138013D01*
X161946348Y-113313363D01*
X161702579Y-113443660D01*
X161702576Y-113443661D01*
X161438075Y-113523896D01*
X161231929Y-113544200D01*
X161094071Y-113544200D01*
X160887925Y-113523896D01*
X160623424Y-113443661D01*
X160623421Y-113443660D01*
X160379652Y-113313363D01*
X160165987Y-113138013D01*
X159990637Y-112924348D01*
X159860340Y-112680579D01*
X159780104Y-112416075D01*
X159753011Y-112141000D01*
X159780104Y-111865925D01*
X159860340Y-111601421D01*
X159990637Y-111357652D01*
X160165987Y-111143987D01*
X160379652Y-110968637D01*
X160623421Y-110838340D01*
X160887925Y-110758104D01*
X161094071Y-110737800D01*
X161231929Y-110737800D01*
X161438075Y-110758104D01*
X161438075Y-110758104D01*
G37*
G36*
X127275075Y-110758104D02*
X127539579Y-110838340D01*
X127783348Y-110968637D01*
X127997013Y-111143987D01*
X128172363Y-111357652D01*
X128302660Y-111601421D01*
X128382896Y-111865925D01*
X128409989Y-112141000D01*
X128382896Y-112416075D01*
X128302660Y-112680579D01*
X128172363Y-112924348D01*
X127997013Y-113138013D01*
X127783348Y-113313363D01*
X127539579Y-113443660D01*
X127275075Y-113523896D01*
X127068929Y-113544200D01*
X126931071Y-113544200D01*
X126724925Y-113523896D01*
X126460421Y-113443660D01*
X126216652Y-113313363D01*
X126002987Y-113138013D01*
X125827637Y-112924348D01*
X125697340Y-112680579D01*
X125617104Y-112416075D01*
X125590011Y-112141000D01*
X125617104Y-111865925D01*
X125697340Y-111601421D01*
X125827637Y-111357652D01*
X126002987Y-111143987D01*
X126216652Y-110968637D01*
X126460421Y-110838340D01*
X126724925Y-110758104D01*
X126931071Y-110737800D01*
X127068929Y-110737800D01*
X127275075Y-110758104D01*
X127275075Y-110758104D01*
G37*
G36*
X139940276Y-110758104D02*
X140109299Y-110791725D01*
X140364664Y-110897500D01*
X140594488Y-111051064D01*
X140789936Y-111246512D01*
X140943500Y-111476336D01*
X141049275Y-111731701D01*
X141103200Y-112002798D01*
X141103200Y-112279202D01*
X141049275Y-112550299D01*
X140943500Y-112805664D01*
X140789936Y-113035488D01*
X140594488Y-113230936D01*
X140364664Y-113384500D01*
X140109299Y-113490275D01*
X139973751Y-113517237D01*
X139838203Y-113544200D01*
X139561797Y-113544200D01*
X139426249Y-113517237D01*
X139290701Y-113490275D01*
X139035336Y-113384500D01*
X138805512Y-113230936D01*
X138610064Y-113035488D01*
X138456500Y-112805664D01*
X138350725Y-112550299D01*
X138296800Y-112279202D01*
X138296800Y-112002798D01*
X138350725Y-111731701D01*
X138456500Y-111476336D01*
X138610064Y-111246512D01*
X138805512Y-111051064D01*
X139035336Y-110897500D01*
X139290701Y-110791725D01*
X139459724Y-110758104D01*
X139561797Y-110737800D01*
X139838203Y-110737800D01*
X139940276Y-110758104D01*
X139940276Y-110758104D01*
G37*
G36*
X179361200Y-112813200D02*
X177254800Y-112813200D01*
X177254800Y-110706800D01*
X179361200Y-110706800D01*
X179361200Y-112813200D01*
X179361200Y-112813200D01*
G37*
G36*
X123481200Y-112813200D02*
X121374800Y-112813200D01*
X121374800Y-110706800D01*
X123481200Y-110706800D01*
X123481200Y-112813200D01*
X123481200Y-112813200D01*
G37*
G36*
X174657160Y-105595573D02*
X174853627Y-105634652D01*
X174993546Y-105692609D01*
X175075508Y-105726559D01*
X175075509Y-105726560D01*
X175275193Y-105859984D01*
X175445016Y-106029807D01*
X175533965Y-106162930D01*
X175578441Y-106229492D01*
X175612391Y-106311454D01*
X175670348Y-106451373D01*
X175707175Y-106636518D01*
X175717200Y-106686919D01*
X175717200Y-106927081D01*
X175714088Y-106942725D01*
X175670348Y-107162627D01*
X175612391Y-107302546D01*
X175578441Y-107384508D01*
X175578440Y-107384509D01*
X175445016Y-107584193D01*
X175275193Y-107754016D01*
X175142070Y-107842965D01*
X175075508Y-107887441D01*
X174993546Y-107921391D01*
X174853627Y-107979348D01*
X174657160Y-108018427D01*
X174618081Y-108026200D01*
X174377919Y-108026200D01*
X174338840Y-108018427D01*
X174142373Y-107979348D01*
X174002454Y-107921391D01*
X173920492Y-107887441D01*
X173853930Y-107842965D01*
X173720807Y-107754016D01*
X173550984Y-107584193D01*
X173417560Y-107384509D01*
X173417559Y-107384508D01*
X173383609Y-107302546D01*
X173325652Y-107162627D01*
X173301760Y-107042509D01*
X173294533Y-107018685D01*
X173282797Y-106996728D01*
X173267003Y-106977483D01*
X173247758Y-106961689D01*
X173225801Y-106949952D01*
X173201977Y-106942725D01*
X173177200Y-106940285D01*
X173152424Y-106942725D01*
X173128600Y-106949952D01*
X173106643Y-106961688D01*
X173087398Y-106977482D01*
X173071604Y-106996727D01*
X173059867Y-107018684D01*
X173052640Y-107042508D01*
X173050200Y-107067285D01*
X173050200Y-107899200D01*
X170865800Y-107899200D01*
X170865800Y-105714800D01*
X173050200Y-105714800D01*
X173050200Y-106546715D01*
X173052640Y-106571491D01*
X173059867Y-106595316D01*
X173071603Y-106617272D01*
X173087397Y-106636518D01*
X173106643Y-106652312D01*
X173128599Y-106664048D01*
X173152424Y-106671275D01*
X173177200Y-106673715D01*
X173201976Y-106671275D01*
X173225801Y-106664048D01*
X173247757Y-106652312D01*
X173267003Y-106636518D01*
X173282797Y-106617272D01*
X173294533Y-106595316D01*
X173301760Y-106571491D01*
X173325652Y-106451373D01*
X173383609Y-106311454D01*
X173417559Y-106229492D01*
X173462035Y-106162930D01*
X173550984Y-106029807D01*
X173720807Y-105859984D01*
X173920491Y-105726560D01*
X173920492Y-105726559D01*
X174002454Y-105692609D01*
X174142373Y-105634652D01*
X174338840Y-105595573D01*
X174377919Y-105587800D01*
X174618081Y-105587800D01*
X174657160Y-105595573D01*
X174657160Y-105595573D01*
G37*
G36*
X128937160Y-105595573D02*
X129133627Y-105634652D01*
X129273546Y-105692609D01*
X129355508Y-105726559D01*
X129355509Y-105726560D01*
X129555193Y-105859984D01*
X129725016Y-106029807D01*
X129813965Y-106162930D01*
X129858441Y-106229492D01*
X129892391Y-106311454D01*
X129950348Y-106451373D01*
X129987175Y-106636518D01*
X129997200Y-106686919D01*
X129997200Y-106927081D01*
X129994088Y-106942725D01*
X129950348Y-107162627D01*
X129892391Y-107302546D01*
X129858441Y-107384508D01*
X129858440Y-107384509D01*
X129725016Y-107584193D01*
X129555193Y-107754016D01*
X129422070Y-107842965D01*
X129355508Y-107887441D01*
X129273546Y-107921391D01*
X129133627Y-107979348D01*
X128937160Y-108018427D01*
X128898081Y-108026200D01*
X128657919Y-108026200D01*
X128618840Y-108018427D01*
X128422373Y-107979348D01*
X128282454Y-107921391D01*
X128200492Y-107887441D01*
X128133930Y-107842965D01*
X128000807Y-107754016D01*
X127830984Y-107584193D01*
X127697560Y-107384509D01*
X127697559Y-107384508D01*
X127663609Y-107302546D01*
X127605652Y-107162627D01*
X127581760Y-107042509D01*
X127574533Y-107018685D01*
X127562797Y-106996728D01*
X127547003Y-106977483D01*
X127527758Y-106961689D01*
X127505801Y-106949952D01*
X127481977Y-106942725D01*
X127457200Y-106940285D01*
X127432424Y-106942725D01*
X127408600Y-106949952D01*
X127386643Y-106961688D01*
X127367398Y-106977482D01*
X127351604Y-106996727D01*
X127339867Y-107018684D01*
X127332640Y-107042508D01*
X127330200Y-107067285D01*
X127330200Y-107899200D01*
X125145800Y-107899200D01*
X125145800Y-105714800D01*
X127330200Y-105714800D01*
X127330200Y-106546715D01*
X127332640Y-106571491D01*
X127339867Y-106595316D01*
X127351603Y-106617272D01*
X127367397Y-106636518D01*
X127386643Y-106652312D01*
X127408599Y-106664048D01*
X127432424Y-106671275D01*
X127457200Y-106673715D01*
X127481976Y-106671275D01*
X127505801Y-106664048D01*
X127527757Y-106652312D01*
X127547003Y-106636518D01*
X127562797Y-106617272D01*
X127574533Y-106595316D01*
X127581760Y-106571491D01*
X127605652Y-106451373D01*
X127663609Y-106311454D01*
X127697559Y-106229492D01*
X127742035Y-106162930D01*
X127830984Y-106029807D01*
X128000807Y-105859984D01*
X128200491Y-105726560D01*
X128200492Y-105726559D01*
X128282454Y-105692609D01*
X128422373Y-105634652D01*
X128618840Y-105595573D01*
X128657919Y-105587800D01*
X128898081Y-105587800D01*
X128937160Y-105595573D01*
X128937160Y-105595573D01*
G37*
G36*
X154127200Y-106121200D02*
X148640800Y-106121200D01*
X148640800Y-100634800D01*
X154127200Y-100634800D01*
X154127200Y-106121200D01*
X154127200Y-106121200D01*
G37*
G36*
X162424184Y-101600988D02*
X162701327Y-101656115D01*
X163027216Y-101791103D01*
X163320503Y-101987071D01*
X163569929Y-102236497D01*
X163765897Y-102529784D01*
X163900885Y-102855673D01*
X163969700Y-103201632D01*
X163969700Y-103554368D01*
X163900885Y-103900327D01*
X163765897Y-104226216D01*
X163569929Y-104519503D01*
X163320503Y-104768929D01*
X163027216Y-104964897D01*
X162701327Y-105099885D01*
X162424184Y-105155012D01*
X162355369Y-105168700D01*
X162002631Y-105168700D01*
X161933816Y-105155012D01*
X161656673Y-105099885D01*
X161330784Y-104964897D01*
X161037497Y-104768929D01*
X160788071Y-104519503D01*
X160592103Y-104226216D01*
X160457115Y-103900327D01*
X160388300Y-103554368D01*
X160388300Y-103201632D01*
X160457115Y-102855673D01*
X160592103Y-102529784D01*
X160788071Y-102236497D01*
X161037497Y-101987071D01*
X161330784Y-101791103D01*
X161656673Y-101656115D01*
X161933816Y-101600988D01*
X162002631Y-101587300D01*
X162355369Y-101587300D01*
X162424184Y-101600988D01*
X162424184Y-101600988D01*
G37*
G36*
X140834184Y-101600988D02*
X141111327Y-101656115D01*
X141437216Y-101791103D01*
X141730503Y-101987071D01*
X141979929Y-102236497D01*
X142175897Y-102529784D01*
X142310885Y-102855673D01*
X142379700Y-103201632D01*
X142379700Y-103554368D01*
X142310885Y-103900327D01*
X142175897Y-104226216D01*
X141979929Y-104519503D01*
X141730503Y-104768929D01*
X141437216Y-104964897D01*
X141111327Y-105099885D01*
X140834184Y-105155012D01*
X140765369Y-105168700D01*
X140412631Y-105168700D01*
X140343816Y-105155012D01*
X140066673Y-105099885D01*
X139740784Y-104964897D01*
X139447497Y-104768929D01*
X139198071Y-104519503D01*
X139002103Y-104226216D01*
X138867115Y-103900327D01*
X138798300Y-103554368D01*
X138798300Y-103201632D01*
X138867115Y-102855673D01*
X139002103Y-102529784D01*
X139198071Y-102236497D01*
X139447497Y-101987071D01*
X139740784Y-101791103D01*
X140066673Y-101656115D01*
X140343816Y-101600988D01*
X140412631Y-101587300D01*
X140765369Y-101587300D01*
X140834184Y-101600988D01*
X140834184Y-101600988D01*
G37*
G36*
X122212623Y-100635352D02*
X122212626Y-100635353D01*
X122212625Y-100635353D01*
X122395191Y-100710974D01*
X122559503Y-100820764D01*
X122699236Y-100960497D01*
X122809026Y-101124809D01*
X122874988Y-101284055D01*
X122884648Y-101307377D01*
X122923200Y-101501193D01*
X122923200Y-101698807D01*
X122884648Y-101892623D01*
X122884647Y-101892625D01*
X122809026Y-102075191D01*
X122699236Y-102239503D01*
X122559503Y-102379236D01*
X122395191Y-102489026D01*
X122235945Y-102554988D01*
X122212623Y-102564648D01*
X122018807Y-102603200D01*
X121821193Y-102603200D01*
X121627377Y-102564648D01*
X121604055Y-102554988D01*
X121444809Y-102489026D01*
X121280497Y-102379236D01*
X121140764Y-102239503D01*
X121030974Y-102075191D01*
X120955353Y-101892625D01*
X120955352Y-101892623D01*
X120916800Y-101698807D01*
X120916800Y-101501193D01*
X120955352Y-101307377D01*
X120965012Y-101284055D01*
X121030974Y-101124809D01*
X121140764Y-100960497D01*
X121280497Y-100820764D01*
X121444809Y-100710974D01*
X121627375Y-100635353D01*
X121627374Y-100635353D01*
X121627377Y-100635352D01*
X121821193Y-100596800D01*
X122018807Y-100596800D01*
X122212623Y-100635352D01*
X122212623Y-100635352D01*
G37*
G36*
X170386464Y-100054039D02*
X170584991Y-100114262D01*
X170767957Y-100212060D01*
X170928328Y-100343672D01*
X171059940Y-100504043D01*
X171157738Y-100687009D01*
X171217961Y-100885536D01*
X171238296Y-101092000D01*
X171217961Y-101298464D01*
X171157738Y-101496991D01*
X171059940Y-101679957D01*
X170928328Y-101840328D01*
X170767957Y-101971940D01*
X170584991Y-102069738D01*
X170386464Y-102129961D01*
X170231741Y-102145200D01*
X170128259Y-102145200D01*
X169973536Y-102129961D01*
X169775009Y-102069738D01*
X169592043Y-101971940D01*
X169431672Y-101840328D01*
X169300060Y-101679957D01*
X169202262Y-101496991D01*
X169142039Y-101298464D01*
X169121704Y-101092000D01*
X169142039Y-100885536D01*
X169202262Y-100687009D01*
X169300060Y-100504043D01*
X169431672Y-100343672D01*
X169592043Y-100212060D01*
X169775009Y-100114262D01*
X169973536Y-100054039D01*
X170128259Y-100038800D01*
X170231741Y-100038800D01*
X170386464Y-100054039D01*
X170386464Y-100054039D01*
G37*
G36*
X171233200Y-99605200D02*
X169126800Y-99605200D01*
X169126800Y-97498800D01*
X171233200Y-97498800D01*
X171233200Y-99605200D01*
X171233200Y-99605200D01*
G37*
G36*
X125970276Y-96280104D02*
X126139299Y-96313725D01*
X126394664Y-96419500D01*
X126624488Y-96573064D01*
X126819936Y-96768512D01*
X126973500Y-96998336D01*
X127073394Y-97239503D01*
X127079275Y-97253702D01*
X127126085Y-97489026D01*
X127133200Y-97524798D01*
X127133200Y-97801202D01*
X127079275Y-98072299D01*
X126973500Y-98327664D01*
X126819936Y-98557488D01*
X126624488Y-98752936D01*
X126394664Y-98906500D01*
X126139299Y-99012275D01*
X126003751Y-99039237D01*
X125868203Y-99066200D01*
X125591797Y-99066200D01*
X125456249Y-99039237D01*
X125320701Y-99012275D01*
X125065336Y-98906500D01*
X124835512Y-98752936D01*
X124640064Y-98557488D01*
X124486500Y-98327664D01*
X124380725Y-98072299D01*
X124326800Y-97801202D01*
X124326800Y-97524798D01*
X124333916Y-97489026D01*
X124380725Y-97253702D01*
X124386606Y-97239503D01*
X124486500Y-96998336D01*
X124640064Y-96768512D01*
X124835512Y-96573064D01*
X125065336Y-96419500D01*
X125320701Y-96313725D01*
X125489724Y-96280104D01*
X125591797Y-96259800D01*
X125868203Y-96259800D01*
X125970276Y-96280104D01*
X125970276Y-96280104D01*
G37*
G36*
X138705075Y-96280104D02*
X138794983Y-96307377D01*
X138969579Y-96360340D01*
X139213348Y-96490637D01*
X139427013Y-96665987D01*
X139602363Y-96879652D01*
X139732660Y-97123421D01*
X139812896Y-97387925D01*
X139839989Y-97663000D01*
X139812896Y-97938075D01*
X139732660Y-98202579D01*
X139602363Y-98446348D01*
X139427013Y-98660013D01*
X139213348Y-98835363D01*
X138969579Y-98965660D01*
X138969576Y-98965661D01*
X138705075Y-99045896D01*
X138498929Y-99066200D01*
X138361071Y-99066200D01*
X138154925Y-99045896D01*
X137890424Y-98965661D01*
X137890421Y-98965660D01*
X137646652Y-98835363D01*
X137432987Y-98660013D01*
X137257637Y-98446348D01*
X137127340Y-98202579D01*
X137047104Y-97938075D01*
X137020011Y-97663000D01*
X137047104Y-97387925D01*
X137127340Y-97123421D01*
X137257637Y-96879652D01*
X137432987Y-96665987D01*
X137646652Y-96490637D01*
X137890421Y-96360340D01*
X138065018Y-96307377D01*
X138154925Y-96280104D01*
X138361071Y-96259800D01*
X138498929Y-96259800D01*
X138705075Y-96280104D01*
X138705075Y-96280104D01*
G37*
G36*
X122212623Y-95635352D02*
X122212626Y-95635353D01*
X122212625Y-95635353D01*
X122395191Y-95710974D01*
X122559503Y-95820764D01*
X122699236Y-95960497D01*
X122809026Y-96124809D01*
X122864941Y-96259800D01*
X122884648Y-96307377D01*
X122923200Y-96501193D01*
X122923200Y-96698807D01*
X122884648Y-96892623D01*
X122884647Y-96892625D01*
X122809026Y-97075191D01*
X122699236Y-97239503D01*
X122559503Y-97379236D01*
X122395191Y-97489026D01*
X122235945Y-97554988D01*
X122212623Y-97564648D01*
X122018807Y-97603200D01*
X121821193Y-97603200D01*
X121627377Y-97564648D01*
X121604055Y-97554988D01*
X121444809Y-97489026D01*
X121280497Y-97379236D01*
X121140764Y-97239503D01*
X121030974Y-97075191D01*
X120955353Y-96892625D01*
X120955352Y-96892623D01*
X120916800Y-96698807D01*
X120916800Y-96501193D01*
X120955352Y-96307377D01*
X120975059Y-96259800D01*
X121030974Y-96124809D01*
X121140764Y-95960497D01*
X121280497Y-95820764D01*
X121444809Y-95710974D01*
X121627375Y-95635353D01*
X121627374Y-95635353D01*
X121627377Y-95635352D01*
X121821193Y-95596800D01*
X122018807Y-95596800D01*
X122212623Y-95635352D01*
X122212623Y-95635352D01*
G37*
G36*
X166391075Y-91835104D02*
X166655579Y-91915340D01*
X166899348Y-92045637D01*
X167113013Y-92220987D01*
X167288363Y-92434652D01*
X167418660Y-92678421D01*
X167498896Y-92942925D01*
X167525989Y-93218000D01*
X167498896Y-93493075D01*
X167418660Y-93757579D01*
X167288363Y-94001348D01*
X167113013Y-94215013D01*
X166899348Y-94390363D01*
X166655579Y-94520660D01*
X166655576Y-94520661D01*
X166391075Y-94600896D01*
X166184929Y-94621200D01*
X166047071Y-94621200D01*
X165840925Y-94600896D01*
X165576424Y-94520661D01*
X165576421Y-94520660D01*
X165332652Y-94390363D01*
X165118987Y-94215013D01*
X164943637Y-94001348D01*
X164813340Y-93757579D01*
X164733104Y-93493075D01*
X164706011Y-93218000D01*
X164733104Y-92942925D01*
X164813340Y-92678421D01*
X164943637Y-92434652D01*
X165118987Y-92220987D01*
X165332652Y-92045637D01*
X165576421Y-91915340D01*
X165840925Y-91835104D01*
X166047071Y-91814800D01*
X166184929Y-91814800D01*
X166391075Y-91835104D01*
X166391075Y-91835104D01*
G37*
G36*
X179056276Y-91835104D02*
X179225299Y-91868725D01*
X179480664Y-91974500D01*
X179710488Y-92128064D01*
X179905936Y-92323512D01*
X180059500Y-92553336D01*
X180165275Y-92808701D01*
X180165275Y-92808702D01*
X180219200Y-93079797D01*
X180219200Y-93356203D01*
X180199844Y-93453509D01*
X180165275Y-93627299D01*
X180059500Y-93882664D01*
X179905936Y-94112488D01*
X179710488Y-94307936D01*
X179480664Y-94461500D01*
X179225299Y-94567275D01*
X179089751Y-94594237D01*
X178954203Y-94621200D01*
X178677797Y-94621200D01*
X178542249Y-94594237D01*
X178406701Y-94567275D01*
X178151336Y-94461500D01*
X177921512Y-94307936D01*
X177726064Y-94112488D01*
X177572500Y-93882664D01*
X177466725Y-93627299D01*
X177432156Y-93453509D01*
X177412800Y-93356203D01*
X177412800Y-93079797D01*
X177466725Y-92808702D01*
X177466725Y-92808701D01*
X177572500Y-92553336D01*
X177726064Y-92323512D01*
X177921512Y-92128064D01*
X178151336Y-91974500D01*
X178406701Y-91868725D01*
X178575724Y-91835104D01*
X178677797Y-91814800D01*
X178954203Y-91814800D01*
X179056276Y-91835104D01*
X179056276Y-91835104D01*
G37*
G36*
X135033160Y-92006573D02*
X135229627Y-92045652D01*
X135369546Y-92103609D01*
X135451508Y-92137559D01*
X135451509Y-92137560D01*
X135651193Y-92270984D01*
X135821016Y-92440807D01*
X135896205Y-92553336D01*
X135954441Y-92640492D01*
X135970153Y-92678424D01*
X136046348Y-92862373D01*
X136083175Y-93047518D01*
X136093200Y-93097919D01*
X136093200Y-93338081D01*
X136089595Y-93356203D01*
X136046348Y-93573627D01*
X135988391Y-93713546D01*
X135954441Y-93795508D01*
X135954440Y-93795509D01*
X135821016Y-93995193D01*
X135651193Y-94165016D01*
X135518070Y-94253965D01*
X135451508Y-94298441D01*
X135369546Y-94332391D01*
X135229627Y-94390348D01*
X135033160Y-94429427D01*
X134994081Y-94437200D01*
X134753919Y-94437200D01*
X134714840Y-94429427D01*
X134518373Y-94390348D01*
X134378454Y-94332391D01*
X134296492Y-94298441D01*
X134229930Y-94253965D01*
X134096807Y-94165016D01*
X133926984Y-93995193D01*
X133793560Y-93795509D01*
X133793559Y-93795508D01*
X133759609Y-93713546D01*
X133701652Y-93573627D01*
X133677760Y-93453509D01*
X133670533Y-93429685D01*
X133658797Y-93407728D01*
X133643003Y-93388483D01*
X133623758Y-93372689D01*
X133601801Y-93360952D01*
X133577977Y-93353725D01*
X133553200Y-93351285D01*
X133528424Y-93353725D01*
X133504600Y-93360952D01*
X133482643Y-93372688D01*
X133463398Y-93388482D01*
X133447604Y-93407727D01*
X133435867Y-93429684D01*
X133428640Y-93453508D01*
X133426200Y-93478285D01*
X133426200Y-94310200D01*
X131241800Y-94310200D01*
X131241800Y-92125800D01*
X133426200Y-92125800D01*
X133426200Y-92957715D01*
X133428640Y-92982491D01*
X133435867Y-93006316D01*
X133447603Y-93028272D01*
X133463397Y-93047518D01*
X133482643Y-93063312D01*
X133504599Y-93075048D01*
X133528424Y-93082275D01*
X133553200Y-93084715D01*
X133577976Y-93082275D01*
X133601801Y-93075048D01*
X133623757Y-93063312D01*
X133643003Y-93047518D01*
X133658797Y-93028272D01*
X133670533Y-93006316D01*
X133677760Y-92982491D01*
X133701652Y-92862373D01*
X133777847Y-92678424D01*
X133793559Y-92640492D01*
X133851795Y-92553336D01*
X133926984Y-92440807D01*
X134096807Y-92270984D01*
X134296491Y-92137560D01*
X134296492Y-92137559D01*
X134378454Y-92103609D01*
X134518373Y-92045652D01*
X134714840Y-92006573D01*
X134753919Y-91998800D01*
X134994081Y-91998800D01*
X135033160Y-92006573D01*
X135033160Y-92006573D01*
G37*
G36*
X166356276Y-87136104D02*
X166525299Y-87169725D01*
X166780664Y-87275500D01*
X167010488Y-87429064D01*
X167205936Y-87624512D01*
X167359500Y-87854336D01*
X167465275Y-88109701D01*
X167519200Y-88380798D01*
X167519200Y-88657202D01*
X167465275Y-88928299D01*
X167359500Y-89183664D01*
X167205936Y-89413488D01*
X167010488Y-89608936D01*
X166780664Y-89762500D01*
X166525299Y-89868275D01*
X166389750Y-89895238D01*
X166254203Y-89922200D01*
X165977797Y-89922200D01*
X165842250Y-89895238D01*
X165706701Y-89868275D01*
X165451336Y-89762500D01*
X165221512Y-89608936D01*
X165026064Y-89413488D01*
X164872500Y-89183664D01*
X164766725Y-88928299D01*
X164712800Y-88657202D01*
X164712800Y-88380798D01*
X164766725Y-88109701D01*
X164872500Y-87854336D01*
X165026064Y-87624512D01*
X165221512Y-87429064D01*
X165451336Y-87275500D01*
X165706701Y-87169725D01*
X165875724Y-87136104D01*
X165977797Y-87115800D01*
X166254203Y-87115800D01*
X166356276Y-87136104D01*
X166356276Y-87136104D01*
G37*
G36*
X179091075Y-87136104D02*
X179355579Y-87216340D01*
X179599348Y-87346637D01*
X179813013Y-87521987D01*
X179988363Y-87735652D01*
X180118660Y-87979421D01*
X180198896Y-88243925D01*
X180225989Y-88519000D01*
X180198896Y-88794075D01*
X180118660Y-89058579D01*
X179988363Y-89302348D01*
X179813013Y-89516013D01*
X179599348Y-89691363D01*
X179355579Y-89821660D01*
X179091075Y-89901896D01*
X178884929Y-89922200D01*
X178747071Y-89922200D01*
X178540925Y-89901896D01*
X178276421Y-89821660D01*
X178032652Y-89691363D01*
X177818987Y-89516013D01*
X177643637Y-89302348D01*
X177513340Y-89058579D01*
X177433104Y-88794075D01*
X177406011Y-88519000D01*
X177433104Y-88243925D01*
X177513340Y-87979421D01*
X177643637Y-87735652D01*
X177818987Y-87521987D01*
X178032652Y-87346637D01*
X178276421Y-87216340D01*
X178540925Y-87136104D01*
X178747071Y-87115800D01*
X178884929Y-87115800D01*
X179091075Y-87136104D01*
X179091075Y-87136104D01*
G37*
G36*
X135911075Y-87085304D02*
X136175579Y-87165540D01*
X136419348Y-87295837D01*
X136633013Y-87471187D01*
X136808363Y-87684852D01*
X136938660Y-87928621D01*
X137018896Y-88193125D01*
X137045989Y-88468200D01*
X137018896Y-88743275D01*
X136938660Y-89007779D01*
X136808363Y-89251548D01*
X136633013Y-89465213D01*
X136419348Y-89640563D01*
X136175579Y-89770860D01*
X136175576Y-89770861D01*
X135911075Y-89851096D01*
X135704929Y-89871400D01*
X135567071Y-89871400D01*
X135360925Y-89851096D01*
X135096424Y-89770861D01*
X135096421Y-89770860D01*
X134852652Y-89640563D01*
X134638987Y-89465213D01*
X134463637Y-89251548D01*
X134333340Y-89007779D01*
X134253104Y-88743275D01*
X134226011Y-88468200D01*
X134253104Y-88193125D01*
X134333340Y-87928621D01*
X134463637Y-87684852D01*
X134638987Y-87471187D01*
X134852652Y-87295837D01*
X135096421Y-87165540D01*
X135360925Y-87085304D01*
X135567071Y-87065000D01*
X135704929Y-87065000D01*
X135911075Y-87085304D01*
X135911075Y-87085304D01*
G37*
G36*
X123176276Y-87085304D02*
X123345299Y-87118925D01*
X123600664Y-87224700D01*
X123830488Y-87378264D01*
X124025936Y-87573712D01*
X124179500Y-87803536D01*
X124285275Y-88058901D01*
X124339200Y-88329998D01*
X124339200Y-88606402D01*
X124285275Y-88877499D01*
X124179500Y-89132864D01*
X124025936Y-89362688D01*
X123830488Y-89558136D01*
X123600664Y-89711700D01*
X123345299Y-89817475D01*
X123209751Y-89844437D01*
X123074203Y-89871400D01*
X122797797Y-89871400D01*
X122662249Y-89844437D01*
X122526701Y-89817475D01*
X122271336Y-89711700D01*
X122041512Y-89558136D01*
X121846064Y-89362688D01*
X121692500Y-89132864D01*
X121586725Y-88877499D01*
X121532800Y-88606402D01*
X121532800Y-88329998D01*
X121586725Y-88058901D01*
X121692500Y-87803536D01*
X121846064Y-87573712D01*
X122041512Y-87378264D01*
X122271336Y-87224700D01*
X122526701Y-87118925D01*
X122695724Y-87085304D01*
X122797797Y-87065000D01*
X123074203Y-87065000D01*
X123176276Y-87085304D01*
X123176276Y-87085304D01*
G37*
G36*
X145756200Y-87463200D02*
X143549800Y-87463200D01*
X143549800Y-85256800D01*
X145756200Y-85256800D01*
X145756200Y-87463200D01*
X145756200Y-87463200D01*
G37*
G36*
X147514792Y-85299195D02*
X147715561Y-85382357D01*
X147896249Y-85503089D01*
X148049911Y-85656751D01*
X148170643Y-85837439D01*
X148253805Y-86038208D01*
X148296200Y-86251344D01*
X148296200Y-86468656D01*
X148253805Y-86681792D01*
X148170643Y-86882561D01*
X148049911Y-87063249D01*
X147896249Y-87216911D01*
X147715561Y-87337643D01*
X147514792Y-87420805D01*
X147301656Y-87463200D01*
X147084344Y-87463200D01*
X146871208Y-87420805D01*
X146670439Y-87337643D01*
X146489751Y-87216911D01*
X146336089Y-87063249D01*
X146215357Y-86882561D01*
X146132195Y-86681792D01*
X146089800Y-86468656D01*
X146089800Y-86251344D01*
X146132195Y-86038208D01*
X146215357Y-85837439D01*
X146336089Y-85656751D01*
X146489751Y-85503089D01*
X146670439Y-85382357D01*
X146871208Y-85299195D01*
X147084344Y-85256800D01*
X147301656Y-85256800D01*
X147514792Y-85299195D01*
X147514792Y-85299195D01*
G37*
G36*
X176292992Y-82759195D02*
X176493761Y-82842357D01*
X176674449Y-82963089D01*
X176828111Y-83116751D01*
X176948843Y-83297439D01*
X177032005Y-83498208D01*
X177074400Y-83711344D01*
X177074400Y-83928656D01*
X177032005Y-84141792D01*
X176948843Y-84342561D01*
X176828111Y-84523249D01*
X176674449Y-84676911D01*
X176493761Y-84797643D01*
X176292992Y-84880805D01*
X176079856Y-84923200D01*
X175862544Y-84923200D01*
X175649408Y-84880805D01*
X175448639Y-84797643D01*
X175267951Y-84676911D01*
X175114289Y-84523249D01*
X174993557Y-84342561D01*
X174910395Y-84141792D01*
X174868000Y-83928656D01*
X174868000Y-83711344D01*
X174910395Y-83498208D01*
X174993557Y-83297439D01*
X175114289Y-83116751D01*
X175267951Y-82963089D01*
X175448639Y-82842357D01*
X175649408Y-82759195D01*
X175862544Y-82716800D01*
X176079856Y-82716800D01*
X176292992Y-82759195D01*
X176292992Y-82759195D01*
G37*
G36*
X174534400Y-84923200D02*
X172328000Y-84923200D01*
X172328000Y-82716800D01*
X174534400Y-82716800D01*
X174534400Y-84923200D01*
X174534400Y-84923200D01*
G37*
G36*
X127829792Y-82632195D02*
X128030561Y-82715357D01*
X128211249Y-82836089D01*
X128364911Y-82989751D01*
X128485643Y-83170439D01*
X128568805Y-83371208D01*
X128611200Y-83584344D01*
X128611200Y-83801656D01*
X128568805Y-84014792D01*
X128485643Y-84215561D01*
X128364911Y-84396249D01*
X128211249Y-84549911D01*
X128030561Y-84670643D01*
X127829792Y-84753805D01*
X127616656Y-84796200D01*
X127399344Y-84796200D01*
X127186208Y-84753805D01*
X126985439Y-84670643D01*
X126804751Y-84549911D01*
X126651089Y-84396249D01*
X126530357Y-84215561D01*
X126447195Y-84014792D01*
X126404800Y-83801656D01*
X126404800Y-83584344D01*
X126447195Y-83371208D01*
X126530357Y-83170439D01*
X126651089Y-82989751D01*
X126804751Y-82836089D01*
X126985439Y-82715357D01*
X127186208Y-82632195D01*
X127399344Y-82589800D01*
X127616656Y-82589800D01*
X127829792Y-82632195D01*
X127829792Y-82632195D01*
G37*
G36*
X126071200Y-84796200D02*
X123864800Y-84796200D01*
X123864800Y-82589800D01*
X126071200Y-82589800D01*
X126071200Y-84796200D01*
X126071200Y-84796200D01*
G37*
G36*
X170963075Y-80659104D02*
X171227579Y-80739340D01*
X171471348Y-80869637D01*
X171685013Y-81044987D01*
X171860363Y-81258652D01*
X171990660Y-81502421D01*
X172070896Y-81766925D01*
X172097989Y-82042000D01*
X172070896Y-82317075D01*
X171990660Y-82581579D01*
X171860363Y-82825348D01*
X171685013Y-83039013D01*
X171471348Y-83214363D01*
X171227579Y-83344660D01*
X170963075Y-83424896D01*
X170756929Y-83445200D01*
X170619071Y-83445200D01*
X170412925Y-83424896D01*
X170148421Y-83344660D01*
X169904652Y-83214363D01*
X169690987Y-83039013D01*
X169515637Y-82825348D01*
X169385340Y-82581579D01*
X169305104Y-82317075D01*
X169278011Y-82042000D01*
X169305104Y-81766925D01*
X169385340Y-81502421D01*
X169515637Y-81258652D01*
X169690987Y-81044987D01*
X169904652Y-80869637D01*
X170148421Y-80739340D01*
X170412925Y-80659104D01*
X170619071Y-80638800D01*
X170756929Y-80638800D01*
X170963075Y-80659104D01*
X170963075Y-80659104D01*
G37*
G36*
X158228276Y-80659104D02*
X158397299Y-80692725D01*
X158652664Y-80798500D01*
X158882488Y-80952064D01*
X159077936Y-81147512D01*
X159231500Y-81377336D01*
X159337275Y-81632701D01*
X159391200Y-81903798D01*
X159391200Y-82180202D01*
X159337275Y-82451299D01*
X159231500Y-82706664D01*
X159077936Y-82936488D01*
X158882488Y-83131936D01*
X158652664Y-83285500D01*
X158397299Y-83391275D01*
X158261750Y-83418238D01*
X158126203Y-83445200D01*
X157849797Y-83445200D01*
X157714250Y-83418238D01*
X157578701Y-83391275D01*
X157323336Y-83285500D01*
X157093512Y-83131936D01*
X156898064Y-82936488D01*
X156744500Y-82706664D01*
X156638725Y-82451299D01*
X156584800Y-82180202D01*
X156584800Y-81903798D01*
X156638725Y-81632701D01*
X156744500Y-81377336D01*
X156898064Y-81147512D01*
X157093512Y-80952064D01*
X157323336Y-80798500D01*
X157578701Y-80692725D01*
X157747724Y-80659104D01*
X157849797Y-80638800D01*
X158126203Y-80638800D01*
X158228276Y-80659104D01*
X158228276Y-80659104D01*
G37*
G36*
X142226276Y-79897104D02*
X142395299Y-79930725D01*
X142650664Y-80036500D01*
X142880488Y-80190064D01*
X143075936Y-80385512D01*
X143229500Y-80615336D01*
X143335275Y-80870701D01*
X143389200Y-81141798D01*
X143389200Y-81418202D01*
X143335275Y-81689299D01*
X143229500Y-81944664D01*
X143075936Y-82174488D01*
X142880488Y-82369936D01*
X142650664Y-82523500D01*
X142395299Y-82629275D01*
X142259750Y-82656238D01*
X142124203Y-82683200D01*
X141847797Y-82683200D01*
X141712250Y-82656238D01*
X141576701Y-82629275D01*
X141321336Y-82523500D01*
X141091512Y-82369936D01*
X140896064Y-82174488D01*
X140742500Y-81944664D01*
X140636725Y-81689299D01*
X140582800Y-81418202D01*
X140582800Y-81141798D01*
X140636725Y-80870701D01*
X140742500Y-80615336D01*
X140896064Y-80385512D01*
X141091512Y-80190064D01*
X141321336Y-80036500D01*
X141576701Y-79930725D01*
X141745724Y-79897104D01*
X141847797Y-79876800D01*
X142124203Y-79876800D01*
X142226276Y-79897104D01*
X142226276Y-79897104D01*
G37*
G36*
X154961075Y-79897104D02*
X155225579Y-79977340D01*
X155469348Y-80107637D01*
X155683013Y-80282987D01*
X155858363Y-80496652D01*
X155988660Y-80740421D01*
X156068896Y-81004925D01*
X156095989Y-81280000D01*
X156068896Y-81555075D01*
X155988660Y-81819579D01*
X155858363Y-82063348D01*
X155683013Y-82277013D01*
X155469348Y-82452363D01*
X155225579Y-82582660D01*
X155225576Y-82582661D01*
X155071909Y-82629275D01*
X154961075Y-82662896D01*
X154754929Y-82683200D01*
X154617071Y-82683200D01*
X154410925Y-82662896D01*
X154300091Y-82629275D01*
X154146424Y-82582661D01*
X154146421Y-82582660D01*
X153902652Y-82452363D01*
X153688987Y-82277013D01*
X153513637Y-82063348D01*
X153383340Y-81819579D01*
X153303104Y-81555075D01*
X153276011Y-81280000D01*
X153303104Y-81004925D01*
X153383340Y-80740421D01*
X153513637Y-80496652D01*
X153688987Y-80282987D01*
X153902652Y-80107637D01*
X154146421Y-79977340D01*
X154410925Y-79897104D01*
X154617071Y-79876800D01*
X154754929Y-79876800D01*
X154961075Y-79897104D01*
X154961075Y-79897104D01*
G37*
G36*
X133896623Y-79045352D02*
X133896626Y-79045353D01*
X133896625Y-79045353D01*
X134079191Y-79120974D01*
X134243503Y-79230764D01*
X134383236Y-79370497D01*
X134493026Y-79534809D01*
X134534609Y-79635200D01*
X134568648Y-79717377D01*
X134607200Y-79911193D01*
X134607200Y-80108807D01*
X134568648Y-80302623D01*
X134568647Y-80302625D01*
X134493026Y-80485191D01*
X134383236Y-80649503D01*
X134243503Y-80789236D01*
X134079191Y-80899026D01*
X133951145Y-80952064D01*
X133896623Y-80974648D01*
X133702807Y-81013200D01*
X133505193Y-81013200D01*
X133311377Y-80974648D01*
X133256855Y-80952064D01*
X133128809Y-80899026D01*
X132964497Y-80789236D01*
X132824764Y-80649503D01*
X132714974Y-80485191D01*
X132639353Y-80302625D01*
X132639352Y-80302623D01*
X132600800Y-80108807D01*
X132600800Y-79911193D01*
X132639352Y-79717377D01*
X132673391Y-79635200D01*
X132714974Y-79534809D01*
X132824764Y-79370497D01*
X132964497Y-79230764D01*
X133128809Y-79120974D01*
X133311375Y-79045353D01*
X133311374Y-79045353D01*
X133311377Y-79045352D01*
X133505193Y-79006800D01*
X133702807Y-79006800D01*
X133896623Y-79045352D01*
X133896623Y-79045352D01*
G37*
G36*
X138896623Y-79045352D02*
X138896626Y-79045353D01*
X138896625Y-79045353D01*
X139079191Y-79120974D01*
X139243503Y-79230764D01*
X139383236Y-79370497D01*
X139493026Y-79534809D01*
X139534609Y-79635200D01*
X139568648Y-79717377D01*
X139607200Y-79911193D01*
X139607200Y-80108807D01*
X139568648Y-80302623D01*
X139568647Y-80302625D01*
X139493026Y-80485191D01*
X139383236Y-80649503D01*
X139243503Y-80789236D01*
X139079191Y-80899026D01*
X138951145Y-80952064D01*
X138896623Y-80974648D01*
X138702807Y-81013200D01*
X138505193Y-81013200D01*
X138311377Y-80974648D01*
X138256855Y-80952064D01*
X138128809Y-80899026D01*
X137964497Y-80789236D01*
X137824764Y-80649503D01*
X137714974Y-80485191D01*
X137639353Y-80302625D01*
X137639352Y-80302623D01*
X137600800Y-80108807D01*
X137600800Y-79911193D01*
X137639352Y-79717377D01*
X137673391Y-79635200D01*
X137714974Y-79534809D01*
X137824764Y-79370497D01*
X137964497Y-79230764D01*
X138128809Y-79120974D01*
X138311375Y-79045353D01*
X138311374Y-79045353D01*
X138311377Y-79045352D01*
X138505193Y-79006800D01*
X138702807Y-79006800D01*
X138896623Y-79045352D01*
X138896623Y-79045352D01*
G37*
G36*
X127273751Y-76855763D02*
X127409299Y-76882725D01*
X127664664Y-76988500D01*
X127894488Y-77142064D01*
X128089936Y-77337512D01*
X128243500Y-77567336D01*
X128349275Y-77822701D01*
X128349275Y-77822702D01*
X128395324Y-78054200D01*
X128403200Y-78093798D01*
X128403200Y-78370202D01*
X128349275Y-78641299D01*
X128243500Y-78896664D01*
X128089936Y-79126488D01*
X127894488Y-79321936D01*
X127664664Y-79475500D01*
X127409299Y-79581275D01*
X127273751Y-79608237D01*
X127138203Y-79635200D01*
X126861797Y-79635200D01*
X126726249Y-79608237D01*
X126590701Y-79581275D01*
X126335336Y-79475500D01*
X126105512Y-79321936D01*
X125910064Y-79126488D01*
X125756500Y-78896664D01*
X125650725Y-78641299D01*
X125596800Y-78370202D01*
X125596800Y-78093798D01*
X125604677Y-78054200D01*
X125650725Y-77822702D01*
X125650725Y-77822701D01*
X125756500Y-77567336D01*
X125910064Y-77337512D01*
X126105512Y-77142064D01*
X126335336Y-76988500D01*
X126590701Y-76882725D01*
X126726249Y-76855763D01*
X126861797Y-76828800D01*
X127138203Y-76828800D01*
X127273751Y-76855763D01*
X127273751Y-76855763D01*
G37*
G36*
X122701751Y-76855763D02*
X122837299Y-76882725D01*
X123092664Y-76988500D01*
X123322488Y-77142064D01*
X123517936Y-77337512D01*
X123671500Y-77567336D01*
X123777275Y-77822701D01*
X123777275Y-77822702D01*
X123823324Y-78054200D01*
X123831200Y-78093798D01*
X123831200Y-78370202D01*
X123777275Y-78641299D01*
X123671500Y-78896664D01*
X123517936Y-79126488D01*
X123322488Y-79321936D01*
X123092664Y-79475500D01*
X122837299Y-79581275D01*
X122701751Y-79608237D01*
X122566203Y-79635200D01*
X122289797Y-79635200D01*
X122154249Y-79608237D01*
X122018701Y-79581275D01*
X121763336Y-79475500D01*
X121533512Y-79321936D01*
X121338064Y-79126488D01*
X121184500Y-78896664D01*
X121078725Y-78641299D01*
X121024800Y-78370202D01*
X121024800Y-78093798D01*
X121032677Y-78054200D01*
X121078725Y-77822702D01*
X121078725Y-77822701D01*
X121184500Y-77567336D01*
X121338064Y-77337512D01*
X121533512Y-77142064D01*
X121763336Y-76988500D01*
X122018701Y-76882725D01*
X122154249Y-76855763D01*
X122289797Y-76828800D01*
X122566203Y-76828800D01*
X122701751Y-76855763D01*
X122701751Y-76855763D01*
G37*
G36*
X163989160Y-75623573D02*
X164185627Y-75662652D01*
X164307171Y-75712998D01*
X164407508Y-75754559D01*
X164407509Y-75754560D01*
X164607193Y-75887984D01*
X164777016Y-76057807D01*
X164865965Y-76190930D01*
X164910441Y-76257492D01*
X164934592Y-76315797D01*
X165002348Y-76479373D01*
X165039175Y-76664518D01*
X165049200Y-76714919D01*
X165049200Y-76955081D01*
X165046088Y-76970725D01*
X165002348Y-77190627D01*
X164976435Y-77253185D01*
X164910441Y-77412508D01*
X164910440Y-77412509D01*
X164777016Y-77612193D01*
X164607193Y-77782016D01*
X164494672Y-77857200D01*
X164407508Y-77915441D01*
X164325546Y-77949391D01*
X164185627Y-78007348D01*
X163989160Y-78046427D01*
X163950081Y-78054200D01*
X163709919Y-78054200D01*
X163670840Y-78046427D01*
X163474373Y-78007348D01*
X163334454Y-77949391D01*
X163252492Y-77915441D01*
X163165328Y-77857200D01*
X163052807Y-77782016D01*
X162882984Y-77612193D01*
X162749560Y-77412509D01*
X162749559Y-77412508D01*
X162683565Y-77253185D01*
X162657652Y-77190627D01*
X162633760Y-77070509D01*
X162626533Y-77046685D01*
X162614797Y-77024728D01*
X162599003Y-77005483D01*
X162579758Y-76989689D01*
X162557801Y-76977952D01*
X162533977Y-76970725D01*
X162509200Y-76968285D01*
X162484424Y-76970725D01*
X162460600Y-76977952D01*
X162438643Y-76989688D01*
X162419398Y-77005482D01*
X162403604Y-77024727D01*
X162391867Y-77046684D01*
X162384640Y-77070508D01*
X162382200Y-77095285D01*
X162382200Y-77927200D01*
X160197800Y-77927200D01*
X160197800Y-75742800D01*
X162382200Y-75742800D01*
X162382200Y-76574715D01*
X162384640Y-76599491D01*
X162391867Y-76623316D01*
X162403603Y-76645272D01*
X162419397Y-76664518D01*
X162438643Y-76680312D01*
X162460599Y-76692048D01*
X162484424Y-76699275D01*
X162509200Y-76701715D01*
X162533976Y-76699275D01*
X162557801Y-76692048D01*
X162579757Y-76680312D01*
X162599003Y-76664518D01*
X162614797Y-76645272D01*
X162626533Y-76623316D01*
X162633760Y-76599491D01*
X162657652Y-76479373D01*
X162725408Y-76315797D01*
X162749559Y-76257492D01*
X162794035Y-76190930D01*
X162882984Y-76057807D01*
X163052807Y-75887984D01*
X163252491Y-75754560D01*
X163252492Y-75754559D01*
X163352829Y-75712998D01*
X163474373Y-75662652D01*
X163670840Y-75623573D01*
X163709919Y-75615800D01*
X163950081Y-75615800D01*
X163989160Y-75623573D01*
X163989160Y-75623573D01*
G37*
G36*
X149625751Y-75077763D02*
X149761299Y-75104725D01*
X150016664Y-75210500D01*
X150246488Y-75364064D01*
X150441936Y-75559512D01*
X150595500Y-75789336D01*
X150701275Y-76044701D01*
X150755200Y-76315798D01*
X150755200Y-76592202D01*
X150701275Y-76863299D01*
X150595500Y-77118664D01*
X150441936Y-77348488D01*
X150246488Y-77543936D01*
X150016664Y-77697500D01*
X149761299Y-77803275D01*
X149625751Y-77830237D01*
X149490203Y-77857200D01*
X149213797Y-77857200D01*
X149078249Y-77830237D01*
X148942701Y-77803275D01*
X148687336Y-77697500D01*
X148457512Y-77543936D01*
X148262064Y-77348488D01*
X148108500Y-77118664D01*
X148002725Y-76863299D01*
X147948800Y-76592202D01*
X147948800Y-76315798D01*
X148002725Y-76044701D01*
X148108500Y-75789336D01*
X148262064Y-75559512D01*
X148457512Y-75364064D01*
X148687336Y-75210500D01*
X148942701Y-75104725D01*
X149078249Y-75077763D01*
X149213797Y-75050800D01*
X149490203Y-75050800D01*
X149625751Y-75077763D01*
X149625751Y-75077763D01*
G37*
G36*
X145053751Y-75077763D02*
X145189299Y-75104725D01*
X145444664Y-75210500D01*
X145674488Y-75364064D01*
X145869936Y-75559512D01*
X146023500Y-75789336D01*
X146129275Y-76044701D01*
X146183200Y-76315798D01*
X146183200Y-76592202D01*
X146129275Y-76863299D01*
X146023500Y-77118664D01*
X145869936Y-77348488D01*
X145674488Y-77543936D01*
X145444664Y-77697500D01*
X145189299Y-77803275D01*
X145053751Y-77830237D01*
X144918203Y-77857200D01*
X144641797Y-77857200D01*
X144506249Y-77830237D01*
X144370701Y-77803275D01*
X144115336Y-77697500D01*
X143885512Y-77543936D01*
X143690064Y-77348488D01*
X143536500Y-77118664D01*
X143430725Y-76863299D01*
X143376800Y-76592202D01*
X143376800Y-76315798D01*
X143430725Y-76044701D01*
X143536500Y-75789336D01*
X143690064Y-75559512D01*
X143885512Y-75364064D01*
X144115336Y-75210500D01*
X144370701Y-75104725D01*
X144506249Y-75077763D01*
X144641797Y-75050800D01*
X144918203Y-75050800D01*
X145053751Y-75077763D01*
X145053751Y-75077763D01*
G37*
G36*
X172794200Y-77290200D02*
X170867800Y-77290200D01*
X170867800Y-75363800D01*
X172794200Y-75363800D01*
X172794200Y-77290200D01*
X172794200Y-77290200D01*
G37*
G36*
X174651955Y-75400815D02*
X174827247Y-75473423D01*
X174985005Y-75578833D01*
X175119167Y-75712995D01*
X175224577Y-75870753D01*
X175297185Y-76046045D01*
X175334200Y-76232133D01*
X175334200Y-76421867D01*
X175297185Y-76607955D01*
X175224577Y-76783247D01*
X175119167Y-76941005D01*
X174985005Y-77075167D01*
X174827247Y-77180577D01*
X174651955Y-77253185D01*
X174465867Y-77290200D01*
X174276133Y-77290200D01*
X174090045Y-77253185D01*
X173914753Y-77180577D01*
X173756995Y-77075167D01*
X173622833Y-76941005D01*
X173517423Y-76783247D01*
X173444815Y-76607955D01*
X173407800Y-76421867D01*
X173407800Y-76232133D01*
X173444815Y-76046045D01*
X173517423Y-75870753D01*
X173622833Y-75712995D01*
X173756995Y-75578833D01*
X173914753Y-75473423D01*
X174090045Y-75400815D01*
X174276133Y-75363800D01*
X174465867Y-75363800D01*
X174651955Y-75400815D01*
X174651955Y-75400815D01*
G37*
G36*
X177191955Y-75400815D02*
X177367247Y-75473423D01*
X177525005Y-75578833D01*
X177659167Y-75712995D01*
X177764577Y-75870753D01*
X177837185Y-76046045D01*
X177874200Y-76232133D01*
X177874200Y-76421867D01*
X177837185Y-76607955D01*
X177764577Y-76783247D01*
X177659167Y-76941005D01*
X177525005Y-77075167D01*
X177367247Y-77180577D01*
X177191955Y-77253185D01*
X177005867Y-77290200D01*
X176816133Y-77290200D01*
X176630045Y-77253185D01*
X176454753Y-77180577D01*
X176296995Y-77075167D01*
X176162833Y-76941005D01*
X176057423Y-76783247D01*
X175984815Y-76607955D01*
X175947800Y-76421867D01*
X175947800Y-76232133D01*
X175984815Y-76046045D01*
X176057423Y-75870753D01*
X176162833Y-75712995D01*
X176296995Y-75578833D01*
X176454753Y-75473423D01*
X176630045Y-75400815D01*
X176816133Y-75363800D01*
X177005867Y-75363800D01*
X177191955Y-75400815D01*
X177191955Y-75400815D01*
G37*
G36*
X140409200Y-75385200D02*
X138482800Y-75385200D01*
X138482800Y-73458800D01*
X140409200Y-73458800D01*
X140409200Y-75385200D01*
X140409200Y-75385200D01*
G37*
G36*
X133805200Y-75385200D02*
X131878800Y-75385200D01*
X131878800Y-73458800D01*
X133805200Y-73458800D01*
X133805200Y-75385200D01*
X133805200Y-75385200D01*
G37*
G36*
X166356276Y-70753104D02*
X166525299Y-70786725D01*
X166780664Y-70892500D01*
X167010488Y-71046064D01*
X167205936Y-71241512D01*
X167359500Y-71471336D01*
X167465275Y-71726701D01*
X167519200Y-71997798D01*
X167519200Y-72274202D01*
X167465275Y-72545299D01*
X167359500Y-72800664D01*
X167205936Y-73030488D01*
X167010488Y-73225936D01*
X166780664Y-73379500D01*
X166525299Y-73485275D01*
X166389751Y-73512237D01*
X166254203Y-73539200D01*
X165977797Y-73539200D01*
X165842249Y-73512237D01*
X165706701Y-73485275D01*
X165451336Y-73379500D01*
X165221512Y-73225936D01*
X165026064Y-73030488D01*
X164872500Y-72800664D01*
X164766725Y-72545299D01*
X164712800Y-72274202D01*
X164712800Y-71997798D01*
X164766725Y-71726701D01*
X164872500Y-71471336D01*
X165026064Y-71241512D01*
X165221512Y-71046064D01*
X165451336Y-70892500D01*
X165706701Y-70786725D01*
X165875724Y-70753104D01*
X165977797Y-70732800D01*
X166254203Y-70732800D01*
X166356276Y-70753104D01*
X166356276Y-70753104D01*
G37*
G36*
X153691075Y-70753104D02*
X153955579Y-70833340D01*
X154199348Y-70963637D01*
X154413013Y-71138987D01*
X154588363Y-71352652D01*
X154718660Y-71596421D01*
X154798896Y-71860925D01*
X154825989Y-72136000D01*
X154798896Y-72411075D01*
X154718660Y-72675579D01*
X154588363Y-72919348D01*
X154413013Y-73133013D01*
X154199348Y-73308363D01*
X153955579Y-73438660D01*
X153691075Y-73518896D01*
X153484929Y-73539200D01*
X153347071Y-73539200D01*
X153140925Y-73518896D01*
X152876421Y-73438660D01*
X152632652Y-73308363D01*
X152418987Y-73133013D01*
X152243637Y-72919348D01*
X152113340Y-72675579D01*
X152033104Y-72411075D01*
X152006011Y-72136000D01*
X152033104Y-71860925D01*
X152113340Y-71596421D01*
X152243637Y-71352652D01*
X152418987Y-71138987D01*
X152632652Y-70963637D01*
X152876421Y-70833340D01*
X153140925Y-70753104D01*
X153347071Y-70732800D01*
X153484929Y-70732800D01*
X153691075Y-70753104D01*
X153691075Y-70753104D01*
G37*
G36*
X139726955Y-70955815D02*
X139902247Y-71028423D01*
X140060005Y-71133833D01*
X140194167Y-71267995D01*
X140299577Y-71425753D01*
X140372185Y-71601045D01*
X140409200Y-71787133D01*
X140409200Y-71976867D01*
X140372185Y-72162955D01*
X140299577Y-72338247D01*
X140194167Y-72496005D01*
X140060005Y-72630167D01*
X139902247Y-72735577D01*
X139726955Y-72808185D01*
X139540867Y-72845200D01*
X139351133Y-72845200D01*
X139165045Y-72808185D01*
X138989753Y-72735577D01*
X138831995Y-72630167D01*
X138697833Y-72496005D01*
X138592423Y-72338247D01*
X138519815Y-72162955D01*
X138482800Y-71976867D01*
X138482800Y-71787133D01*
X138519815Y-71601045D01*
X138592423Y-71425753D01*
X138697833Y-71267995D01*
X138831995Y-71133833D01*
X138989753Y-71028423D01*
X139165045Y-70955815D01*
X139351133Y-70918800D01*
X139540867Y-70918800D01*
X139726955Y-70955815D01*
X139726955Y-70955815D01*
G37*
G36*
X133122955Y-70955815D02*
X133298247Y-71028423D01*
X133456005Y-71133833D01*
X133590167Y-71267995D01*
X133695577Y-71425753D01*
X133768185Y-71601045D01*
X133805200Y-71787133D01*
X133805200Y-71976867D01*
X133768185Y-72162955D01*
X133695577Y-72338247D01*
X133590167Y-72496005D01*
X133456005Y-72630167D01*
X133298247Y-72735577D01*
X133122955Y-72808185D01*
X132936867Y-72845200D01*
X132747133Y-72845200D01*
X132561045Y-72808185D01*
X132385753Y-72735577D01*
X132227995Y-72630167D01*
X132093833Y-72496005D01*
X131988423Y-72338247D01*
X131915815Y-72162955D01*
X131878800Y-71976867D01*
X131878800Y-71787133D01*
X131915815Y-71601045D01*
X131988423Y-71425753D01*
X132093833Y-71267995D01*
X132227995Y-71133833D01*
X132385753Y-71028423D01*
X132561045Y-70955815D01*
X132747133Y-70918800D01*
X132936867Y-70918800D01*
X133122955Y-70955815D01*
X133122955Y-70955815D01*
G37*
G36*
X133122955Y-68415815D02*
X133298247Y-68488423D01*
X133456005Y-68593833D01*
X133590167Y-68727995D01*
X133695577Y-68885753D01*
X133768185Y-69061045D01*
X133805200Y-69247133D01*
X133805200Y-69436867D01*
X133768185Y-69622955D01*
X133695577Y-69798247D01*
X133590167Y-69956005D01*
X133456005Y-70090167D01*
X133298247Y-70195577D01*
X133122955Y-70268185D01*
X132936867Y-70305200D01*
X132747133Y-70305200D01*
X132561045Y-70268185D01*
X132385753Y-70195577D01*
X132227995Y-70090167D01*
X132093833Y-69956005D01*
X131988423Y-69798247D01*
X131915815Y-69622955D01*
X131878800Y-69436867D01*
X131878800Y-69247133D01*
X131915815Y-69061045D01*
X131988423Y-68885753D01*
X132093833Y-68727995D01*
X132227995Y-68593833D01*
X132385753Y-68488423D01*
X132561045Y-68415815D01*
X132747133Y-68378800D01*
X132936867Y-68378800D01*
X133122955Y-68415815D01*
X133122955Y-68415815D01*
G37*
G36*
X139726955Y-68415815D02*
X139902247Y-68488423D01*
X140060005Y-68593833D01*
X140194167Y-68727995D01*
X140299577Y-68885753D01*
X140372185Y-69061045D01*
X140409200Y-69247133D01*
X140409200Y-69436867D01*
X140372185Y-69622955D01*
X140299577Y-69798247D01*
X140194167Y-69956005D01*
X140060005Y-70090167D01*
X139902247Y-70195577D01*
X139726955Y-70268185D01*
X139540867Y-70305200D01*
X139351133Y-70305200D01*
X139165045Y-70268185D01*
X138989753Y-70195577D01*
X138831995Y-70090167D01*
X138697833Y-69956005D01*
X138592423Y-69798247D01*
X138519815Y-69622955D01*
X138482800Y-69436867D01*
X138482800Y-69247133D01*
X138519815Y-69061045D01*
X138592423Y-68885753D01*
X138697833Y-68727995D01*
X138831995Y-68593833D01*
X138989753Y-68488423D01*
X139165045Y-68415815D01*
X139351133Y-68378800D01*
X139540867Y-68378800D01*
X139726955Y-68415815D01*
X139726955Y-68415815D01*
G37*
G36*
X172667200Y-70305200D02*
X170740800Y-70305200D01*
X170740800Y-68378800D01*
X172667200Y-68378800D01*
X172667200Y-70305200D01*
X172667200Y-70305200D01*
G37*
G36*
X177064955Y-68415815D02*
X177240247Y-68488423D01*
X177398005Y-68593833D01*
X177532167Y-68727995D01*
X177637577Y-68885753D01*
X177710185Y-69061045D01*
X177747200Y-69247133D01*
X177747200Y-69436867D01*
X177710185Y-69622955D01*
X177637577Y-69798247D01*
X177532167Y-69956005D01*
X177398005Y-70090167D01*
X177240247Y-70195577D01*
X177064955Y-70268185D01*
X176878867Y-70305200D01*
X176689133Y-70305200D01*
X176503045Y-70268185D01*
X176327753Y-70195577D01*
X176169995Y-70090167D01*
X176035833Y-69956005D01*
X175930423Y-69798247D01*
X175857815Y-69622955D01*
X175820800Y-69436867D01*
X175820800Y-69247133D01*
X175857815Y-69061045D01*
X175930423Y-68885753D01*
X176035833Y-68727995D01*
X176169995Y-68593833D01*
X176327753Y-68488423D01*
X176503045Y-68415815D01*
X176689133Y-68378800D01*
X176878867Y-68378800D01*
X177064955Y-68415815D01*
X177064955Y-68415815D01*
G37*
G36*
X174524955Y-68415815D02*
X174700247Y-68488423D01*
X174858005Y-68593833D01*
X174992167Y-68727995D01*
X175097577Y-68885753D01*
X175170185Y-69061045D01*
X175207200Y-69247133D01*
X175207200Y-69436867D01*
X175170185Y-69622955D01*
X175097577Y-69798247D01*
X174992167Y-69956005D01*
X174858005Y-70090167D01*
X174700247Y-70195577D01*
X174524955Y-70268185D01*
X174338867Y-70305200D01*
X174149133Y-70305200D01*
X173963045Y-70268185D01*
X173787753Y-70195577D01*
X173629995Y-70090167D01*
X173495833Y-69956005D01*
X173390423Y-69798247D01*
X173317815Y-69622955D01*
X173280800Y-69436867D01*
X173280800Y-69247133D01*
X173317815Y-69061045D01*
X173390423Y-68885753D01*
X173495833Y-68727995D01*
X173629995Y-68593833D01*
X173787753Y-68488423D01*
X173963045Y-68415815D01*
X174149133Y-68378800D01*
X174338867Y-68378800D01*
X174524955Y-68415815D01*
X174524955Y-68415815D01*
G37*
G36*
X168169075Y-65927104D02*
X168433579Y-66007340D01*
X168677348Y-66137637D01*
X168891013Y-66312987D01*
X169066363Y-66526652D01*
X169196660Y-66770421D01*
X169276896Y-67034925D01*
X169303989Y-67310000D01*
X169276896Y-67585075D01*
X169196660Y-67849579D01*
X169066363Y-68093348D01*
X168891013Y-68307013D01*
X168677348Y-68482363D01*
X168433579Y-68612660D01*
X168433576Y-68612661D01*
X168169075Y-68692896D01*
X167962929Y-68713200D01*
X167825071Y-68713200D01*
X167618925Y-68692896D01*
X167354424Y-68612661D01*
X167354421Y-68612660D01*
X167110652Y-68482363D01*
X166896987Y-68307013D01*
X166721637Y-68093348D01*
X166591340Y-67849579D01*
X166511104Y-67585075D01*
X166484011Y-67310000D01*
X166511104Y-67034925D01*
X166591340Y-66770421D01*
X166721637Y-66526652D01*
X166896987Y-66312987D01*
X167110652Y-66137637D01*
X167354421Y-66007340D01*
X167618925Y-65927104D01*
X167825071Y-65906800D01*
X167962929Y-65906800D01*
X168169075Y-65927104D01*
X168169075Y-65927104D01*
G37*
G36*
X155434276Y-65927104D02*
X155603299Y-65960725D01*
X155858664Y-66066500D01*
X156088488Y-66220064D01*
X156283936Y-66415512D01*
X156437500Y-66645336D01*
X156543275Y-66900701D01*
X156597200Y-67171798D01*
X156597200Y-67448202D01*
X156543275Y-67719299D01*
X156437500Y-67974664D01*
X156283936Y-68204488D01*
X156088488Y-68399936D01*
X155858664Y-68553500D01*
X155603299Y-68659275D01*
X155467750Y-68686238D01*
X155332203Y-68713200D01*
X155055797Y-68713200D01*
X154920250Y-68686238D01*
X154784701Y-68659275D01*
X154529336Y-68553500D01*
X154299512Y-68399936D01*
X154104064Y-68204488D01*
X153950500Y-67974664D01*
X153844725Y-67719299D01*
X153790800Y-67448202D01*
X153790800Y-67171798D01*
X153844725Y-66900701D01*
X153950500Y-66645336D01*
X154104064Y-66415512D01*
X154299512Y-66220064D01*
X154529336Y-66066500D01*
X154784701Y-65960725D01*
X154953724Y-65927104D01*
X155055797Y-65906800D01*
X155332203Y-65906800D01*
X155434276Y-65927104D01*
X155434276Y-65927104D01*
G37*
G36*
X122703075Y-64149104D02*
X122967579Y-64229340D01*
X123211348Y-64359637D01*
X123425013Y-64534987D01*
X123600363Y-64748652D01*
X123730660Y-64992421D01*
X123810896Y-65256925D01*
X123837989Y-65532000D01*
X123810896Y-65807075D01*
X123730660Y-66071579D01*
X123600363Y-66315348D01*
X123425013Y-66529013D01*
X123211348Y-66704363D01*
X122967579Y-66834660D01*
X122703075Y-66914896D01*
X122496929Y-66935200D01*
X122359071Y-66935200D01*
X122152925Y-66914896D01*
X121888421Y-66834660D01*
X121644652Y-66704363D01*
X121430987Y-66529013D01*
X121255637Y-66315348D01*
X121125340Y-66071579D01*
X121045104Y-65807075D01*
X121018011Y-65532000D01*
X121045104Y-65256925D01*
X121125340Y-64992421D01*
X121255637Y-64748652D01*
X121430987Y-64534987D01*
X121644652Y-64359637D01*
X121888421Y-64229340D01*
X122152925Y-64149104D01*
X122359071Y-64128800D01*
X122496929Y-64128800D01*
X122703075Y-64149104D01*
X122703075Y-64149104D01*
G37*
G36*
X127275075Y-64149104D02*
X127539579Y-64229340D01*
X127783348Y-64359637D01*
X127997013Y-64534987D01*
X128172363Y-64748652D01*
X128302660Y-64992421D01*
X128382896Y-65256925D01*
X128409989Y-65532000D01*
X128382896Y-65807075D01*
X128302660Y-66071579D01*
X128172363Y-66315348D01*
X127997013Y-66529013D01*
X127783348Y-66704363D01*
X127539579Y-66834660D01*
X127539576Y-66834661D01*
X127275075Y-66914896D01*
X127068929Y-66935200D01*
X126931071Y-66935200D01*
X126724925Y-66914896D01*
X126460424Y-66834661D01*
X126460421Y-66834660D01*
X126216652Y-66704363D01*
X126002987Y-66529013D01*
X125827637Y-66315348D01*
X125697340Y-66071579D01*
X125617104Y-65807075D01*
X125590011Y-65532000D01*
X125617104Y-65256925D01*
X125697340Y-64992421D01*
X125827637Y-64748652D01*
X126002987Y-64534987D01*
X126216652Y-64359637D01*
X126460421Y-64229340D01*
X126724925Y-64149104D01*
X126931071Y-64128800D01*
X127068929Y-64128800D01*
X127275075Y-64149104D01*
X127275075Y-64149104D01*
G37*
G36*
X145055075Y-62371104D02*
X145319579Y-62451340D01*
X145563348Y-62581637D01*
X145777013Y-62756987D01*
X145952363Y-62970652D01*
X146082660Y-63214421D01*
X146162896Y-63478925D01*
X146189989Y-63754000D01*
X146162896Y-64029075D01*
X146082660Y-64293579D01*
X145952363Y-64537348D01*
X145777013Y-64751013D01*
X145563348Y-64926363D01*
X145319579Y-65056660D01*
X145055075Y-65136896D01*
X144848929Y-65157200D01*
X144711071Y-65157200D01*
X144504925Y-65136896D01*
X144240421Y-65056660D01*
X143996652Y-64926363D01*
X143782987Y-64751013D01*
X143607637Y-64537348D01*
X143477340Y-64293579D01*
X143397104Y-64029075D01*
X143370011Y-63754000D01*
X143397104Y-63478925D01*
X143477340Y-63214421D01*
X143607637Y-62970652D01*
X143782987Y-62756987D01*
X143996652Y-62581637D01*
X144240421Y-62451340D01*
X144504925Y-62371104D01*
X144711071Y-62350800D01*
X144848929Y-62350800D01*
X145055075Y-62371104D01*
X145055075Y-62371104D01*
G37*
G36*
X149627075Y-62371104D02*
X149891579Y-62451340D01*
X150135348Y-62581637D01*
X150349013Y-62756987D01*
X150524363Y-62970652D01*
X150654660Y-63214421D01*
X150734896Y-63478925D01*
X150761989Y-63754000D01*
X150734896Y-64029075D01*
X150654660Y-64293579D01*
X150524363Y-64537348D01*
X150349013Y-64751013D01*
X150135348Y-64926363D01*
X149891579Y-65056660D01*
X149627075Y-65136896D01*
X149420929Y-65157200D01*
X149283071Y-65157200D01*
X149076925Y-65136896D01*
X148812421Y-65056660D01*
X148568652Y-64926363D01*
X148354987Y-64751013D01*
X148179637Y-64537348D01*
X148049340Y-64293579D01*
X147969104Y-64029075D01*
X147942011Y-63754000D01*
X147969104Y-63478925D01*
X148049340Y-63214421D01*
X148179637Y-62970652D01*
X148354987Y-62756987D01*
X148568652Y-62581637D01*
X148812421Y-62451340D01*
X149076925Y-62371104D01*
X149283071Y-62350800D01*
X149420929Y-62350800D01*
X149627075Y-62371104D01*
X149627075Y-62371104D01*
G37*
G36*
X138134623Y-63043352D02*
X138134626Y-63043353D01*
X138134625Y-63043353D01*
X138317191Y-63118974D01*
X138481503Y-63228764D01*
X138621236Y-63368497D01*
X138731026Y-63532809D01*
X138796988Y-63692055D01*
X138806648Y-63715377D01*
X138845200Y-63909193D01*
X138845200Y-64106807D01*
X138806648Y-64300623D01*
X138806647Y-64300625D01*
X138731026Y-64483191D01*
X138621236Y-64647503D01*
X138481503Y-64787236D01*
X138317191Y-64897026D01*
X138157945Y-64962988D01*
X138134623Y-64972648D01*
X137940807Y-65011200D01*
X137743193Y-65011200D01*
X137549377Y-64972648D01*
X137526055Y-64962988D01*
X137366809Y-64897026D01*
X137202497Y-64787236D01*
X137062764Y-64647503D01*
X136952974Y-64483191D01*
X136877353Y-64300625D01*
X136877352Y-64300623D01*
X136838800Y-64106807D01*
X136838800Y-63909193D01*
X136877352Y-63715377D01*
X136887012Y-63692055D01*
X136952974Y-63532809D01*
X137062764Y-63368497D01*
X137202497Y-63228764D01*
X137366809Y-63118974D01*
X137549375Y-63043353D01*
X137549374Y-63043353D01*
X137549377Y-63043352D01*
X137743193Y-63004800D01*
X137940807Y-63004800D01*
X138134623Y-63043352D01*
X138134623Y-63043352D01*
G37*
G36*
X133134623Y-63043352D02*
X133134626Y-63043353D01*
X133134625Y-63043353D01*
X133317191Y-63118974D01*
X133481503Y-63228764D01*
X133621236Y-63368497D01*
X133731026Y-63532809D01*
X133796988Y-63692055D01*
X133806648Y-63715377D01*
X133845200Y-63909193D01*
X133845200Y-64106807D01*
X133806648Y-64300623D01*
X133806647Y-64300625D01*
X133731026Y-64483191D01*
X133621236Y-64647503D01*
X133481503Y-64787236D01*
X133317191Y-64897026D01*
X133157945Y-64962988D01*
X133134623Y-64972648D01*
X132940807Y-65011200D01*
X132743193Y-65011200D01*
X132549377Y-64972648D01*
X132526055Y-64962988D01*
X132366809Y-64897026D01*
X132202497Y-64787236D01*
X132062764Y-64647503D01*
X131952974Y-64483191D01*
X131877353Y-64300625D01*
X131877352Y-64300623D01*
X131838800Y-64106807D01*
X131838800Y-63909193D01*
X131877352Y-63715377D01*
X131887012Y-63692055D01*
X131952974Y-63532809D01*
X132062764Y-63368497D01*
X132202497Y-63228764D01*
X132366809Y-63118974D01*
X132549375Y-63043353D01*
X132549374Y-63043353D01*
X132549377Y-63043352D01*
X132743193Y-63004800D01*
X132940807Y-63004800D01*
X133134623Y-63043352D01*
X133134623Y-63043352D01*
G37*
G36*
X174403160Y-59748573D02*
X174599627Y-59787652D01*
X174739546Y-59845609D01*
X174821508Y-59879559D01*
X174821509Y-59879560D01*
X175021193Y-60012984D01*
X175191016Y-60182807D01*
X175279965Y-60315930D01*
X175324441Y-60382492D01*
X175358391Y-60464454D01*
X175416348Y-60604373D01*
X175453175Y-60789518D01*
X175463200Y-60839919D01*
X175463200Y-61080081D01*
X175460088Y-61095725D01*
X175416348Y-61315627D01*
X175358391Y-61455546D01*
X175324441Y-61537508D01*
X175324440Y-61537509D01*
X175191016Y-61737193D01*
X175021193Y-61907016D01*
X174888070Y-61995965D01*
X174821508Y-62040441D01*
X174739546Y-62074391D01*
X174599627Y-62132348D01*
X174403160Y-62171427D01*
X174364081Y-62179200D01*
X174123919Y-62179200D01*
X174084840Y-62171427D01*
X173888373Y-62132348D01*
X173748454Y-62074391D01*
X173666492Y-62040441D01*
X173599930Y-61995965D01*
X173466807Y-61907016D01*
X173296984Y-61737193D01*
X173163560Y-61537509D01*
X173163559Y-61537508D01*
X173129609Y-61455546D01*
X173071652Y-61315627D01*
X173047760Y-61195509D01*
X173040533Y-61171685D01*
X173028797Y-61149728D01*
X173013003Y-61130483D01*
X172993758Y-61114689D01*
X172971801Y-61102952D01*
X172947977Y-61095725D01*
X172923200Y-61093285D01*
X172898424Y-61095725D01*
X172874600Y-61102952D01*
X172852643Y-61114688D01*
X172833398Y-61130482D01*
X172817604Y-61149727D01*
X172805867Y-61171684D01*
X172798640Y-61195508D01*
X172796200Y-61220285D01*
X172796200Y-62052200D01*
X170611800Y-62052200D01*
X170611800Y-59867800D01*
X172796200Y-59867800D01*
X172796200Y-60699715D01*
X172798640Y-60724491D01*
X172805867Y-60748316D01*
X172817603Y-60770272D01*
X172833397Y-60789518D01*
X172852643Y-60805312D01*
X172874599Y-60817048D01*
X172898424Y-60824275D01*
X172923200Y-60826715D01*
X172947976Y-60824275D01*
X172971801Y-60817048D01*
X172993757Y-60805312D01*
X173013003Y-60789518D01*
X173028797Y-60770272D01*
X173040533Y-60748316D01*
X173047760Y-60724491D01*
X173071652Y-60604373D01*
X173129609Y-60464454D01*
X173163559Y-60382492D01*
X173208035Y-60315930D01*
X173296984Y-60182807D01*
X173466807Y-60012984D01*
X173666491Y-59879560D01*
X173666492Y-59879559D01*
X173748454Y-59845609D01*
X173888373Y-59787652D01*
X174084840Y-59748573D01*
X174123919Y-59740800D01*
X174364081Y-59740800D01*
X174403160Y-59748573D01*
X174403160Y-59748573D01*
G37*
G36*
X129064160Y-59748573D02*
X129260627Y-59787652D01*
X129400546Y-59845609D01*
X129482508Y-59879559D01*
X129482509Y-59879560D01*
X129682193Y-60012984D01*
X129852016Y-60182807D01*
X129940965Y-60315930D01*
X129985441Y-60382492D01*
X130019391Y-60464454D01*
X130077348Y-60604373D01*
X130114175Y-60789518D01*
X130124200Y-60839919D01*
X130124200Y-61080081D01*
X130121088Y-61095725D01*
X130077348Y-61315627D01*
X130019391Y-61455546D01*
X129985441Y-61537508D01*
X129985440Y-61537509D01*
X129852016Y-61737193D01*
X129682193Y-61907016D01*
X129549070Y-61995965D01*
X129482508Y-62040441D01*
X129400546Y-62074391D01*
X129260627Y-62132348D01*
X129064160Y-62171427D01*
X129025081Y-62179200D01*
X128784919Y-62179200D01*
X128745840Y-62171427D01*
X128549373Y-62132348D01*
X128409454Y-62074391D01*
X128327492Y-62040441D01*
X128260930Y-61995965D01*
X128127807Y-61907016D01*
X127957984Y-61737193D01*
X127824560Y-61537509D01*
X127824559Y-61537508D01*
X127790609Y-61455546D01*
X127732652Y-61315627D01*
X127708760Y-61195509D01*
X127701533Y-61171685D01*
X127689797Y-61149728D01*
X127674003Y-61130483D01*
X127654758Y-61114689D01*
X127632801Y-61102952D01*
X127608977Y-61095725D01*
X127584200Y-61093285D01*
X127559424Y-61095725D01*
X127535600Y-61102952D01*
X127513643Y-61114688D01*
X127494398Y-61130482D01*
X127478604Y-61149727D01*
X127466867Y-61171684D01*
X127459640Y-61195508D01*
X127457200Y-61220285D01*
X127457200Y-62052200D01*
X125272800Y-62052200D01*
X125272800Y-59867800D01*
X127457200Y-59867800D01*
X127457200Y-60699715D01*
X127459640Y-60724491D01*
X127466867Y-60748316D01*
X127478603Y-60770272D01*
X127494397Y-60789518D01*
X127513643Y-60805312D01*
X127535599Y-60817048D01*
X127559424Y-60824275D01*
X127584200Y-60826715D01*
X127608976Y-60824275D01*
X127632801Y-60817048D01*
X127654757Y-60805312D01*
X127674003Y-60789518D01*
X127689797Y-60770272D01*
X127701533Y-60748316D01*
X127708760Y-60724491D01*
X127732652Y-60604373D01*
X127790609Y-60464454D01*
X127824559Y-60382492D01*
X127869035Y-60315930D01*
X127957984Y-60182807D01*
X128127807Y-60012984D01*
X128327491Y-59879560D01*
X128327492Y-59879559D01*
X128409454Y-59845609D01*
X128549373Y-59787652D01*
X128745840Y-59748573D01*
X128784919Y-59740800D01*
X129025081Y-59740800D01*
X129064160Y-59748573D01*
X129064160Y-59748573D01*
G37*
G36*
X151832792Y-58959395D02*
X152033561Y-59042557D01*
X152214249Y-59163289D01*
X152367911Y-59316951D01*
X152488643Y-59497639D01*
X152571805Y-59698408D01*
X152614200Y-59911544D01*
X152614200Y-60128856D01*
X152571805Y-60341992D01*
X152488643Y-60542761D01*
X152367911Y-60723449D01*
X152214249Y-60877111D01*
X152033561Y-60997843D01*
X151832792Y-61081005D01*
X151619656Y-61123400D01*
X151402344Y-61123400D01*
X151189208Y-61081005D01*
X150988439Y-60997843D01*
X150807751Y-60877111D01*
X150654089Y-60723449D01*
X150533357Y-60542761D01*
X150450195Y-60341992D01*
X150407800Y-60128856D01*
X150407800Y-59911544D01*
X150450195Y-59698408D01*
X150533357Y-59497639D01*
X150654089Y-59316951D01*
X150807751Y-59163289D01*
X150988439Y-59042557D01*
X151189208Y-58959395D01*
X151402344Y-58917000D01*
X151619656Y-58917000D01*
X151832792Y-58959395D01*
X151832792Y-58959395D01*
G37*
G36*
X150074200Y-61123400D02*
X147867800Y-61123400D01*
X147867800Y-58917000D01*
X150074200Y-58917000D01*
X150074200Y-61123400D01*
X150074200Y-61123400D01*
G37*
G36*
X174011075Y-54624104D02*
X174275579Y-54704340D01*
X174519348Y-54834637D01*
X174733013Y-55009987D01*
X174908363Y-55223652D01*
X175038660Y-55467421D01*
X175118896Y-55731925D01*
X175145989Y-56007000D01*
X175118896Y-56282075D01*
X175038660Y-56546579D01*
X174908363Y-56790348D01*
X174733013Y-57004013D01*
X174519348Y-57179363D01*
X174275579Y-57309660D01*
X174275576Y-57309661D01*
X174011075Y-57389896D01*
X173804929Y-57410200D01*
X173667071Y-57410200D01*
X173460925Y-57389896D01*
X173196424Y-57309661D01*
X173196421Y-57309660D01*
X172952652Y-57179363D01*
X172738987Y-57004013D01*
X172563637Y-56790348D01*
X172433340Y-56546579D01*
X172353104Y-56282075D01*
X172326011Y-56007000D01*
X172353104Y-55731925D01*
X172433340Y-55467421D01*
X172563637Y-55223652D01*
X172738987Y-55009987D01*
X172952652Y-54834637D01*
X173196421Y-54704340D01*
X173460925Y-54624104D01*
X173667071Y-54603800D01*
X173804929Y-54603800D01*
X174011075Y-54624104D01*
X174011075Y-54624104D01*
G37*
G36*
X161276276Y-54624104D02*
X161445299Y-54657725D01*
X161700664Y-54763500D01*
X161930488Y-54917064D01*
X162125936Y-55112512D01*
X162279500Y-55342336D01*
X162385275Y-55597701D01*
X162439200Y-55868798D01*
X162439200Y-56145202D01*
X162385275Y-56416299D01*
X162279500Y-56671664D01*
X162125936Y-56901488D01*
X161930488Y-57096936D01*
X161700664Y-57250500D01*
X161445299Y-57356275D01*
X161309751Y-57383237D01*
X161174203Y-57410200D01*
X160897797Y-57410200D01*
X160762249Y-57383237D01*
X160626701Y-57356275D01*
X160371336Y-57250500D01*
X160141512Y-57096936D01*
X159946064Y-56901488D01*
X159792500Y-56671664D01*
X159686725Y-56416299D01*
X159632800Y-56145202D01*
X159632800Y-55868798D01*
X159686725Y-55597701D01*
X159792500Y-55342336D01*
X159946064Y-55112512D01*
X160141512Y-54917064D01*
X160371336Y-54763500D01*
X160626701Y-54657725D01*
X160795724Y-54624104D01*
X160897797Y-54603800D01*
X161174203Y-54603800D01*
X161276276Y-54624104D01*
X161276276Y-54624104D01*
G37*
G36*
X140575276Y-54624104D02*
X140744299Y-54657725D01*
X140999664Y-54763500D01*
X141229488Y-54917064D01*
X141424936Y-55112512D01*
X141578500Y-55342336D01*
X141684275Y-55597701D01*
X141738200Y-55868798D01*
X141738200Y-56145202D01*
X141684275Y-56416299D01*
X141578500Y-56671664D01*
X141424936Y-56901488D01*
X141229488Y-57096936D01*
X140999664Y-57250500D01*
X140744299Y-57356275D01*
X140608751Y-57383237D01*
X140473203Y-57410200D01*
X140196797Y-57410200D01*
X140061249Y-57383237D01*
X139925701Y-57356275D01*
X139670336Y-57250500D01*
X139440512Y-57096936D01*
X139245064Y-56901488D01*
X139091500Y-56671664D01*
X138985725Y-56416299D01*
X138931800Y-56145202D01*
X138931800Y-55868798D01*
X138985725Y-55597701D01*
X139091500Y-55342336D01*
X139245064Y-55112512D01*
X139440512Y-54917064D01*
X139670336Y-54763500D01*
X139925701Y-54657725D01*
X140094724Y-54624104D01*
X140196797Y-54603800D01*
X140473203Y-54603800D01*
X140575276Y-54624104D01*
X140575276Y-54624104D01*
G37*
G36*
X127910075Y-54624104D02*
X128174579Y-54704340D01*
X128418348Y-54834637D01*
X128632013Y-55009987D01*
X128807363Y-55223652D01*
X128937660Y-55467421D01*
X129017896Y-55731925D01*
X129044989Y-56007000D01*
X129017896Y-56282075D01*
X128937660Y-56546579D01*
X128807363Y-56790348D01*
X128632013Y-57004013D01*
X128418348Y-57179363D01*
X128174579Y-57309660D01*
X128174576Y-57309661D01*
X127910075Y-57389896D01*
X127703929Y-57410200D01*
X127566071Y-57410200D01*
X127359925Y-57389896D01*
X127095424Y-57309661D01*
X127095421Y-57309660D01*
X126851652Y-57179363D01*
X126637987Y-57004013D01*
X126462637Y-56790348D01*
X126332340Y-56546579D01*
X126252104Y-56282075D01*
X126225011Y-56007000D01*
X126252104Y-55731925D01*
X126332340Y-55467421D01*
X126462637Y-55223652D01*
X126637987Y-55009987D01*
X126851652Y-54834637D01*
X127095421Y-54704340D01*
X127359925Y-54624104D01*
X127566071Y-54603800D01*
X127703929Y-54603800D01*
X127910075Y-54624104D01*
X127910075Y-54624104D01*
G37*
G36*
X144639276Y-54243104D02*
X144808299Y-54276725D01*
X145063664Y-54382500D01*
X145293488Y-54536064D01*
X145488936Y-54731512D01*
X145642500Y-54961336D01*
X145748275Y-55216701D01*
X145802200Y-55487798D01*
X145802200Y-55764202D01*
X145748275Y-56035299D01*
X145642500Y-56290664D01*
X145488936Y-56520488D01*
X145293488Y-56715936D01*
X145063664Y-56869500D01*
X144808299Y-56975275D01*
X144672750Y-57002238D01*
X144537203Y-57029200D01*
X144260797Y-57029200D01*
X144125250Y-57002238D01*
X143989701Y-56975275D01*
X143734336Y-56869500D01*
X143504512Y-56715936D01*
X143309064Y-56520488D01*
X143155500Y-56290664D01*
X143049725Y-56035299D01*
X142995800Y-55764202D01*
X142995800Y-55487798D01*
X143049725Y-55216701D01*
X143155500Y-54961336D01*
X143309064Y-54731512D01*
X143504512Y-54536064D01*
X143734336Y-54382500D01*
X143989701Y-54276725D01*
X144158724Y-54243104D01*
X144260797Y-54222800D01*
X144537203Y-54222800D01*
X144639276Y-54243104D01*
X144639276Y-54243104D01*
G37*
G36*
X157374075Y-54243104D02*
X157638579Y-54323340D01*
X157882348Y-54453637D01*
X158096013Y-54628987D01*
X158271363Y-54842652D01*
X158401660Y-55086421D01*
X158481896Y-55350925D01*
X158508989Y-55626000D01*
X158481896Y-55901075D01*
X158401660Y-56165579D01*
X158271363Y-56409348D01*
X158096013Y-56623013D01*
X157882348Y-56798363D01*
X157638579Y-56928660D01*
X157374075Y-57008896D01*
X157167929Y-57029200D01*
X157030071Y-57029200D01*
X156823925Y-57008896D01*
X156559421Y-56928660D01*
X156315652Y-56798363D01*
X156101987Y-56623013D01*
X155926637Y-56409348D01*
X155796340Y-56165579D01*
X155716104Y-55901075D01*
X155689011Y-55626000D01*
X155716104Y-55350925D01*
X155796340Y-55086421D01*
X155926637Y-54842652D01*
X156101987Y-54628987D01*
X156315652Y-54453637D01*
X156559421Y-54323340D01*
X156823925Y-54243104D01*
X157030071Y-54222800D01*
X157167929Y-54222800D01*
X157374075Y-54243104D01*
X157374075Y-54243104D01*
G37*
G36*
X123608200Y-56933200D02*
X121501800Y-56933200D01*
X121501800Y-54826800D01*
X123608200Y-54826800D01*
X123608200Y-56933200D01*
X123608200Y-56933200D01*
G37*
G36*
X179361200Y-56933200D02*
X177254800Y-56933200D01*
X177254800Y-54826800D01*
X179361200Y-54826800D01*
X179361200Y-56933200D01*
X179361200Y-56933200D01*
G37*
M02*
