G04 #@! TF.GenerationSoftware,KiCad,Pcbnew,(5.0.1)-4*
G04 #@! TF.CreationDate,2019-02-28T18:36:34-05:00*
G04 #@! TF.ProjectId,km-skillz-badge-kit-front,6B6D2D736B696C6C7A2D62616467652D,rev?*
G04 #@! TF.SameCoordinates,Original*
G04 #@! TF.FileFunction,Soldermask,Bot*
G04 #@! TF.FilePolarity,Negative*
%FSLAX46Y46*%
G04 Gerber Fmt 4.6, Leading zero omitted, Abs format (unit mm)*
G04 Created by KiCad (PCBNEW (5.0.1)-4) date 2/28/2019 6:36:34 PM*
%MOMM*%
%LPD*%
G01*
G04 APERTURE LIST*
%ADD10C,0.010000*%
%ADD11C,0.100000*%
G04 APERTURE END LIST*
D10*
G04 #@! TO.C,G\002A\002A\002A*
G36*
X168486667Y-73466596D02*
X168506727Y-76928798D01*
X168526786Y-80391000D01*
X167703232Y-80856667D01*
X167304195Y-81082710D01*
X166898742Y-81313079D01*
X166545792Y-81514268D01*
X166380950Y-81608634D01*
X165882222Y-81894934D01*
X165935676Y-81354634D01*
X165956161Y-81061163D01*
X165974056Y-80645790D01*
X165988341Y-80155938D01*
X165997997Y-79639030D01*
X166002005Y-79142490D01*
X165999344Y-78713741D01*
X165995791Y-78558559D01*
X165933558Y-78360917D01*
X165794872Y-78268064D01*
X165629802Y-78306964D01*
X165590433Y-78340281D01*
X165529007Y-78468250D01*
X165469165Y-78732130D01*
X165409859Y-79139585D01*
X165350043Y-79698276D01*
X165288668Y-80415869D01*
X165266113Y-80712900D01*
X165235742Y-81040394D01*
X165200879Y-81288454D01*
X165167212Y-81420689D01*
X165153612Y-81432567D01*
X165062801Y-81387685D01*
X164846534Y-81279045D01*
X164530351Y-81119528D01*
X164139792Y-80922017D01*
X163770960Y-80735171D01*
X163282709Y-80490270D01*
X162921841Y-80316979D01*
X162666505Y-80206891D01*
X162494848Y-80151600D01*
X162385019Y-80142698D01*
X162315165Y-80171780D01*
X162312381Y-80174038D01*
X162212675Y-80276407D01*
X162175163Y-80379980D01*
X162212054Y-80494990D01*
X162335557Y-80631670D01*
X162557882Y-80800255D01*
X162891239Y-81010977D01*
X163347837Y-81274071D01*
X163939886Y-81599769D01*
X164147500Y-81712168D01*
X164513382Y-81913011D01*
X164818205Y-82086549D01*
X165034615Y-82216736D01*
X165135260Y-82287527D01*
X165139153Y-82293867D01*
X165067788Y-82353188D01*
X164876584Y-82475587D01*
X164595101Y-82644438D01*
X164252901Y-82843116D01*
X163879547Y-83054993D01*
X163504600Y-83263444D01*
X163157622Y-83451841D01*
X162868173Y-83603558D01*
X162665817Y-83701969D01*
X162583440Y-83731281D01*
X162488637Y-83688975D01*
X162264218Y-83570040D01*
X161926529Y-83383693D01*
X161491916Y-83139148D01*
X160976725Y-82845621D01*
X160397301Y-82512326D01*
X159769991Y-82148479D01*
X159596667Y-82047445D01*
X156718000Y-80367663D01*
X156695902Y-76895674D01*
X156673803Y-73423685D01*
X157935174Y-72695176D01*
X158352721Y-72456399D01*
X158720543Y-72250555D01*
X159013240Y-72091498D01*
X159205411Y-71993082D01*
X159269606Y-71967319D01*
X159349838Y-72035400D01*
X159472020Y-72207899D01*
X159542512Y-72327152D01*
X159748144Y-72681908D01*
X159972319Y-73044643D01*
X160194119Y-73384214D01*
X160392623Y-73669481D01*
X160546915Y-73869303D01*
X160633834Y-73951766D01*
X160829811Y-73956996D01*
X160964619Y-73836434D01*
X160991439Y-73714442D01*
X160946414Y-73541101D01*
X160821851Y-73249204D01*
X160629614Y-72862742D01*
X160381569Y-72405705D01*
X160122476Y-71957324D01*
X159890768Y-71566981D01*
X160886718Y-70993198D01*
X161288769Y-70761527D01*
X161669469Y-70542080D01*
X161988573Y-70358062D01*
X162205834Y-70232678D01*
X162222523Y-70223037D01*
X162562379Y-70026658D01*
X168486667Y-73466596D01*
X168486667Y-73466596D01*
G37*
X168486667Y-73466596D02*
X168506727Y-76928798D01*
X168526786Y-80391000D01*
X167703232Y-80856667D01*
X167304195Y-81082710D01*
X166898742Y-81313079D01*
X166545792Y-81514268D01*
X166380950Y-81608634D01*
X165882222Y-81894934D01*
X165935676Y-81354634D01*
X165956161Y-81061163D01*
X165974056Y-80645790D01*
X165988341Y-80155938D01*
X165997997Y-79639030D01*
X166002005Y-79142490D01*
X165999344Y-78713741D01*
X165995791Y-78558559D01*
X165933558Y-78360917D01*
X165794872Y-78268064D01*
X165629802Y-78306964D01*
X165590433Y-78340281D01*
X165529007Y-78468250D01*
X165469165Y-78732130D01*
X165409859Y-79139585D01*
X165350043Y-79698276D01*
X165288668Y-80415869D01*
X165266113Y-80712900D01*
X165235742Y-81040394D01*
X165200879Y-81288454D01*
X165167212Y-81420689D01*
X165153612Y-81432567D01*
X165062801Y-81387685D01*
X164846534Y-81279045D01*
X164530351Y-81119528D01*
X164139792Y-80922017D01*
X163770960Y-80735171D01*
X163282709Y-80490270D01*
X162921841Y-80316979D01*
X162666505Y-80206891D01*
X162494848Y-80151600D01*
X162385019Y-80142698D01*
X162315165Y-80171780D01*
X162312381Y-80174038D01*
X162212675Y-80276407D01*
X162175163Y-80379980D01*
X162212054Y-80494990D01*
X162335557Y-80631670D01*
X162557882Y-80800255D01*
X162891239Y-81010977D01*
X163347837Y-81274071D01*
X163939886Y-81599769D01*
X164147500Y-81712168D01*
X164513382Y-81913011D01*
X164818205Y-82086549D01*
X165034615Y-82216736D01*
X165135260Y-82287527D01*
X165139153Y-82293867D01*
X165067788Y-82353188D01*
X164876584Y-82475587D01*
X164595101Y-82644438D01*
X164252901Y-82843116D01*
X163879547Y-83054993D01*
X163504600Y-83263444D01*
X163157622Y-83451841D01*
X162868173Y-83603558D01*
X162665817Y-83701969D01*
X162583440Y-83731281D01*
X162488637Y-83688975D01*
X162264218Y-83570040D01*
X161926529Y-83383693D01*
X161491916Y-83139148D01*
X160976725Y-82845621D01*
X160397301Y-82512326D01*
X159769991Y-82148479D01*
X159596667Y-82047445D01*
X156718000Y-80367663D01*
X156695902Y-76895674D01*
X156673803Y-73423685D01*
X157935174Y-72695176D01*
X158352721Y-72456399D01*
X158720543Y-72250555D01*
X159013240Y-72091498D01*
X159205411Y-71993082D01*
X159269606Y-71967319D01*
X159349838Y-72035400D01*
X159472020Y-72207899D01*
X159542512Y-72327152D01*
X159748144Y-72681908D01*
X159972319Y-73044643D01*
X160194119Y-73384214D01*
X160392623Y-73669481D01*
X160546915Y-73869303D01*
X160633834Y-73951766D01*
X160829811Y-73956996D01*
X160964619Y-73836434D01*
X160991439Y-73714442D01*
X160946414Y-73541101D01*
X160821851Y-73249204D01*
X160629614Y-72862742D01*
X160381569Y-72405705D01*
X160122476Y-71957324D01*
X159890768Y-71566981D01*
X160886718Y-70993198D01*
X161288769Y-70761527D01*
X161669469Y-70542080D01*
X161988573Y-70358062D01*
X162205834Y-70232678D01*
X162222523Y-70223037D01*
X162562379Y-70026658D01*
X168486667Y-73466596D01*
D11*
G36*
X144407410Y-57914413D02*
X146384334Y-57914628D01*
X148518800Y-57914854D01*
X150495000Y-57914940D01*
X152770696Y-57914828D01*
X154883384Y-57914595D01*
X156839391Y-57914393D01*
X158645043Y-57914378D01*
X160306666Y-57914701D01*
X161830585Y-57915518D01*
X163223128Y-57916982D01*
X164490619Y-57919247D01*
X165639385Y-57922466D01*
X166675752Y-57926793D01*
X167606045Y-57932381D01*
X168436592Y-57939385D01*
X169173717Y-57947959D01*
X169823746Y-57958255D01*
X170393007Y-57970427D01*
X170887824Y-57984630D01*
X171314524Y-58001016D01*
X171679432Y-58019741D01*
X171988875Y-58040956D01*
X172249179Y-58064817D01*
X172466669Y-58091476D01*
X172647672Y-58121088D01*
X172798514Y-58153806D01*
X172925520Y-58189784D01*
X173035017Y-58229175D01*
X173133330Y-58272134D01*
X173226786Y-58318813D01*
X173321710Y-58369367D01*
X173424429Y-58423950D01*
X173524334Y-58474479D01*
X173917265Y-58692172D01*
X174283781Y-58957022D01*
X174675289Y-59307951D01*
X174839759Y-59470410D01*
X175359654Y-60047993D01*
X175749087Y-60615480D01*
X176036452Y-61221417D01*
X176235746Y-61857129D01*
X176253357Y-61928521D01*
X176269687Y-62004076D01*
X176284784Y-62090148D01*
X176298697Y-62193090D01*
X176311473Y-62319257D01*
X176323161Y-62475003D01*
X176333809Y-62666680D01*
X176343467Y-62900644D01*
X176352181Y-63183248D01*
X176360002Y-63520846D01*
X176366976Y-63919791D01*
X176373153Y-64386438D01*
X176378581Y-64927140D01*
X176383308Y-65548252D01*
X176387382Y-66256126D01*
X176390853Y-67057118D01*
X176393767Y-67957580D01*
X176396175Y-68963867D01*
X176398124Y-70082333D01*
X176399662Y-71319331D01*
X176400838Y-72681215D01*
X176401700Y-74174339D01*
X176402297Y-75805058D01*
X176402678Y-77579724D01*
X176402889Y-79504691D01*
X176402981Y-81586315D01*
X176403000Y-83820000D01*
X176402983Y-86063510D01*
X176402900Y-88144044D01*
X176402702Y-90067957D01*
X176402339Y-91841607D01*
X176401763Y-93471349D01*
X176400924Y-94963541D01*
X176399773Y-96324539D01*
X176398262Y-97560699D01*
X176396341Y-98678379D01*
X176393961Y-99683934D01*
X176391073Y-100583721D01*
X176387628Y-101384097D01*
X176383578Y-102091418D01*
X176378872Y-102712041D01*
X176373461Y-103252322D01*
X176367298Y-103718618D01*
X176360332Y-104117286D01*
X176352515Y-104454682D01*
X176343797Y-104737162D01*
X176334130Y-104971083D01*
X176323464Y-105162802D01*
X176311751Y-105318676D01*
X176298940Y-105445059D01*
X176284984Y-105548311D01*
X176269833Y-105634786D01*
X176253438Y-105710841D01*
X176235750Y-105782834D01*
X176233384Y-105792107D01*
X175925761Y-106687758D01*
X175486747Y-107479135D01*
X174914371Y-108168350D01*
X174206661Y-108757511D01*
X173361648Y-109248731D01*
X172766406Y-109505608D01*
X172296667Y-109685667D01*
X150706667Y-109698045D01*
X148802075Y-109698870D01*
X146939827Y-109699154D01*
X145127170Y-109698914D01*
X143371352Y-109698169D01*
X141679619Y-109696938D01*
X140059221Y-109695239D01*
X138517403Y-109693091D01*
X137061415Y-109690512D01*
X135698504Y-109687521D01*
X134435916Y-109684136D01*
X133280901Y-109680376D01*
X132240704Y-109676259D01*
X131322575Y-109671805D01*
X130533761Y-109667030D01*
X129881509Y-109661955D01*
X129373067Y-109656598D01*
X129015682Y-109650976D01*
X128816602Y-109645109D01*
X128778000Y-109641958D01*
X127919456Y-109384151D01*
X127118877Y-108977853D01*
X126394112Y-108439084D01*
X125763012Y-107783864D01*
X125243427Y-107028216D01*
X124853207Y-106188160D01*
X124817592Y-106087334D01*
X124629334Y-105537000D01*
X124607195Y-84094412D01*
X124604717Y-81804468D01*
X124602281Y-79677570D01*
X124600035Y-77707433D01*
X124599437Y-77137721D01*
X127889000Y-77137721D01*
X127889246Y-78923262D01*
X127890021Y-80546213D01*
X127891380Y-82013316D01*
X127893379Y-83331313D01*
X127896074Y-84506948D01*
X127899520Y-85546961D01*
X127903773Y-86458097D01*
X127908888Y-87247096D01*
X127914921Y-87920702D01*
X127921927Y-88485657D01*
X127929963Y-88948703D01*
X127939084Y-89316583D01*
X127949344Y-89596039D01*
X127960801Y-89793813D01*
X127973509Y-89916649D01*
X127987524Y-89971287D01*
X127994834Y-89975229D01*
X128084469Y-89926438D01*
X128308345Y-89799935D01*
X128654127Y-89602800D01*
X129109483Y-89342117D01*
X129662080Y-89024965D01*
X130299585Y-88658429D01*
X131009664Y-88249588D01*
X131779984Y-87805526D01*
X132598213Y-87333323D01*
X133011334Y-87094719D01*
X137922000Y-84257764D01*
X137978607Y-83357721D01*
X138150978Y-81932323D01*
X138481851Y-80555317D01*
X138964730Y-79237024D01*
X139593120Y-77987765D01*
X140360526Y-76817859D01*
X141260450Y-75737626D01*
X142286399Y-74757387D01*
X143431876Y-73887461D01*
X144264724Y-73370471D01*
X145150784Y-72927836D01*
X146145263Y-72539058D01*
X147190829Y-72223351D01*
X148230150Y-71999929D01*
X148463000Y-71963512D01*
X148993757Y-71910338D01*
X149633791Y-71882579D01*
X150327131Y-71879553D01*
X151017809Y-71900579D01*
X151649856Y-71944975D01*
X152146000Y-72008346D01*
X152754272Y-72136142D01*
X153438140Y-72318096D01*
X154137039Y-72535353D01*
X154790405Y-72769059D01*
X155337673Y-73000360D01*
X155347656Y-73005086D01*
X155924645Y-73279000D01*
X153611989Y-74609083D01*
X152931668Y-75004379D01*
X152360872Y-75344425D01*
X151907634Y-75624149D01*
X151579984Y-75838479D01*
X151385955Y-75982346D01*
X151332452Y-76048417D01*
X151445771Y-76469589D01*
X151488045Y-76761419D01*
X151461642Y-76947159D01*
X151429389Y-77000652D01*
X151256671Y-77118284D01*
X151054136Y-77081429D01*
X150812396Y-76887220D01*
X150718412Y-76783441D01*
X150420629Y-76435548D01*
X148743314Y-77388848D01*
X148259146Y-77664851D01*
X147824011Y-77914476D01*
X147459672Y-78125109D01*
X147187891Y-78284138D01*
X147030428Y-78378951D01*
X147000964Y-78398677D01*
X147035533Y-78475309D01*
X147146841Y-78684885D01*
X147327046Y-79013653D01*
X147568304Y-79447862D01*
X147862770Y-79973761D01*
X148202601Y-80577599D01*
X148579954Y-81245624D01*
X148986985Y-81964085D01*
X149415850Y-82719231D01*
X149858706Y-83497311D01*
X150307708Y-84284572D01*
X150755014Y-85067265D01*
X151192780Y-85831637D01*
X151613161Y-86563937D01*
X152008315Y-87250415D01*
X152370398Y-87877319D01*
X152691566Y-88430897D01*
X152963975Y-88897398D01*
X153179782Y-89263071D01*
X153331142Y-89514166D01*
X153410214Y-89636929D01*
X153413948Y-89641747D01*
X153487361Y-89606837D01*
X153682000Y-89500537D01*
X153973052Y-89337172D01*
X154335706Y-89131066D01*
X154745150Y-88896545D01*
X155176573Y-88647932D01*
X155605163Y-88399555D01*
X156006109Y-88165736D01*
X156354599Y-87960801D01*
X156625821Y-87799075D01*
X156794964Y-87694883D01*
X156838815Y-87664408D01*
X156834464Y-87570062D01*
X156781530Y-87370466D01*
X156730930Y-87219758D01*
X156639410Y-86877568D01*
X156658158Y-86647528D01*
X156790584Y-86510426D01*
X156862002Y-86481604D01*
X157002413Y-86484728D01*
X157180681Y-86590306D01*
X157398933Y-86786866D01*
X157765173Y-87146304D01*
X159866253Y-85933890D01*
X160417127Y-85615569D01*
X160928435Y-85319272D01*
X161379362Y-85057126D01*
X161749095Y-84841258D01*
X162016820Y-84683796D01*
X162161722Y-84596868D01*
X162171569Y-84590668D01*
X162375805Y-84459859D01*
X162316078Y-85176033D01*
X162183963Y-86212261D01*
X161957579Y-87210265D01*
X161624141Y-88214278D01*
X161170868Y-89268537D01*
X161076622Y-89464883D01*
X160392322Y-90679882D01*
X159573137Y-91801292D01*
X158631024Y-92819857D01*
X157577938Y-93726317D01*
X156425835Y-94511417D01*
X155186671Y-95165898D01*
X153872401Y-95680502D01*
X152607998Y-96022274D01*
X152016364Y-96119297D01*
X151316623Y-96186132D01*
X150556160Y-96222272D01*
X149782363Y-96227208D01*
X149042617Y-96200433D01*
X148384308Y-96141439D01*
X147955000Y-96072140D01*
X146846197Y-95792909D01*
X145769355Y-95429133D01*
X144787930Y-95002510D01*
X144704124Y-94960595D01*
X143850085Y-94528113D01*
X135912063Y-99098624D01*
X134651535Y-99824704D01*
X133530111Y-100471427D01*
X132539920Y-101043526D01*
X131673087Y-101545737D01*
X130921742Y-101982793D01*
X130278012Y-102359430D01*
X129734024Y-102680382D01*
X129281905Y-102950383D01*
X128913783Y-103174168D01*
X128621787Y-103356471D01*
X128398042Y-103502027D01*
X128234677Y-103615571D01*
X128123819Y-103701837D01*
X128057595Y-103765560D01*
X128028134Y-103811474D01*
X128026415Y-103841067D01*
X128322732Y-104531387D01*
X128759498Y-105150403D01*
X129315102Y-105675893D01*
X129967929Y-106085637D01*
X130379551Y-106260412D01*
X130432139Y-106277208D01*
X130496239Y-106292736D01*
X130578394Y-106307050D01*
X130685146Y-106320201D01*
X130823037Y-106332242D01*
X130998610Y-106343224D01*
X131218406Y-106353198D01*
X131488968Y-106362218D01*
X131816839Y-106370334D01*
X132208559Y-106377600D01*
X132670672Y-106384066D01*
X133209721Y-106389784D01*
X133832246Y-106394807D01*
X134544791Y-106399187D01*
X135353897Y-106402974D01*
X136266107Y-106406222D01*
X137287964Y-106408982D01*
X138426009Y-106411306D01*
X139686784Y-106413246D01*
X141076832Y-106414854D01*
X142602696Y-106416181D01*
X144270916Y-106417280D01*
X146088037Y-106418203D01*
X148060599Y-106419001D01*
X150195145Y-106419727D01*
X150469982Y-106419814D01*
X170129964Y-106426000D01*
X170675263Y-106228067D01*
X171393614Y-105881727D01*
X172003362Y-105407448D01*
X172495495Y-104814243D01*
X172860999Y-104111125D01*
X172903067Y-104000263D01*
X173101000Y-103454964D01*
X173101000Y-83829403D01*
X173100970Y-81678432D01*
X173100844Y-79690223D01*
X173100569Y-77858203D01*
X173100093Y-76175800D01*
X173099365Y-74636442D01*
X173098330Y-73233559D01*
X173096936Y-71960576D01*
X173095132Y-70810923D01*
X173092864Y-69778028D01*
X173090080Y-68855319D01*
X173086728Y-68036223D01*
X173082755Y-67314168D01*
X173078108Y-66682584D01*
X173072734Y-66134897D01*
X173066582Y-65664536D01*
X173059599Y-65264928D01*
X173051733Y-64929503D01*
X173042930Y-64651687D01*
X173033138Y-64424910D01*
X173022305Y-64242598D01*
X173010378Y-64098180D01*
X172997305Y-63985084D01*
X172983033Y-63896738D01*
X172967509Y-63826570D01*
X172950682Y-63768009D01*
X172940417Y-63737101D01*
X172687043Y-63152926D01*
X172341883Y-62643045D01*
X171945435Y-62221762D01*
X171510295Y-61848565D01*
X171093283Y-61585717D01*
X170630775Y-61395273D01*
X170482133Y-61349073D01*
X170419991Y-61334142D01*
X170334859Y-61320341D01*
X170220254Y-61307626D01*
X170069700Y-61295954D01*
X169876714Y-61285280D01*
X169634819Y-61275561D01*
X169337534Y-61266753D01*
X168978379Y-61258812D01*
X168550875Y-61251695D01*
X168048542Y-61245357D01*
X167464901Y-61239756D01*
X166793471Y-61234847D01*
X166027774Y-61230586D01*
X165161328Y-61226930D01*
X164187656Y-61223836D01*
X163100276Y-61221258D01*
X161892710Y-61219154D01*
X160558477Y-61217480D01*
X159091098Y-61216192D01*
X157484093Y-61215247D01*
X155730983Y-61214599D01*
X153825288Y-61214207D01*
X151760528Y-61214026D01*
X150476962Y-61214000D01*
X148332390Y-61214010D01*
X146350546Y-61214079D01*
X144524823Y-61214264D01*
X142848617Y-61214623D01*
X141315321Y-61215213D01*
X139918330Y-61216093D01*
X138651038Y-61217319D01*
X137506839Y-61218949D01*
X136479128Y-61221041D01*
X135561298Y-61223653D01*
X134746745Y-61226842D01*
X134028862Y-61230666D01*
X133401044Y-61235182D01*
X132856685Y-61240448D01*
X132389179Y-61246522D01*
X131991920Y-61253461D01*
X131658304Y-61261322D01*
X131381723Y-61270165D01*
X131155573Y-61280045D01*
X130973248Y-61291021D01*
X130828142Y-61303150D01*
X130713648Y-61316490D01*
X130623163Y-61331098D01*
X130550079Y-61347033D01*
X130487791Y-61364352D01*
X130429693Y-61383111D01*
X130412184Y-61388999D01*
X129701378Y-61715034D01*
X129080712Y-62175666D01*
X128568766Y-62752334D01*
X128184119Y-63426476D01*
X128065218Y-63733565D01*
X128041611Y-63805336D01*
X128020212Y-63879226D01*
X128000913Y-63963484D01*
X127983606Y-64066361D01*
X127968182Y-64196106D01*
X127954533Y-64360969D01*
X127942550Y-64569201D01*
X127932124Y-64829052D01*
X127923148Y-65148771D01*
X127915513Y-65536608D01*
X127909110Y-66000814D01*
X127903831Y-66549638D01*
X127899568Y-67191330D01*
X127896211Y-67934141D01*
X127893653Y-68786321D01*
X127891785Y-69756119D01*
X127890499Y-70851785D01*
X127889686Y-72081570D01*
X127889237Y-73453723D01*
X127889045Y-74976495D01*
X127889001Y-76658135D01*
X127889000Y-77137721D01*
X124599437Y-77137721D01*
X124598124Y-75887771D01*
X124596694Y-74212296D01*
X124595892Y-72674724D01*
X124595865Y-71268767D01*
X124596757Y-69988139D01*
X124598716Y-68826553D01*
X124601888Y-67777725D01*
X124606418Y-66835366D01*
X124612455Y-65993192D01*
X124620142Y-65244915D01*
X124629628Y-64584249D01*
X124641058Y-64004908D01*
X124654578Y-63500606D01*
X124670335Y-63065057D01*
X124688474Y-62691973D01*
X124709143Y-62375069D01*
X124732487Y-62108059D01*
X124758653Y-61884656D01*
X124787787Y-61698573D01*
X124820035Y-61543525D01*
X124855544Y-61413226D01*
X124894459Y-61301388D01*
X124936927Y-61201726D01*
X124983095Y-61107953D01*
X125033108Y-61013783D01*
X125087113Y-60912929D01*
X125145256Y-60799106D01*
X125149398Y-60790667D01*
X125509597Y-60198701D01*
X125991309Y-59615878D01*
X126550415Y-59086316D01*
X127142797Y-58654131D01*
X127465667Y-58474479D01*
X127580216Y-58416292D01*
X127681505Y-58362265D01*
X127775858Y-58312247D01*
X127869603Y-58266082D01*
X127969064Y-58223617D01*
X128080568Y-58184699D01*
X128210442Y-58149173D01*
X128365010Y-58116886D01*
X128550599Y-58087684D01*
X128773536Y-58061414D01*
X129040145Y-58037922D01*
X129356753Y-58017054D01*
X129729685Y-57998656D01*
X130165269Y-57982575D01*
X130669830Y-57968657D01*
X131249693Y-57956749D01*
X131911185Y-57946696D01*
X132660632Y-57938345D01*
X133504360Y-57931542D01*
X134448695Y-57926134D01*
X135499962Y-57921967D01*
X136664488Y-57918887D01*
X137948599Y-57916740D01*
X139358621Y-57915373D01*
X140900879Y-57914632D01*
X142581700Y-57914363D01*
X144407410Y-57914413D01*
X144407410Y-57914413D01*
G37*
G36*
X178713038Y-110843431D02*
X178886511Y-110915286D01*
X178964569Y-110967443D01*
X179042630Y-111019601D01*
X179175399Y-111152370D01*
X179279715Y-111308491D01*
X179351569Y-111481962D01*
X179388200Y-111666118D01*
X179388200Y-111853882D01*
X179351569Y-112038038D01*
X179279715Y-112211509D01*
X179175399Y-112367630D01*
X179042630Y-112500399D01*
X178964570Y-112552557D01*
X178886511Y-112604714D01*
X178886510Y-112604715D01*
X178886509Y-112604715D01*
X178713038Y-112676569D01*
X178528882Y-112713200D01*
X178341118Y-112713200D01*
X178156962Y-112676569D01*
X177983491Y-112604715D01*
X177983490Y-112604715D01*
X177983489Y-112604714D01*
X177905431Y-112552557D01*
X177827370Y-112500399D01*
X177694601Y-112367630D01*
X177590285Y-112211509D01*
X177518431Y-112038038D01*
X177481800Y-111853882D01*
X177481800Y-111666118D01*
X177518431Y-111481962D01*
X177590285Y-111308491D01*
X177694601Y-111152370D01*
X177827370Y-111019601D01*
X177905431Y-110967443D01*
X177983489Y-110915286D01*
X178156962Y-110843431D01*
X178341118Y-110806800D01*
X178528882Y-110806800D01*
X178713038Y-110843431D01*
X178713038Y-110843431D01*
G37*
G36*
X122833038Y-110843431D02*
X123006511Y-110915286D01*
X123084569Y-110967443D01*
X123162630Y-111019601D01*
X123295399Y-111152370D01*
X123399715Y-111308491D01*
X123471569Y-111481962D01*
X123508200Y-111666118D01*
X123508200Y-111853882D01*
X123471569Y-112038038D01*
X123399715Y-112211509D01*
X123295399Y-112367630D01*
X123162630Y-112500399D01*
X123084570Y-112552557D01*
X123006511Y-112604714D01*
X123006510Y-112604715D01*
X123006509Y-112604715D01*
X122833038Y-112676569D01*
X122648882Y-112713200D01*
X122461118Y-112713200D01*
X122276962Y-112676569D01*
X122103491Y-112604715D01*
X122103490Y-112604715D01*
X122103489Y-112604714D01*
X122025431Y-112552557D01*
X121947370Y-112500399D01*
X121814601Y-112367630D01*
X121710285Y-112211509D01*
X121638431Y-112038038D01*
X121601800Y-111853882D01*
X121601800Y-111666118D01*
X121638431Y-111481962D01*
X121710285Y-111308491D01*
X121814601Y-111152370D01*
X121947370Y-111019601D01*
X122025431Y-110967443D01*
X122103489Y-110915286D01*
X122276962Y-110843431D01*
X122461118Y-110806800D01*
X122648882Y-110806800D01*
X122833038Y-110843431D01*
X122833038Y-110843431D01*
G37*
G36*
X178713038Y-54963431D02*
X178886511Y-55035286D01*
X178964570Y-55087443D01*
X179042630Y-55139601D01*
X179175399Y-55272370D01*
X179279715Y-55428491D01*
X179351569Y-55601962D01*
X179388200Y-55786118D01*
X179388200Y-55973882D01*
X179351569Y-56158038D01*
X179279715Y-56331509D01*
X179175399Y-56487630D01*
X179042630Y-56620399D01*
X178964569Y-56672557D01*
X178886511Y-56724714D01*
X178886510Y-56724715D01*
X178886509Y-56724715D01*
X178713038Y-56796569D01*
X178528882Y-56833200D01*
X178341118Y-56833200D01*
X178156962Y-56796569D01*
X177983491Y-56724715D01*
X177983490Y-56724715D01*
X177983489Y-56724714D01*
X177905431Y-56672557D01*
X177827370Y-56620399D01*
X177694601Y-56487630D01*
X177590285Y-56331509D01*
X177518431Y-56158038D01*
X177481800Y-55973882D01*
X177481800Y-55786118D01*
X177518431Y-55601962D01*
X177590285Y-55428491D01*
X177694601Y-55272370D01*
X177827370Y-55139601D01*
X177905430Y-55087443D01*
X177983489Y-55035286D01*
X178156962Y-54963431D01*
X178341118Y-54926800D01*
X178528882Y-54926800D01*
X178713038Y-54963431D01*
X178713038Y-54963431D01*
G37*
G36*
X122833038Y-54963431D02*
X123006511Y-55035286D01*
X123084570Y-55087443D01*
X123162630Y-55139601D01*
X123295399Y-55272370D01*
X123399715Y-55428491D01*
X123471569Y-55601962D01*
X123508200Y-55786118D01*
X123508200Y-55973882D01*
X123471569Y-56158038D01*
X123399715Y-56331509D01*
X123295399Y-56487630D01*
X123162630Y-56620399D01*
X123084569Y-56672557D01*
X123006511Y-56724714D01*
X123006510Y-56724715D01*
X123006509Y-56724715D01*
X122833038Y-56796569D01*
X122648882Y-56833200D01*
X122461118Y-56833200D01*
X122276962Y-56796569D01*
X122103491Y-56724715D01*
X122103490Y-56724715D01*
X122103489Y-56724714D01*
X122025431Y-56672557D01*
X121947370Y-56620399D01*
X121814601Y-56487630D01*
X121710285Y-56331509D01*
X121638431Y-56158038D01*
X121601800Y-55973882D01*
X121601800Y-55786118D01*
X121638431Y-55601962D01*
X121710285Y-55428491D01*
X121814601Y-55272370D01*
X121947370Y-55139601D01*
X122025430Y-55087443D01*
X122103489Y-55035286D01*
X122276962Y-54963431D01*
X122461118Y-54926800D01*
X122648882Y-54926800D01*
X122833038Y-54963431D01*
X122833038Y-54963431D01*
G37*
M02*
